M48
; DRILL file {KiCad 8.0.4} date 2024-11-15T13:14:34-0600
; FORMAT={-:-/ absolute / inch / decimal}
; #@! TF.CreationDate,2024-11-15T13:14:34-06:00
; #@! TF.GenerationSoftware,Kicad,Pcbnew,8.0.4
; #@! TF.FileFunction,Plated,1,4,PTH
FMAT,2
INCH
; #@! TA.AperFunction,Plated,PTH,ViaDrill
T1C0.0118
; #@! TA.AperFunction,Plated,PTH,ComponentDrill
T2C0.0236
%
G90
G05
T1
X5.4366Y-2.9528
X5.535Y-2.9134
X5.535Y-4.6063
X5.5547Y-3.7205
X5.5547Y-3.7598
X5.5547Y-3.7992
X5.5646Y-3.2382
X5.5646Y-3.3957
X5.5724Y-4.7047
X5.5744Y-2.815
X5.6079Y-4.1398
X5.6138Y-3.5335
X5.6335Y-3.1102
X5.6656Y-2.8854
X5.7122Y-3.376
X5.7161Y-2.813
X5.7339Y-4.4213
X5.7614Y-3.4744
X5.7634Y-4.0177
X5.7713Y-2.8425
X5.7811Y-3.002
X5.8205Y-3.75
X5.8303Y-3.3957
X5.8343Y-3.563
X5.8402Y-2.7874
X5.85Y-4.4094
X5.8579Y-3.9783
X5.8598Y-2.8937
X5.8657Y-3.563
X5.8795Y-3.0217
X5.8894Y-2.7854
X5.8894Y-3.9783
X5.9091Y-2.8681
X5.9091Y-2.9193
X5.9287Y-3.9488
X5.9465Y-3.563
X5.9504Y-3.8091
X5.9563Y-2.8928
X5.9583Y-3.3957
X5.9681Y-3.1102
X5.976Y-3.563
X5.978Y-3.0315
X5.9798Y-3.9614
X5.9878Y-3.7106
X6.0173Y-3.563
X6.0429Y-2.8642
X6.0469Y-3.563
X6.0469Y-3.7598
X6.0665Y-2.8327
X6.0882Y-4.0059
X6.0961Y-3.1201
X6.1039Y-3.0039
X6.1256Y-3.3661
X6.1354Y-2.9134
X6.1748Y-3.2382
X6.2339Y-4.3799
X6.2437Y-2.815
X6.2437Y-4.7047
X6.2634Y-3.4646
X6.2634Y-3.7205
X6.2634Y-3.7598
X6.2634Y-3.7992
X6.2831Y-2.8937
X6.2831Y-4.6063
X6.2969Y-4.1457
X6.3323Y-3.2087
T2
X5.8091Y-4.5079
X5.8384Y-4.5785
X5.9091Y-4.6079
X5.9797Y-4.5785
X6.0091Y-4.5079
M30
