%TF.GenerationSoftware,KiCad,Pcbnew,8.0.4*%
%TF.CreationDate,2024-11-15T13:14:51-06:00*%
%TF.ProjectId,BM_DepthIMU_v2,424d5f44-6570-4746-9849-4d555f76322e,rev?*%
%TF.SameCoordinates,Original*%
%TF.FileFunction,Legend,Top*%
%TF.FilePolarity,Positive*%
%FSLAX46Y46*%
G04 Gerber Fmt 4.6, Leading zero omitted, Abs format (unit mm)*
G04 Created by KiCad (PCBNEW 8.0.4) date 2024-11-15 13:14:51*
%MOMM*%
%LPD*%
G01*
G04 APERTURE LIST*
%ADD10C,0.100000*%
%ADD11C,0.125000*%
%ADD12C,0.150000*%
%ADD13C,0.254000*%
%ADD14C,0.127000*%
%TA.AperFunction,Profile*%
%ADD15C,0.050000*%
%TD*%
G04 APERTURE END LIST*
D10*
X154351905Y-114433609D02*
X154685238Y-114433609D01*
X154828095Y-114957419D02*
X154351905Y-114957419D01*
X154351905Y-114957419D02*
X154351905Y-113957419D01*
X154351905Y-113957419D02*
X154828095Y-113957419D01*
X155447143Y-113957419D02*
X155637619Y-113957419D01*
X155637619Y-113957419D02*
X155732857Y-114005038D01*
X155732857Y-114005038D02*
X155828095Y-114100276D01*
X155828095Y-114100276D02*
X155875714Y-114290752D01*
X155875714Y-114290752D02*
X155875714Y-114624085D01*
X155875714Y-114624085D02*
X155828095Y-114814561D01*
X155828095Y-114814561D02*
X155732857Y-114909800D01*
X155732857Y-114909800D02*
X155637619Y-114957419D01*
X155637619Y-114957419D02*
X155447143Y-114957419D01*
X155447143Y-114957419D02*
X155351905Y-114909800D01*
X155351905Y-114909800D02*
X155256667Y-114814561D01*
X155256667Y-114814561D02*
X155209048Y-114624085D01*
X155209048Y-114624085D02*
X155209048Y-114290752D01*
X155209048Y-114290752D02*
X155256667Y-114100276D01*
X155256667Y-114100276D02*
X155351905Y-114005038D01*
X155351905Y-114005038D02*
X155447143Y-113957419D01*
X156875714Y-114862180D02*
X156828095Y-114909800D01*
X156828095Y-114909800D02*
X156685238Y-114957419D01*
X156685238Y-114957419D02*
X156590000Y-114957419D01*
X156590000Y-114957419D02*
X156447143Y-114909800D01*
X156447143Y-114909800D02*
X156351905Y-114814561D01*
X156351905Y-114814561D02*
X156304286Y-114719323D01*
X156304286Y-114719323D02*
X156256667Y-114528847D01*
X156256667Y-114528847D02*
X156256667Y-114385990D01*
X156256667Y-114385990D02*
X156304286Y-114195514D01*
X156304286Y-114195514D02*
X156351905Y-114100276D01*
X156351905Y-114100276D02*
X156447143Y-114005038D01*
X156447143Y-114005038D02*
X156590000Y-113957419D01*
X156590000Y-113957419D02*
X156685238Y-113957419D01*
X156685238Y-113957419D02*
X156828095Y-114005038D01*
X156828095Y-114005038D02*
X156875714Y-114052657D01*
X144399524Y-117409800D02*
X144542381Y-117457419D01*
X144542381Y-117457419D02*
X144780476Y-117457419D01*
X144780476Y-117457419D02*
X144875714Y-117409800D01*
X144875714Y-117409800D02*
X144923333Y-117362180D01*
X144923333Y-117362180D02*
X144970952Y-117266942D01*
X144970952Y-117266942D02*
X144970952Y-117171704D01*
X144970952Y-117171704D02*
X144923333Y-117076466D01*
X144923333Y-117076466D02*
X144875714Y-117028847D01*
X144875714Y-117028847D02*
X144780476Y-116981228D01*
X144780476Y-116981228D02*
X144590000Y-116933609D01*
X144590000Y-116933609D02*
X144494762Y-116885990D01*
X144494762Y-116885990D02*
X144447143Y-116838371D01*
X144447143Y-116838371D02*
X144399524Y-116743133D01*
X144399524Y-116743133D02*
X144399524Y-116647895D01*
X144399524Y-116647895D02*
X144447143Y-116552657D01*
X144447143Y-116552657D02*
X144494762Y-116505038D01*
X144494762Y-116505038D02*
X144590000Y-116457419D01*
X144590000Y-116457419D02*
X144828095Y-116457419D01*
X144828095Y-116457419D02*
X144970952Y-116505038D01*
X145875714Y-117457419D02*
X145399524Y-117457419D01*
X145399524Y-117457419D02*
X145399524Y-116457419D01*
X146780476Y-117362180D02*
X146732857Y-117409800D01*
X146732857Y-117409800D02*
X146590000Y-117457419D01*
X146590000Y-117457419D02*
X146494762Y-117457419D01*
X146494762Y-117457419D02*
X146351905Y-117409800D01*
X146351905Y-117409800D02*
X146256667Y-117314561D01*
X146256667Y-117314561D02*
X146209048Y-117219323D01*
X146209048Y-117219323D02*
X146161429Y-117028847D01*
X146161429Y-117028847D02*
X146161429Y-116885990D01*
X146161429Y-116885990D02*
X146209048Y-116695514D01*
X146209048Y-116695514D02*
X146256667Y-116600276D01*
X146256667Y-116600276D02*
X146351905Y-116505038D01*
X146351905Y-116505038D02*
X146494762Y-116457419D01*
X146494762Y-116457419D02*
X146590000Y-116457419D01*
X146590000Y-116457419D02*
X146732857Y-116505038D01*
X146732857Y-116505038D02*
X146780476Y-116552657D01*
D11*
X154603188Y-91882309D02*
X154317474Y-91882309D01*
X154460331Y-91882309D02*
X154460331Y-91382309D01*
X154460331Y-91382309D02*
X154412712Y-91453738D01*
X154412712Y-91453738D02*
X154365093Y-91501357D01*
X154365093Y-91501357D02*
X154317474Y-91525166D01*
D10*
X143828095Y-114005038D02*
X143732857Y-113957419D01*
X143732857Y-113957419D02*
X143590000Y-113957419D01*
X143590000Y-113957419D02*
X143447143Y-114005038D01*
X143447143Y-114005038D02*
X143351905Y-114100276D01*
X143351905Y-114100276D02*
X143304286Y-114195514D01*
X143304286Y-114195514D02*
X143256667Y-114385990D01*
X143256667Y-114385990D02*
X143256667Y-114528847D01*
X143256667Y-114528847D02*
X143304286Y-114719323D01*
X143304286Y-114719323D02*
X143351905Y-114814561D01*
X143351905Y-114814561D02*
X143447143Y-114909800D01*
X143447143Y-114909800D02*
X143590000Y-114957419D01*
X143590000Y-114957419D02*
X143685238Y-114957419D01*
X143685238Y-114957419D02*
X143828095Y-114909800D01*
X143828095Y-114909800D02*
X143875714Y-114862180D01*
X143875714Y-114862180D02*
X143875714Y-114528847D01*
X143875714Y-114528847D02*
X143685238Y-114528847D01*
X144304286Y-114957419D02*
X144304286Y-113957419D01*
X144304286Y-113957419D02*
X144875714Y-114957419D01*
X144875714Y-114957419D02*
X144875714Y-113957419D01*
X145351905Y-114957419D02*
X145351905Y-113957419D01*
X145351905Y-113957419D02*
X145590000Y-113957419D01*
X145590000Y-113957419D02*
X145732857Y-114005038D01*
X145732857Y-114005038D02*
X145828095Y-114100276D01*
X145828095Y-114100276D02*
X145875714Y-114195514D01*
X145875714Y-114195514D02*
X145923333Y-114385990D01*
X145923333Y-114385990D02*
X145923333Y-114528847D01*
X145923333Y-114528847D02*
X145875714Y-114719323D01*
X145875714Y-114719323D02*
X145828095Y-114814561D01*
X145828095Y-114814561D02*
X145732857Y-114909800D01*
X145732857Y-114909800D02*
X145590000Y-114957419D01*
X145590000Y-114957419D02*
X145351905Y-114957419D01*
X136938609Y-94612782D02*
X136986228Y-94469925D01*
X136986228Y-94469925D02*
X137033847Y-94422306D01*
X137033847Y-94422306D02*
X137129085Y-94374687D01*
X137129085Y-94374687D02*
X137271942Y-94374687D01*
X137271942Y-94374687D02*
X137367180Y-94422306D01*
X137367180Y-94422306D02*
X137414800Y-94469925D01*
X137414800Y-94469925D02*
X137462419Y-94565163D01*
X137462419Y-94565163D02*
X137462419Y-94946115D01*
X137462419Y-94946115D02*
X136462419Y-94946115D01*
X136462419Y-94946115D02*
X136462419Y-94612782D01*
X136462419Y-94612782D02*
X136510038Y-94517544D01*
X136510038Y-94517544D02*
X136557657Y-94469925D01*
X136557657Y-94469925D02*
X136652895Y-94422306D01*
X136652895Y-94422306D02*
X136748133Y-94422306D01*
X136748133Y-94422306D02*
X136843371Y-94469925D01*
X136843371Y-94469925D02*
X136890990Y-94517544D01*
X136890990Y-94517544D02*
X136938609Y-94612782D01*
X136938609Y-94612782D02*
X136938609Y-94946115D01*
X137462419Y-93946115D02*
X136462419Y-93946115D01*
X136462419Y-93946115D02*
X137176704Y-93612782D01*
X137176704Y-93612782D02*
X136462419Y-93279449D01*
X136462419Y-93279449D02*
X137462419Y-93279449D01*
X137557657Y-93041354D02*
X137557657Y-92279449D01*
X137462419Y-92041353D02*
X136462419Y-92041353D01*
X136462419Y-92041353D02*
X136462419Y-91803258D01*
X136462419Y-91803258D02*
X136510038Y-91660401D01*
X136510038Y-91660401D02*
X136605276Y-91565163D01*
X136605276Y-91565163D02*
X136700514Y-91517544D01*
X136700514Y-91517544D02*
X136890990Y-91469925D01*
X136890990Y-91469925D02*
X137033847Y-91469925D01*
X137033847Y-91469925D02*
X137224323Y-91517544D01*
X137224323Y-91517544D02*
X137319561Y-91565163D01*
X137319561Y-91565163D02*
X137414800Y-91660401D01*
X137414800Y-91660401D02*
X137462419Y-91803258D01*
X137462419Y-91803258D02*
X137462419Y-92041353D01*
X137414800Y-90660401D02*
X137462419Y-90755639D01*
X137462419Y-90755639D02*
X137462419Y-90946115D01*
X137462419Y-90946115D02*
X137414800Y-91041353D01*
X137414800Y-91041353D02*
X137319561Y-91088972D01*
X137319561Y-91088972D02*
X136938609Y-91088972D01*
X136938609Y-91088972D02*
X136843371Y-91041353D01*
X136843371Y-91041353D02*
X136795752Y-90946115D01*
X136795752Y-90946115D02*
X136795752Y-90755639D01*
X136795752Y-90755639D02*
X136843371Y-90660401D01*
X136843371Y-90660401D02*
X136938609Y-90612782D01*
X136938609Y-90612782D02*
X137033847Y-90612782D01*
X137033847Y-90612782D02*
X137129085Y-91088972D01*
X136795752Y-90184210D02*
X137795752Y-90184210D01*
X136843371Y-90184210D02*
X136795752Y-90088972D01*
X136795752Y-90088972D02*
X136795752Y-89898496D01*
X136795752Y-89898496D02*
X136843371Y-89803258D01*
X136843371Y-89803258D02*
X136890990Y-89755639D01*
X136890990Y-89755639D02*
X136986228Y-89708020D01*
X136986228Y-89708020D02*
X137271942Y-89708020D01*
X137271942Y-89708020D02*
X137367180Y-89755639D01*
X137367180Y-89755639D02*
X137414800Y-89803258D01*
X137414800Y-89803258D02*
X137462419Y-89898496D01*
X137462419Y-89898496D02*
X137462419Y-90088972D01*
X137462419Y-90088972D02*
X137414800Y-90184210D01*
X136795752Y-89422305D02*
X136795752Y-89041353D01*
X136462419Y-89279448D02*
X137319561Y-89279448D01*
X137319561Y-89279448D02*
X137414800Y-89231829D01*
X137414800Y-89231829D02*
X137462419Y-89136591D01*
X137462419Y-89136591D02*
X137462419Y-89041353D01*
X137462419Y-88708019D02*
X136462419Y-88708019D01*
X137462419Y-88279448D02*
X136938609Y-88279448D01*
X136938609Y-88279448D02*
X136843371Y-88327067D01*
X136843371Y-88327067D02*
X136795752Y-88422305D01*
X136795752Y-88422305D02*
X136795752Y-88565162D01*
X136795752Y-88565162D02*
X136843371Y-88660400D01*
X136843371Y-88660400D02*
X136890990Y-88708019D01*
X137462419Y-87803257D02*
X136462419Y-87803257D01*
X137462419Y-87327067D02*
X136462419Y-87327067D01*
X136462419Y-87327067D02*
X137176704Y-86993734D01*
X137176704Y-86993734D02*
X136462419Y-86660401D01*
X136462419Y-86660401D02*
X137462419Y-86660401D01*
X136462419Y-86184210D02*
X137271942Y-86184210D01*
X137271942Y-86184210D02*
X137367180Y-86136591D01*
X137367180Y-86136591D02*
X137414800Y-86088972D01*
X137414800Y-86088972D02*
X137462419Y-85993734D01*
X137462419Y-85993734D02*
X137462419Y-85803258D01*
X137462419Y-85803258D02*
X137414800Y-85708020D01*
X137414800Y-85708020D02*
X137367180Y-85660401D01*
X137367180Y-85660401D02*
X137271942Y-85612782D01*
X137271942Y-85612782D02*
X136462419Y-85612782D01*
X137557657Y-85374687D02*
X137557657Y-84612782D01*
X137462419Y-84374686D02*
X136462419Y-84374686D01*
X136462419Y-84374686D02*
X136462419Y-83993734D01*
X136462419Y-83993734D02*
X136510038Y-83898496D01*
X136510038Y-83898496D02*
X136557657Y-83850877D01*
X136557657Y-83850877D02*
X136652895Y-83803258D01*
X136652895Y-83803258D02*
X136795752Y-83803258D01*
X136795752Y-83803258D02*
X136890990Y-83850877D01*
X136890990Y-83850877D02*
X136938609Y-83898496D01*
X136938609Y-83898496D02*
X136986228Y-83993734D01*
X136986228Y-83993734D02*
X136986228Y-84374686D01*
X137367180Y-82803258D02*
X137414800Y-82850877D01*
X137414800Y-82850877D02*
X137462419Y-82993734D01*
X137462419Y-82993734D02*
X137462419Y-83088972D01*
X137462419Y-83088972D02*
X137414800Y-83231829D01*
X137414800Y-83231829D02*
X137319561Y-83327067D01*
X137319561Y-83327067D02*
X137224323Y-83374686D01*
X137224323Y-83374686D02*
X137033847Y-83422305D01*
X137033847Y-83422305D02*
X136890990Y-83422305D01*
X136890990Y-83422305D02*
X136700514Y-83374686D01*
X136700514Y-83374686D02*
X136605276Y-83327067D01*
X136605276Y-83327067D02*
X136510038Y-83231829D01*
X136510038Y-83231829D02*
X136462419Y-83088972D01*
X136462419Y-83088972D02*
X136462419Y-82993734D01*
X136462419Y-82993734D02*
X136510038Y-82850877D01*
X136510038Y-82850877D02*
X136557657Y-82803258D01*
X136938609Y-82041353D02*
X136986228Y-81898496D01*
X136986228Y-81898496D02*
X137033847Y-81850877D01*
X137033847Y-81850877D02*
X137129085Y-81803258D01*
X137129085Y-81803258D02*
X137271942Y-81803258D01*
X137271942Y-81803258D02*
X137367180Y-81850877D01*
X137367180Y-81850877D02*
X137414800Y-81898496D01*
X137414800Y-81898496D02*
X137462419Y-81993734D01*
X137462419Y-81993734D02*
X137462419Y-82374686D01*
X137462419Y-82374686D02*
X136462419Y-82374686D01*
X136462419Y-82374686D02*
X136462419Y-82041353D01*
X136462419Y-82041353D02*
X136510038Y-81946115D01*
X136510038Y-81946115D02*
X136557657Y-81898496D01*
X136557657Y-81898496D02*
X136652895Y-81850877D01*
X136652895Y-81850877D02*
X136748133Y-81850877D01*
X136748133Y-81850877D02*
X136843371Y-81898496D01*
X136843371Y-81898496D02*
X136890990Y-81946115D01*
X136890990Y-81946115D02*
X136938609Y-82041353D01*
X136938609Y-82041353D02*
X136938609Y-82374686D01*
X137176704Y-81422305D02*
X137176704Y-80946115D01*
X137462419Y-81517543D02*
X136462419Y-81184210D01*
X136462419Y-81184210D02*
X137462419Y-80850877D01*
X137557657Y-80755639D02*
X137557657Y-79993734D01*
X136462419Y-79565162D02*
X136462419Y-79469924D01*
X136462419Y-79469924D02*
X136510038Y-79374686D01*
X136510038Y-79374686D02*
X136557657Y-79327067D01*
X136557657Y-79327067D02*
X136652895Y-79279448D01*
X136652895Y-79279448D02*
X136843371Y-79231829D01*
X136843371Y-79231829D02*
X137081466Y-79231829D01*
X137081466Y-79231829D02*
X137271942Y-79279448D01*
X137271942Y-79279448D02*
X137367180Y-79327067D01*
X137367180Y-79327067D02*
X137414800Y-79374686D01*
X137414800Y-79374686D02*
X137462419Y-79469924D01*
X137462419Y-79469924D02*
X137462419Y-79565162D01*
X137462419Y-79565162D02*
X137414800Y-79660400D01*
X137414800Y-79660400D02*
X137367180Y-79708019D01*
X137367180Y-79708019D02*
X137271942Y-79755638D01*
X137271942Y-79755638D02*
X137081466Y-79803257D01*
X137081466Y-79803257D02*
X136843371Y-79803257D01*
X136843371Y-79803257D02*
X136652895Y-79755638D01*
X136652895Y-79755638D02*
X136557657Y-79708019D01*
X136557657Y-79708019D02*
X136510038Y-79660400D01*
X136510038Y-79660400D02*
X136462419Y-79565162D01*
X136462419Y-78612781D02*
X136462419Y-78517543D01*
X136462419Y-78517543D02*
X136510038Y-78422305D01*
X136510038Y-78422305D02*
X136557657Y-78374686D01*
X136557657Y-78374686D02*
X136652895Y-78327067D01*
X136652895Y-78327067D02*
X136843371Y-78279448D01*
X136843371Y-78279448D02*
X137081466Y-78279448D01*
X137081466Y-78279448D02*
X137271942Y-78327067D01*
X137271942Y-78327067D02*
X137367180Y-78374686D01*
X137367180Y-78374686D02*
X137414800Y-78422305D01*
X137414800Y-78422305D02*
X137462419Y-78517543D01*
X137462419Y-78517543D02*
X137462419Y-78612781D01*
X137462419Y-78612781D02*
X137414800Y-78708019D01*
X137414800Y-78708019D02*
X137367180Y-78755638D01*
X137367180Y-78755638D02*
X137271942Y-78803257D01*
X137271942Y-78803257D02*
X137081466Y-78850876D01*
X137081466Y-78850876D02*
X136843371Y-78850876D01*
X136843371Y-78850876D02*
X136652895Y-78803257D01*
X136652895Y-78803257D02*
X136557657Y-78755638D01*
X136557657Y-78755638D02*
X136510038Y-78708019D01*
X136510038Y-78708019D02*
X136462419Y-78612781D01*
X136462419Y-77660400D02*
X136462419Y-77565162D01*
X136462419Y-77565162D02*
X136510038Y-77469924D01*
X136510038Y-77469924D02*
X136557657Y-77422305D01*
X136557657Y-77422305D02*
X136652895Y-77374686D01*
X136652895Y-77374686D02*
X136843371Y-77327067D01*
X136843371Y-77327067D02*
X137081466Y-77327067D01*
X137081466Y-77327067D02*
X137271942Y-77374686D01*
X137271942Y-77374686D02*
X137367180Y-77422305D01*
X137367180Y-77422305D02*
X137414800Y-77469924D01*
X137414800Y-77469924D02*
X137462419Y-77565162D01*
X137462419Y-77565162D02*
X137462419Y-77660400D01*
X137462419Y-77660400D02*
X137414800Y-77755638D01*
X137414800Y-77755638D02*
X137367180Y-77803257D01*
X137367180Y-77803257D02*
X137271942Y-77850876D01*
X137271942Y-77850876D02*
X137081466Y-77898495D01*
X137081466Y-77898495D02*
X136843371Y-77898495D01*
X136843371Y-77898495D02*
X136652895Y-77850876D01*
X136652895Y-77850876D02*
X136557657Y-77803257D01*
X136557657Y-77803257D02*
X136510038Y-77755638D01*
X136510038Y-77755638D02*
X136462419Y-77660400D01*
X136557657Y-76946114D02*
X136510038Y-76898495D01*
X136510038Y-76898495D02*
X136462419Y-76803257D01*
X136462419Y-76803257D02*
X136462419Y-76565162D01*
X136462419Y-76565162D02*
X136510038Y-76469924D01*
X136510038Y-76469924D02*
X136557657Y-76422305D01*
X136557657Y-76422305D02*
X136652895Y-76374686D01*
X136652895Y-76374686D02*
X136748133Y-76374686D01*
X136748133Y-76374686D02*
X136890990Y-76422305D01*
X136890990Y-76422305D02*
X137462419Y-76993733D01*
X137462419Y-76993733D02*
X137462419Y-76374686D01*
X148851905Y-118457419D02*
X149470952Y-118457419D01*
X149470952Y-118457419D02*
X149137619Y-118838371D01*
X149137619Y-118838371D02*
X149280476Y-118838371D01*
X149280476Y-118838371D02*
X149375714Y-118885990D01*
X149375714Y-118885990D02*
X149423333Y-118933609D01*
X149423333Y-118933609D02*
X149470952Y-119028847D01*
X149470952Y-119028847D02*
X149470952Y-119266942D01*
X149470952Y-119266942D02*
X149423333Y-119362180D01*
X149423333Y-119362180D02*
X149375714Y-119409800D01*
X149375714Y-119409800D02*
X149280476Y-119457419D01*
X149280476Y-119457419D02*
X148994762Y-119457419D01*
X148994762Y-119457419D02*
X148899524Y-119409800D01*
X148899524Y-119409800D02*
X148851905Y-119362180D01*
X149756667Y-118457419D02*
X150090000Y-119457419D01*
X150090000Y-119457419D02*
X150423333Y-118457419D01*
X150661429Y-118457419D02*
X151280476Y-118457419D01*
X151280476Y-118457419D02*
X150947143Y-118838371D01*
X150947143Y-118838371D02*
X151090000Y-118838371D01*
X151090000Y-118838371D02*
X151185238Y-118885990D01*
X151185238Y-118885990D02*
X151232857Y-118933609D01*
X151232857Y-118933609D02*
X151280476Y-119028847D01*
X151280476Y-119028847D02*
X151280476Y-119266942D01*
X151280476Y-119266942D02*
X151232857Y-119362180D01*
X151232857Y-119362180D02*
X151185238Y-119409800D01*
X151185238Y-119409800D02*
X151090000Y-119457419D01*
X151090000Y-119457419D02*
X150804286Y-119457419D01*
X150804286Y-119457419D02*
X150709048Y-119409800D01*
X150709048Y-119409800D02*
X150661429Y-119362180D01*
X153375714Y-117409800D02*
X153518571Y-117457419D01*
X153518571Y-117457419D02*
X153756666Y-117457419D01*
X153756666Y-117457419D02*
X153851904Y-117409800D01*
X153851904Y-117409800D02*
X153899523Y-117362180D01*
X153899523Y-117362180D02*
X153947142Y-117266942D01*
X153947142Y-117266942D02*
X153947142Y-117171704D01*
X153947142Y-117171704D02*
X153899523Y-117076466D01*
X153899523Y-117076466D02*
X153851904Y-117028847D01*
X153851904Y-117028847D02*
X153756666Y-116981228D01*
X153756666Y-116981228D02*
X153566190Y-116933609D01*
X153566190Y-116933609D02*
X153470952Y-116885990D01*
X153470952Y-116885990D02*
X153423333Y-116838371D01*
X153423333Y-116838371D02*
X153375714Y-116743133D01*
X153375714Y-116743133D02*
X153375714Y-116647895D01*
X153375714Y-116647895D02*
X153423333Y-116552657D01*
X153423333Y-116552657D02*
X153470952Y-116505038D01*
X153470952Y-116505038D02*
X153566190Y-116457419D01*
X153566190Y-116457419D02*
X153804285Y-116457419D01*
X153804285Y-116457419D02*
X153947142Y-116505038D01*
X154375714Y-117457419D02*
X154375714Y-116457419D01*
X154375714Y-116457419D02*
X154613809Y-116457419D01*
X154613809Y-116457419D02*
X154756666Y-116505038D01*
X154756666Y-116505038D02*
X154851904Y-116600276D01*
X154851904Y-116600276D02*
X154899523Y-116695514D01*
X154899523Y-116695514D02*
X154947142Y-116885990D01*
X154947142Y-116885990D02*
X154947142Y-117028847D01*
X154947142Y-117028847D02*
X154899523Y-117219323D01*
X154899523Y-117219323D02*
X154851904Y-117314561D01*
X154851904Y-117314561D02*
X154756666Y-117409800D01*
X154756666Y-117409800D02*
X154613809Y-117457419D01*
X154613809Y-117457419D02*
X154375714Y-117457419D01*
X155328095Y-117171704D02*
X155804285Y-117171704D01*
X155232857Y-117457419D02*
X155566190Y-116457419D01*
X155566190Y-116457419D02*
X155899523Y-117457419D01*
D12*
X149578333Y-113409580D02*
X149530714Y-113457200D01*
X149530714Y-113457200D02*
X149387857Y-113504819D01*
X149387857Y-113504819D02*
X149292619Y-113504819D01*
X149292619Y-113504819D02*
X149149762Y-113457200D01*
X149149762Y-113457200D02*
X149054524Y-113361961D01*
X149054524Y-113361961D02*
X149006905Y-113266723D01*
X149006905Y-113266723D02*
X148959286Y-113076247D01*
X148959286Y-113076247D02*
X148959286Y-112933390D01*
X148959286Y-112933390D02*
X149006905Y-112742914D01*
X149006905Y-112742914D02*
X149054524Y-112647676D01*
X149054524Y-112647676D02*
X149149762Y-112552438D01*
X149149762Y-112552438D02*
X149292619Y-112504819D01*
X149292619Y-112504819D02*
X149387857Y-112504819D01*
X149387857Y-112504819D02*
X149530714Y-112552438D01*
X149530714Y-112552438D02*
X149578333Y-112600057D01*
X149911667Y-112504819D02*
X150530714Y-112504819D01*
X150530714Y-112504819D02*
X150197381Y-112885771D01*
X150197381Y-112885771D02*
X150340238Y-112885771D01*
X150340238Y-112885771D02*
X150435476Y-112933390D01*
X150435476Y-112933390D02*
X150483095Y-112981009D01*
X150483095Y-112981009D02*
X150530714Y-113076247D01*
X150530714Y-113076247D02*
X150530714Y-113314342D01*
X150530714Y-113314342D02*
X150483095Y-113409580D01*
X150483095Y-113409580D02*
X150435476Y-113457200D01*
X150435476Y-113457200D02*
X150340238Y-113504819D01*
X150340238Y-113504819D02*
X150054524Y-113504819D01*
X150054524Y-113504819D02*
X149959286Y-113457200D01*
X149959286Y-113457200D02*
X149911667Y-113409580D01*
X161306666Y-76481009D02*
X160973333Y-76481009D01*
X160973333Y-77004819D02*
X160973333Y-76004819D01*
X160973333Y-76004819D02*
X161449523Y-76004819D01*
X161830476Y-77004819D02*
X161830476Y-76004819D01*
X161830476Y-76004819D02*
X162068571Y-76004819D01*
X162068571Y-76004819D02*
X162211428Y-76052438D01*
X162211428Y-76052438D02*
X162306666Y-76147676D01*
X162306666Y-76147676D02*
X162354285Y-76242914D01*
X162354285Y-76242914D02*
X162401904Y-76433390D01*
X162401904Y-76433390D02*
X162401904Y-76576247D01*
X162401904Y-76576247D02*
X162354285Y-76766723D01*
X162354285Y-76766723D02*
X162306666Y-76861961D01*
X162306666Y-76861961D02*
X162211428Y-76957200D01*
X162211428Y-76957200D02*
X162068571Y-77004819D01*
X162068571Y-77004819D02*
X161830476Y-77004819D01*
X162735238Y-76004819D02*
X163354285Y-76004819D01*
X163354285Y-76004819D02*
X163020952Y-76385771D01*
X163020952Y-76385771D02*
X163163809Y-76385771D01*
X163163809Y-76385771D02*
X163259047Y-76433390D01*
X163259047Y-76433390D02*
X163306666Y-76481009D01*
X163306666Y-76481009D02*
X163354285Y-76576247D01*
X163354285Y-76576247D02*
X163354285Y-76814342D01*
X163354285Y-76814342D02*
X163306666Y-76909580D01*
X163306666Y-76909580D02*
X163259047Y-76957200D01*
X163259047Y-76957200D02*
X163163809Y-77004819D01*
X163163809Y-77004819D02*
X162878095Y-77004819D01*
X162878095Y-77004819D02*
X162782857Y-76957200D01*
X162782857Y-76957200D02*
X162735238Y-76909580D01*
X156423333Y-74454819D02*
X156090000Y-73978628D01*
X155851905Y-74454819D02*
X155851905Y-73454819D01*
X155851905Y-73454819D02*
X156232857Y-73454819D01*
X156232857Y-73454819D02*
X156328095Y-73502438D01*
X156328095Y-73502438D02*
X156375714Y-73550057D01*
X156375714Y-73550057D02*
X156423333Y-73645295D01*
X156423333Y-73645295D02*
X156423333Y-73788152D01*
X156423333Y-73788152D02*
X156375714Y-73883390D01*
X156375714Y-73883390D02*
X156328095Y-73931009D01*
X156328095Y-73931009D02*
X156232857Y-73978628D01*
X156232857Y-73978628D02*
X155851905Y-73978628D01*
X157280476Y-73788152D02*
X157280476Y-74454819D01*
X157042381Y-73407200D02*
X156804286Y-74121485D01*
X156804286Y-74121485D02*
X157423333Y-74121485D01*
X149023333Y-103304819D02*
X148690000Y-102828628D01*
X148451905Y-103304819D02*
X148451905Y-102304819D01*
X148451905Y-102304819D02*
X148832857Y-102304819D01*
X148832857Y-102304819D02*
X148928095Y-102352438D01*
X148928095Y-102352438D02*
X148975714Y-102400057D01*
X148975714Y-102400057D02*
X149023333Y-102495295D01*
X149023333Y-102495295D02*
X149023333Y-102638152D01*
X149023333Y-102638152D02*
X148975714Y-102733390D01*
X148975714Y-102733390D02*
X148928095Y-102781009D01*
X148928095Y-102781009D02*
X148832857Y-102828628D01*
X148832857Y-102828628D02*
X148451905Y-102828628D01*
X149356667Y-102304819D02*
X149975714Y-102304819D01*
X149975714Y-102304819D02*
X149642381Y-102685771D01*
X149642381Y-102685771D02*
X149785238Y-102685771D01*
X149785238Y-102685771D02*
X149880476Y-102733390D01*
X149880476Y-102733390D02*
X149928095Y-102781009D01*
X149928095Y-102781009D02*
X149975714Y-102876247D01*
X149975714Y-102876247D02*
X149975714Y-103114342D01*
X149975714Y-103114342D02*
X149928095Y-103209580D01*
X149928095Y-103209580D02*
X149880476Y-103257200D01*
X149880476Y-103257200D02*
X149785238Y-103304819D01*
X149785238Y-103304819D02*
X149499524Y-103304819D01*
X149499524Y-103304819D02*
X149404286Y-103257200D01*
X149404286Y-103257200D02*
X149356667Y-103209580D01*
X145249985Y-75917805D02*
X144916652Y-75441614D01*
X144678557Y-75917805D02*
X144678557Y-74917805D01*
X144678557Y-74917805D02*
X145059509Y-74917805D01*
X145059509Y-74917805D02*
X145154747Y-74965424D01*
X145154747Y-74965424D02*
X145202366Y-75013043D01*
X145202366Y-75013043D02*
X145249985Y-75108281D01*
X145249985Y-75108281D02*
X145249985Y-75251138D01*
X145249985Y-75251138D02*
X145202366Y-75346376D01*
X145202366Y-75346376D02*
X145154747Y-75393995D01*
X145154747Y-75393995D02*
X145059509Y-75441614D01*
X145059509Y-75441614D02*
X144678557Y-75441614D01*
X146202366Y-75917805D02*
X145630938Y-75917805D01*
X145916652Y-75917805D02*
X145916652Y-74917805D01*
X145916652Y-74917805D02*
X145821414Y-75060662D01*
X145821414Y-75060662D02*
X145726176Y-75155900D01*
X145726176Y-75155900D02*
X145630938Y-75203519D01*
X144516690Y-71888342D02*
X144469071Y-71935962D01*
X144469071Y-71935962D02*
X144326214Y-71983581D01*
X144326214Y-71983581D02*
X144230976Y-71983581D01*
X144230976Y-71983581D02*
X144088119Y-71935962D01*
X144088119Y-71935962D02*
X143992881Y-71840723D01*
X143992881Y-71840723D02*
X143945262Y-71745485D01*
X143945262Y-71745485D02*
X143897643Y-71555009D01*
X143897643Y-71555009D02*
X143897643Y-71412152D01*
X143897643Y-71412152D02*
X143945262Y-71221676D01*
X143945262Y-71221676D02*
X143992881Y-71126438D01*
X143992881Y-71126438D02*
X144088119Y-71031200D01*
X144088119Y-71031200D02*
X144230976Y-70983581D01*
X144230976Y-70983581D02*
X144326214Y-70983581D01*
X144326214Y-70983581D02*
X144469071Y-71031200D01*
X144469071Y-71031200D02*
X144516690Y-71078819D01*
X144897643Y-71078819D02*
X144945262Y-71031200D01*
X144945262Y-71031200D02*
X145040500Y-70983581D01*
X145040500Y-70983581D02*
X145278595Y-70983581D01*
X145278595Y-70983581D02*
X145373833Y-71031200D01*
X145373833Y-71031200D02*
X145421452Y-71078819D01*
X145421452Y-71078819D02*
X145469071Y-71174057D01*
X145469071Y-71174057D02*
X145469071Y-71269295D01*
X145469071Y-71269295D02*
X145421452Y-71412152D01*
X145421452Y-71412152D02*
X144850024Y-71983581D01*
X144850024Y-71983581D02*
X145469071Y-71983581D01*
X147978333Y-77659580D02*
X147930714Y-77707200D01*
X147930714Y-77707200D02*
X147787857Y-77754819D01*
X147787857Y-77754819D02*
X147692619Y-77754819D01*
X147692619Y-77754819D02*
X147549762Y-77707200D01*
X147549762Y-77707200D02*
X147454524Y-77611961D01*
X147454524Y-77611961D02*
X147406905Y-77516723D01*
X147406905Y-77516723D02*
X147359286Y-77326247D01*
X147359286Y-77326247D02*
X147359286Y-77183390D01*
X147359286Y-77183390D02*
X147406905Y-76992914D01*
X147406905Y-76992914D02*
X147454524Y-76897676D01*
X147454524Y-76897676D02*
X147549762Y-76802438D01*
X147549762Y-76802438D02*
X147692619Y-76754819D01*
X147692619Y-76754819D02*
X147787857Y-76754819D01*
X147787857Y-76754819D02*
X147930714Y-76802438D01*
X147930714Y-76802438D02*
X147978333Y-76850057D01*
X148930714Y-77754819D02*
X148359286Y-77754819D01*
X148645000Y-77754819D02*
X148645000Y-76754819D01*
X148645000Y-76754819D02*
X148549762Y-76897676D01*
X148549762Y-76897676D02*
X148454524Y-76992914D01*
X148454524Y-76992914D02*
X148359286Y-77040533D01*
X151252380Y-70498276D02*
X151252380Y-71016371D01*
X151252380Y-71016371D02*
X151282857Y-71077323D01*
X151282857Y-71077323D02*
X151313333Y-71107800D01*
X151313333Y-71107800D02*
X151374285Y-71138276D01*
X151374285Y-71138276D02*
X151496190Y-71138276D01*
X151496190Y-71138276D02*
X151557142Y-71107800D01*
X151557142Y-71107800D02*
X151587619Y-71077323D01*
X151587619Y-71077323D02*
X151618095Y-71016371D01*
X151618095Y-71016371D02*
X151618095Y-70498276D01*
X152258095Y-71138276D02*
X151892380Y-71138276D01*
X152075237Y-71138276D02*
X152075237Y-70498276D01*
X152075237Y-70498276D02*
X152014285Y-70589704D01*
X152014285Y-70589704D02*
X151953333Y-70650657D01*
X151953333Y-70650657D02*
X151892380Y-70681133D01*
D13*
X149666667Y-94804318D02*
X149666667Y-95711461D01*
X149666667Y-95711461D02*
X149606190Y-95892889D01*
X149606190Y-95892889D02*
X149485238Y-96013842D01*
X149485238Y-96013842D02*
X149303809Y-96074318D01*
X149303809Y-96074318D02*
X149182857Y-96074318D01*
X150936667Y-96074318D02*
X150210952Y-96074318D01*
X150573809Y-96074318D02*
X150573809Y-94804318D01*
X150573809Y-94804318D02*
X150452857Y-94985746D01*
X150452857Y-94985746D02*
X150331905Y-95106699D01*
X150331905Y-95106699D02*
X150210952Y-95167175D01*
D12*
X137956666Y-114081009D02*
X137623333Y-114081009D01*
X137623333Y-114604819D02*
X137623333Y-113604819D01*
X137623333Y-113604819D02*
X138099523Y-113604819D01*
X138480476Y-114604819D02*
X138480476Y-113604819D01*
X138480476Y-113604819D02*
X138718571Y-113604819D01*
X138718571Y-113604819D02*
X138861428Y-113652438D01*
X138861428Y-113652438D02*
X138956666Y-113747676D01*
X138956666Y-113747676D02*
X139004285Y-113842914D01*
X139004285Y-113842914D02*
X139051904Y-114033390D01*
X139051904Y-114033390D02*
X139051904Y-114176247D01*
X139051904Y-114176247D02*
X139004285Y-114366723D01*
X139004285Y-114366723D02*
X138956666Y-114461961D01*
X138956666Y-114461961D02*
X138861428Y-114557200D01*
X138861428Y-114557200D02*
X138718571Y-114604819D01*
X138718571Y-114604819D02*
X138480476Y-114604819D01*
X140004285Y-114604819D02*
X139432857Y-114604819D01*
X139718571Y-114604819D02*
X139718571Y-113604819D01*
X139718571Y-113604819D02*
X139623333Y-113747676D01*
X139623333Y-113747676D02*
X139528095Y-113842914D01*
X139528095Y-113842914D02*
X139432857Y-113890533D01*
X151673333Y-103364252D02*
X151340000Y-102888061D01*
X151101905Y-103364252D02*
X151101905Y-102364252D01*
X151101905Y-102364252D02*
X151482857Y-102364252D01*
X151482857Y-102364252D02*
X151578095Y-102411871D01*
X151578095Y-102411871D02*
X151625714Y-102459490D01*
X151625714Y-102459490D02*
X151673333Y-102554728D01*
X151673333Y-102554728D02*
X151673333Y-102697585D01*
X151673333Y-102697585D02*
X151625714Y-102792823D01*
X151625714Y-102792823D02*
X151578095Y-102840442D01*
X151578095Y-102840442D02*
X151482857Y-102888061D01*
X151482857Y-102888061D02*
X151101905Y-102888061D01*
X152054286Y-102459490D02*
X152101905Y-102411871D01*
X152101905Y-102411871D02*
X152197143Y-102364252D01*
X152197143Y-102364252D02*
X152435238Y-102364252D01*
X152435238Y-102364252D02*
X152530476Y-102411871D01*
X152530476Y-102411871D02*
X152578095Y-102459490D01*
X152578095Y-102459490D02*
X152625714Y-102554728D01*
X152625714Y-102554728D02*
X152625714Y-102649966D01*
X152625714Y-102649966D02*
X152578095Y-102792823D01*
X152578095Y-102792823D02*
X152006667Y-103364252D01*
X152006667Y-103364252D02*
X152625714Y-103364252D01*
X161506666Y-113681009D02*
X161173333Y-113681009D01*
X161173333Y-114204819D02*
X161173333Y-113204819D01*
X161173333Y-113204819D02*
X161649523Y-113204819D01*
X162030476Y-114204819D02*
X162030476Y-113204819D01*
X162030476Y-113204819D02*
X162268571Y-113204819D01*
X162268571Y-113204819D02*
X162411428Y-113252438D01*
X162411428Y-113252438D02*
X162506666Y-113347676D01*
X162506666Y-113347676D02*
X162554285Y-113442914D01*
X162554285Y-113442914D02*
X162601904Y-113633390D01*
X162601904Y-113633390D02*
X162601904Y-113776247D01*
X162601904Y-113776247D02*
X162554285Y-113966723D01*
X162554285Y-113966723D02*
X162506666Y-114061961D01*
X162506666Y-114061961D02*
X162411428Y-114157200D01*
X162411428Y-114157200D02*
X162268571Y-114204819D01*
X162268571Y-114204819D02*
X162030476Y-114204819D01*
X162982857Y-113300057D02*
X163030476Y-113252438D01*
X163030476Y-113252438D02*
X163125714Y-113204819D01*
X163125714Y-113204819D02*
X163363809Y-113204819D01*
X163363809Y-113204819D02*
X163459047Y-113252438D01*
X163459047Y-113252438D02*
X163506666Y-113300057D01*
X163506666Y-113300057D02*
X163554285Y-113395295D01*
X163554285Y-113395295D02*
X163554285Y-113490533D01*
X163554285Y-113490533D02*
X163506666Y-113633390D01*
X163506666Y-113633390D02*
X162935238Y-114204819D01*
X162935238Y-114204819D02*
X163554285Y-114204819D01*
X156423333Y-75954819D02*
X156090000Y-75478628D01*
X155851905Y-75954819D02*
X155851905Y-74954819D01*
X155851905Y-74954819D02*
X156232857Y-74954819D01*
X156232857Y-74954819D02*
X156328095Y-75002438D01*
X156328095Y-75002438D02*
X156375714Y-75050057D01*
X156375714Y-75050057D02*
X156423333Y-75145295D01*
X156423333Y-75145295D02*
X156423333Y-75288152D01*
X156423333Y-75288152D02*
X156375714Y-75383390D01*
X156375714Y-75383390D02*
X156328095Y-75431009D01*
X156328095Y-75431009D02*
X156232857Y-75478628D01*
X156232857Y-75478628D02*
X155851905Y-75478628D01*
X157328095Y-74954819D02*
X156851905Y-74954819D01*
X156851905Y-74954819D02*
X156804286Y-75431009D01*
X156804286Y-75431009D02*
X156851905Y-75383390D01*
X156851905Y-75383390D02*
X156947143Y-75335771D01*
X156947143Y-75335771D02*
X157185238Y-75335771D01*
X157185238Y-75335771D02*
X157280476Y-75383390D01*
X157280476Y-75383390D02*
X157328095Y-75431009D01*
X157328095Y-75431009D02*
X157375714Y-75526247D01*
X157375714Y-75526247D02*
X157375714Y-75764342D01*
X157375714Y-75764342D02*
X157328095Y-75859580D01*
X157328095Y-75859580D02*
X157280476Y-75907200D01*
X157280476Y-75907200D02*
X157185238Y-75954819D01*
X157185238Y-75954819D02*
X156947143Y-75954819D01*
X156947143Y-75954819D02*
X156851905Y-75907200D01*
X156851905Y-75907200D02*
X156804286Y-75859580D01*
D14*
%TO.C,U1*%
X147401500Y-71600000D02*
X147401500Y-72311500D01*
X147401500Y-75400000D02*
X147401500Y-74688500D01*
X152778500Y-71600000D02*
X152778500Y-72311500D01*
X152778500Y-75400000D02*
X152778500Y-74688500D01*
D10*
X147890000Y-71100000D02*
G75*
G02*
X147790000Y-71100000I-50000J0D01*
G01*
X147790000Y-71100000D02*
G75*
G02*
X147890000Y-71100000I50000J0D01*
G01*
%TO.C,J1*%
X143840000Y-97850000D02*
X143840000Y-97000000D01*
X146090000Y-97850000D02*
X143840000Y-97850000D01*
X154590000Y-97850000D02*
X156340000Y-97850000D01*
X156340000Y-97850000D02*
X156340000Y-97000000D01*
%TD*%
D15*
X146840000Y-84750000D02*
X153340000Y-84750000D01*
X146840000Y-80250000D02*
X153340000Y-80250000D01*
X146840000Y-84750000D02*
G75*
G02*
X146840000Y-80250000I0J2250000D01*
G01*
X153340000Y-80250000D02*
G75*
G02*
X153340000Y-84750000I0J-2250000D01*
G01*
X135090000Y-68500000D02*
X165090000Y-68500000D01*
X165090000Y-122500000D01*
X135090000Y-122500000D01*
X135090000Y-68500000D01*
X139690000Y-119500000D02*
G75*
G02*
X136490000Y-119500000I-1600000J0D01*
G01*
X136490000Y-119500000D02*
G75*
G02*
X139690000Y-119500000I1600000J0D01*
G01*
X163690000Y-71500000D02*
G75*
G02*
X160490000Y-71500000I-1600000J0D01*
G01*
X160490000Y-71500000D02*
G75*
G02*
X163690000Y-71500000I1600000J0D01*
G01*
X139690000Y-71500000D02*
G75*
G02*
X136490000Y-71500000I-1600000J0D01*
G01*
X136490000Y-71500000D02*
G75*
G02*
X139690000Y-71500000I1600000J0D01*
G01*
X163690000Y-119500000D02*
G75*
G02*
X160490000Y-119500000I-1600000J0D01*
G01*
X160490000Y-119500000D02*
G75*
G02*
X163690000Y-119500000I1600000J0D01*
G01*
M02*
