%TF.GenerationSoftware,KiCad,Pcbnew,8.0.4*%
%TF.CreationDate,2024-11-15T13:14:51-06:00*%
%TF.ProjectId,BM_DepthIMU_v2,424d5f44-6570-4746-9849-4d555f76322e,rev?*%
%TF.SameCoordinates,Original*%
%TF.FileFunction,Soldermask,Top*%
%TF.FilePolarity,Negative*%
%FSLAX46Y46*%
G04 Gerber Fmt 4.6, Leading zero omitted, Abs format (unit mm)*
G04 Created by KiCad (PCBNEW 8.0.4) date 2024-11-15 13:14:51*
%MOMM*%
%LPD*%
G01*
G04 APERTURE LIST*
G04 Aperture macros list*
%AMRoundRect*
0 Rectangle with rounded corners*
0 $1 Rounding radius*
0 $2 $3 $4 $5 $6 $7 $8 $9 X,Y pos of 4 corners*
0 Add a 4 corners polygon primitive as box body*
4,1,4,$2,$3,$4,$5,$6,$7,$8,$9,$2,$3,0*
0 Add four circle primitives for the rounded corners*
1,1,$1+$1,$2,$3*
1,1,$1+$1,$4,$5*
1,1,$1+$1,$6,$7*
1,1,$1+$1,$8,$9*
0 Add four rect primitives between the rounded corners*
20,1,$1+$1,$2,$3,$4,$5,0*
20,1,$1+$1,$4,$5,$6,$7,0*
20,1,$1+$1,$6,$7,$8,$9,0*
20,1,$1+$1,$8,$9,$2,$3,0*%
G04 Aperture macros list end*
%ADD10RoundRect,0.100000X0.130000X0.100000X-0.130000X0.100000X-0.130000X-0.100000X0.130000X-0.100000X0*%
%ADD11C,1.000000*%
%ADD12RoundRect,0.100000X-0.130000X-0.100000X0.130000X-0.100000X0.130000X0.100000X-0.130000X0.100000X0*%
%ADD13RoundRect,0.100000X0.100000X-0.130000X0.100000X0.130000X-0.100000X0.130000X-0.100000X-0.130000X0*%
%ADD14RoundRect,0.102000X-0.125000X-0.337500X0.125000X-0.337500X0.125000X0.337500X-0.125000X0.337500X0*%
%ADD15RoundRect,0.102000X-0.287500X-0.125000X0.287500X-0.125000X0.287500X0.125000X-0.287500X0.125000X0*%
%ADD16C,0.650000*%
%ADD17R,0.250000X1.150000*%
%ADD18R,1.400000X2.100000*%
%ADD19C,1.500000*%
%TA.AperFunction,Profile*%
%ADD20C,0.050000*%
%TD*%
G04 APERTURE END LIST*
D10*
%TO.C,C3*%
X150065000Y-112000000D03*
X149425000Y-112000000D03*
%TD*%
D11*
%TO.C,FD3*%
X162590000Y-75000000D03*
%TD*%
D10*
%TO.C,R4*%
X154910000Y-73937500D03*
X154270000Y-73937500D03*
%TD*%
D12*
%TO.C,R3*%
X148950000Y-101850000D03*
X149590000Y-101850000D03*
%TD*%
%TO.C,R1*%
X145165073Y-74324490D03*
X145805073Y-74324490D03*
%TD*%
D13*
%TO.C,C2*%
X145166532Y-73248579D03*
X145166532Y-72608579D03*
%TD*%
D10*
%TO.C,C1*%
X148465000Y-76250000D03*
X147825000Y-76250000D03*
%TD*%
D14*
%TO.C,U1*%
X147840000Y-71937500D03*
D15*
X147777500Y-72750000D03*
X147777500Y-73250000D03*
X147777500Y-73750000D03*
X147777500Y-74250000D03*
D14*
X147840000Y-75062500D03*
X148340000Y-75062500D03*
X148840000Y-75062500D03*
X149340000Y-75062500D03*
X149840000Y-75062500D03*
X150340000Y-75062500D03*
X150840000Y-75062500D03*
X151340000Y-75062500D03*
X151840000Y-75062500D03*
X152340000Y-75062500D03*
D15*
X152402500Y-74250000D03*
X152402500Y-73750000D03*
X152402500Y-73250000D03*
X152402500Y-72750000D03*
D14*
X152340000Y-71937500D03*
X151840000Y-71937500D03*
X151340000Y-71937500D03*
X150840000Y-71937500D03*
X150340000Y-71937500D03*
X149840000Y-71937500D03*
X149340000Y-71937500D03*
X148840000Y-71937500D03*
X148340000Y-71937500D03*
%TD*%
D16*
%TO.C,J1*%
X154840000Y-93600000D03*
X145340000Y-93600000D03*
D17*
X153590000Y-92925000D03*
X153590000Y-98075000D03*
X153090000Y-92925000D03*
X153090000Y-98075000D03*
X152590000Y-92925000D03*
X152590000Y-98075000D03*
X152090000Y-92925000D03*
X152090000Y-98075000D03*
X151590000Y-92925000D03*
X151590000Y-98075000D03*
X151090000Y-92925000D03*
X151090000Y-98075000D03*
X150590000Y-92925000D03*
X150590000Y-98075000D03*
X150090000Y-92925000D03*
X150090000Y-98075000D03*
X149590000Y-92925000D03*
X149590000Y-98075000D03*
X149090000Y-92925000D03*
X149090000Y-98075000D03*
X148590000Y-92925000D03*
X148590000Y-98075000D03*
X148090000Y-92925000D03*
X148090000Y-98075000D03*
X147590000Y-92925000D03*
X147590000Y-98075000D03*
X147090000Y-92925000D03*
X147090000Y-98075000D03*
X146590000Y-92925000D03*
X146590000Y-98075000D03*
D18*
X155840000Y-95500000D03*
X144340000Y-95500000D03*
%TD*%
D11*
%TO.C,FD1*%
X137590000Y-115500000D03*
%TD*%
D10*
%TO.C,R2*%
X151210000Y-101850000D03*
X150570000Y-101850000D03*
%TD*%
D11*
%TO.C,FD2*%
X162590000Y-115500000D03*
%TD*%
D12*
%TO.C,R5*%
X154270000Y-75000000D03*
X154910000Y-75000000D03*
%TD*%
D19*
%TO.C,U2*%
X152630000Y-114500000D03*
X151885000Y-116295000D03*
X150090000Y-117040000D03*
X148295000Y-116295000D03*
X147550000Y-114500000D03*
%TD*%
D20*
X146840000Y-84750000D02*
X153340000Y-84750000D01*
X146840000Y-80250000D02*
X153340000Y-80250000D01*
X146840000Y-84750000D02*
G75*
G02*
X146840000Y-80250000I0J2250000D01*
G01*
X153340000Y-80250000D02*
G75*
G02*
X153340000Y-84750000I0J-2250000D01*
G01*
X135090000Y-68500000D02*
X165090000Y-68500000D01*
X165090000Y-122500000D01*
X135090000Y-122500000D01*
X135090000Y-68500000D01*
X139690000Y-119500000D02*
G75*
G02*
X136490000Y-119500000I-1600000J0D01*
G01*
X136490000Y-119500000D02*
G75*
G02*
X139690000Y-119500000I1600000J0D01*
G01*
X163690000Y-71500000D02*
G75*
G02*
X160490000Y-71500000I-1600000J0D01*
G01*
X160490000Y-71500000D02*
G75*
G02*
X163690000Y-71500000I1600000J0D01*
G01*
X139690000Y-71500000D02*
G75*
G02*
X136490000Y-71500000I-1600000J0D01*
G01*
X136490000Y-71500000D02*
G75*
G02*
X139690000Y-71500000I1600000J0D01*
G01*
X163690000Y-119500000D02*
G75*
G02*
X160490000Y-119500000I-1600000J0D01*
G01*
X160490000Y-119500000D02*
G75*
G02*
X163690000Y-119500000I1600000J0D01*
G01*
M02*
