%TF.GenerationSoftware,KiCad,Pcbnew,8.0.4*%
%TF.CreationDate,2024-11-15T13:14:51-06:00*%
%TF.ProjectId,BM_DepthIMU_v2,424d5f44-6570-4746-9849-4d555f76322e,rev?*%
%TF.SameCoordinates,Original*%
%TF.FileFunction,Legend,Bot*%
%TF.FilePolarity,Positive*%
%FSLAX46Y46*%
G04 Gerber Fmt 4.6, Leading zero omitted, Abs format (unit mm)*
G04 Created by KiCad (PCBNEW 8.0.4) date 2024-11-15 13:14:51*
%MOMM*%
%LPD*%
G01*
G04 APERTURE LIST*
%ADD10C,0.100000*%
%ADD11C,0.150000*%
%TA.AperFunction,Profile*%
%ADD12C,0.050000*%
%TD*%
G04 APERTURE END LIST*
D10*
G36*
X158159295Y-70583105D02*
G01*
X158168820Y-70630000D01*
X158216717Y-70642639D01*
X158246489Y-70645631D01*
X158297303Y-70642006D01*
X158341988Y-70636350D01*
X158392292Y-70631395D01*
X158431870Y-70630000D01*
X158484077Y-70630000D01*
X158537383Y-70630000D01*
X158573531Y-70630000D01*
X158563761Y-70583105D01*
X158513650Y-70575409D01*
X158466975Y-70558289D01*
X158462889Y-70555750D01*
X158430331Y-70517673D01*
X158424054Y-70504947D01*
X158406079Y-70452626D01*
X158390328Y-70398820D01*
X158376701Y-70349883D01*
X158361095Y-70292193D01*
X158350781Y-70253377D01*
X158263098Y-69896538D01*
X158258213Y-69879685D01*
X158307764Y-69879685D01*
X158319274Y-69879685D01*
X158372338Y-69880948D01*
X158426857Y-69885481D01*
X158480382Y-69894523D01*
X158521018Y-69906064D01*
X158567846Y-69927027D01*
X158608925Y-69956348D01*
X158632882Y-69982756D01*
X158658427Y-70028110D01*
X158669667Y-70076549D01*
X158670251Y-70090956D01*
X158662679Y-70128569D01*
X158632637Y-70166915D01*
X158609213Y-70210570D01*
X158609190Y-70211856D01*
X158622868Y-70242386D01*
X158655840Y-70254842D01*
X158700219Y-70231014D01*
X158702491Y-70227732D01*
X158722091Y-70182241D01*
X158728523Y-70133522D01*
X158728625Y-70125882D01*
X158723568Y-70074610D01*
X158708398Y-70024293D01*
X158686099Y-69979822D01*
X158676845Y-69965170D01*
X158644529Y-69924008D01*
X158606108Y-69888449D01*
X158561582Y-69858492D01*
X158534207Y-69844270D01*
X158486443Y-69825570D01*
X158433763Y-69812213D01*
X158383635Y-69804909D01*
X158329745Y-69801695D01*
X158313656Y-69801528D01*
X158262486Y-69803375D01*
X158207697Y-69807634D01*
X158157042Y-69812656D01*
X158116552Y-69817159D01*
X158066713Y-69824716D01*
X158017080Y-69830593D01*
X157977090Y-69832791D01*
X157928067Y-69825725D01*
X157916029Y-69819113D01*
X157898199Y-69782965D01*
X157900397Y-69764647D01*
X157902351Y-69748527D01*
X157890139Y-69719462D01*
X157860341Y-69707739D01*
X157826392Y-69721905D01*
X157812958Y-69760006D01*
X157828675Y-69808117D01*
X157865220Y-69842044D01*
X157868646Y-69844270D01*
X157915762Y-69864433D01*
X157967450Y-69874705D01*
X158023320Y-69879132D01*
X158054759Y-69879685D01*
X158106117Y-69879685D01*
X158154410Y-69879685D01*
X158167315Y-69929070D01*
X158179508Y-69976693D01*
X158193207Y-70030510D01*
X158197641Y-70047969D01*
X158257480Y-70286838D01*
X158293872Y-70432407D01*
X158331730Y-70598736D01*
X158282714Y-70598736D01*
X158255526Y-70598736D01*
X158205376Y-70594325D01*
X158159295Y-70583105D01*
G37*
G36*
X157296873Y-70708157D02*
G01*
X157283196Y-70259972D01*
X157280737Y-70204736D01*
X157277025Y-70150772D01*
X157272059Y-70098079D01*
X157265839Y-70046656D01*
X157258366Y-69996504D01*
X157255596Y-69980069D01*
X157285420Y-70019564D01*
X157313470Y-70060421D01*
X157341161Y-70103194D01*
X157355980Y-70126859D01*
X157390116Y-70181496D01*
X157424745Y-70235498D01*
X157459868Y-70288864D01*
X157495485Y-70341594D01*
X157531595Y-70393690D01*
X157568199Y-70445150D01*
X157605297Y-70495974D01*
X157642889Y-70546163D01*
X157680974Y-70595717D01*
X157719554Y-70644635D01*
X157745547Y-70676894D01*
X157753602Y-70622626D01*
X157759982Y-70570236D01*
X157764965Y-70521189D01*
X157769386Y-70469150D01*
X157769972Y-70461472D01*
X157773588Y-70408970D01*
X157776316Y-70359391D01*
X157778346Y-70306306D01*
X157779217Y-70257038D01*
X157779253Y-70245317D01*
X157778084Y-70190376D01*
X157774578Y-70140531D01*
X157767709Y-70089805D01*
X157756331Y-70040694D01*
X157754829Y-70035757D01*
X157735294Y-69985300D01*
X157710412Y-69937402D01*
X157682488Y-69892847D01*
X157662260Y-69864054D01*
X157716240Y-69872918D01*
X157765123Y-69886901D01*
X157814750Y-69909150D01*
X157857722Y-69938085D01*
X157867424Y-69946364D01*
X157904143Y-69984710D01*
X157930848Y-70027996D01*
X157943087Y-70076437D01*
X157943384Y-70085338D01*
X157931549Y-70133508D01*
X157928974Y-70138583D01*
X157911632Y-70182058D01*
X157923112Y-70211856D01*
X157950956Y-70223579D01*
X157986615Y-70203551D01*
X158004017Y-70155833D01*
X158005177Y-70136140D01*
X157999252Y-70084696D01*
X157983264Y-70036422D01*
X157969274Y-70007913D01*
X157941623Y-69965653D01*
X157908372Y-69928877D01*
X157873286Y-69900202D01*
X157830213Y-69873726D01*
X157783272Y-69852734D01*
X157737243Y-69838408D01*
X157685530Y-69828630D01*
X157637101Y-69821933D01*
X157596559Y-69817159D01*
X157546413Y-69817159D01*
X157529881Y-69817159D01*
X157564800Y-69868759D01*
X157595063Y-69920489D01*
X157620671Y-69972349D01*
X157641622Y-70024338D01*
X157657918Y-70076457D01*
X157669557Y-70128706D01*
X157676541Y-70181085D01*
X157678869Y-70233593D01*
X157678058Y-70284778D01*
X157676304Y-70340083D01*
X157674020Y-70398278D01*
X157671566Y-70454382D01*
X157669242Y-70504246D01*
X157668611Y-70517404D01*
X157636918Y-70476930D01*
X157607725Y-70437665D01*
X157595094Y-70419951D01*
X157567822Y-70379124D01*
X157538269Y-70333817D01*
X157510133Y-70290340D01*
X157482778Y-70247891D01*
X157476880Y-70238722D01*
X157448712Y-70194684D01*
X157421908Y-70153154D01*
X157388294Y-70101679D01*
X157357108Y-70054663D01*
X157328348Y-70012103D01*
X157295812Y-69965172D01*
X157267068Y-69925206D01*
X157246803Y-69898248D01*
X157212013Y-69859393D01*
X157174504Y-69822208D01*
X157134275Y-69786693D01*
X157125903Y-69779790D01*
X157137688Y-69828937D01*
X157148314Y-69881949D01*
X157157781Y-69938824D01*
X157166089Y-69999563D01*
X157173237Y-70064166D01*
X157179226Y-70132633D01*
X157184056Y-70204964D01*
X157186632Y-70255332D01*
X157188693Y-70307417D01*
X157190239Y-70361219D01*
X157191269Y-70416738D01*
X157191784Y-70473975D01*
X157191849Y-70503237D01*
X157019413Y-70309064D01*
X156988984Y-70269098D01*
X156958392Y-70226351D01*
X156927635Y-70180822D01*
X156901143Y-70139583D01*
X156878974Y-70103656D01*
X156854021Y-70061350D01*
X156829207Y-70016181D01*
X156806515Y-69970084D01*
X156786651Y-69920749D01*
X156785184Y-69916322D01*
X156773532Y-69866760D01*
X156770774Y-69830348D01*
X156777060Y-69781404D01*
X156788604Y-69746329D01*
X156799595Y-69705540D01*
X156786161Y-69673789D01*
X156752212Y-69660844D01*
X156710935Y-69684535D01*
X156692581Y-69730226D01*
X156688953Y-69770020D01*
X156693628Y-69818654D01*
X156705829Y-69869889D01*
X156723033Y-69921367D01*
X156736824Y-69956378D01*
X156758780Y-70003361D01*
X156783335Y-70048247D01*
X156813578Y-70098344D01*
X156841868Y-70142174D01*
X156873799Y-70189340D01*
X156909370Y-70239841D01*
X156938438Y-70279905D01*
X156948583Y-70293677D01*
X156987585Y-70345421D01*
X157025273Y-70394499D01*
X157061648Y-70440910D01*
X157096709Y-70484656D01*
X157130456Y-70525735D01*
X157162889Y-70564148D01*
X157204090Y-70611219D01*
X157242955Y-70653549D01*
X157279484Y-70691139D01*
X157296873Y-70708157D01*
G37*
G36*
X156842093Y-70630000D02*
G01*
X156834033Y-70583105D01*
X156783193Y-70572379D01*
X156737313Y-70554528D01*
X156703424Y-70516198D01*
X156693349Y-70497131D01*
X156675135Y-70448884D01*
X156659787Y-70398480D01*
X156646299Y-70349660D01*
X156640104Y-70326161D01*
X156626410Y-70270694D01*
X156613109Y-70220307D01*
X156597667Y-70166549D01*
X156580368Y-70113077D01*
X156561542Y-70064160D01*
X156559260Y-70058960D01*
X156537424Y-70015122D01*
X156509539Y-69969621D01*
X156479060Y-69930198D01*
X156441050Y-69892585D01*
X156420774Y-69876755D01*
X156379268Y-69850682D01*
X156332318Y-69830254D01*
X156279835Y-69818614D01*
X156253468Y-69817159D01*
X156203520Y-69824059D01*
X156162121Y-69844759D01*
X156129383Y-69881930D01*
X156124996Y-69902156D01*
X156136475Y-69930488D01*
X156163586Y-69942212D01*
X156208194Y-69918742D01*
X156213656Y-69913635D01*
X156252067Y-69881584D01*
X156264947Y-69873579D01*
X156300118Y-69864054D01*
X156339441Y-69875045D01*
X156378115Y-69908681D01*
X156396838Y-69932442D01*
X156424020Y-69977054D01*
X156446033Y-70023127D01*
X156460341Y-70057494D01*
X156476336Y-70103842D01*
X156491482Y-70154256D01*
X156506503Y-70208509D01*
X156514563Y-70238967D01*
X156527004Y-70287052D01*
X156541483Y-70341234D01*
X156554768Y-70388833D01*
X156569136Y-70437261D01*
X156585623Y-70487087D01*
X156592721Y-70505680D01*
X156615566Y-70550765D01*
X156639616Y-70583105D01*
X156587535Y-70569999D01*
X156537055Y-70560468D01*
X156486743Y-70556020D01*
X156483056Y-70555994D01*
X156433518Y-70558391D01*
X156415645Y-70560635D01*
X156366220Y-70569831D01*
X156317127Y-70580684D01*
X156307690Y-70582861D01*
X156257133Y-70593713D01*
X156214389Y-70598736D01*
X156170181Y-70581884D01*
X156151863Y-70543293D01*
X156161388Y-70505191D01*
X156170425Y-70468555D01*
X156159434Y-70438025D01*
X156130614Y-70426789D01*
X156095443Y-70445352D01*
X156081089Y-70492178D01*
X156081032Y-70496154D01*
X156090522Y-70546357D01*
X156118993Y-70590108D01*
X156130614Y-70601423D01*
X156172562Y-70628362D01*
X156219705Y-70642134D01*
X156264459Y-70645631D01*
X156315659Y-70644597D01*
X156368072Y-70642193D01*
X156372170Y-70641967D01*
X156425449Y-70639162D01*
X156485275Y-70636182D01*
X156537577Y-70633786D01*
X156590405Y-70631682D01*
X156643985Y-70630186D01*
X156663551Y-70630000D01*
X156712537Y-70630000D01*
X156764180Y-70630000D01*
X156817255Y-70630000D01*
X156842093Y-70630000D01*
G37*
D11*
X163173333Y-113681009D02*
X163506666Y-113681009D01*
X163506666Y-114204819D02*
X163506666Y-113204819D01*
X163506666Y-113204819D02*
X163030476Y-113204819D01*
X162649523Y-114204819D02*
X162649523Y-113204819D01*
X162649523Y-113204819D02*
X162411428Y-113204819D01*
X162411428Y-113204819D02*
X162268571Y-113252438D01*
X162268571Y-113252438D02*
X162173333Y-113347676D01*
X162173333Y-113347676D02*
X162125714Y-113442914D01*
X162125714Y-113442914D02*
X162078095Y-113633390D01*
X162078095Y-113633390D02*
X162078095Y-113776247D01*
X162078095Y-113776247D02*
X162125714Y-113966723D01*
X162125714Y-113966723D02*
X162173333Y-114061961D01*
X162173333Y-114061961D02*
X162268571Y-114157200D01*
X162268571Y-114157200D02*
X162411428Y-114204819D01*
X162411428Y-114204819D02*
X162649523Y-114204819D01*
X161173333Y-113204819D02*
X161649523Y-113204819D01*
X161649523Y-113204819D02*
X161697142Y-113681009D01*
X161697142Y-113681009D02*
X161649523Y-113633390D01*
X161649523Y-113633390D02*
X161554285Y-113585771D01*
X161554285Y-113585771D02*
X161316190Y-113585771D01*
X161316190Y-113585771D02*
X161220952Y-113633390D01*
X161220952Y-113633390D02*
X161173333Y-113681009D01*
X161173333Y-113681009D02*
X161125714Y-113776247D01*
X161125714Y-113776247D02*
X161125714Y-114014342D01*
X161125714Y-114014342D02*
X161173333Y-114109580D01*
X161173333Y-114109580D02*
X161220952Y-114157200D01*
X161220952Y-114157200D02*
X161316190Y-114204819D01*
X161316190Y-114204819D02*
X161554285Y-114204819D01*
X161554285Y-114204819D02*
X161649523Y-114157200D01*
X161649523Y-114157200D02*
X161697142Y-114109580D01*
X163073333Y-76481009D02*
X163406666Y-76481009D01*
X163406666Y-77004819D02*
X163406666Y-76004819D01*
X163406666Y-76004819D02*
X162930476Y-76004819D01*
X162549523Y-77004819D02*
X162549523Y-76004819D01*
X162549523Y-76004819D02*
X162311428Y-76004819D01*
X162311428Y-76004819D02*
X162168571Y-76052438D01*
X162168571Y-76052438D02*
X162073333Y-76147676D01*
X162073333Y-76147676D02*
X162025714Y-76242914D01*
X162025714Y-76242914D02*
X161978095Y-76433390D01*
X161978095Y-76433390D02*
X161978095Y-76576247D01*
X161978095Y-76576247D02*
X162025714Y-76766723D01*
X162025714Y-76766723D02*
X162073333Y-76861961D01*
X162073333Y-76861961D02*
X162168571Y-76957200D01*
X162168571Y-76957200D02*
X162311428Y-77004819D01*
X162311428Y-77004819D02*
X162549523Y-77004819D01*
X161120952Y-76004819D02*
X161311428Y-76004819D01*
X161311428Y-76004819D02*
X161406666Y-76052438D01*
X161406666Y-76052438D02*
X161454285Y-76100057D01*
X161454285Y-76100057D02*
X161549523Y-76242914D01*
X161549523Y-76242914D02*
X161597142Y-76433390D01*
X161597142Y-76433390D02*
X161597142Y-76814342D01*
X161597142Y-76814342D02*
X161549523Y-76909580D01*
X161549523Y-76909580D02*
X161501904Y-76957200D01*
X161501904Y-76957200D02*
X161406666Y-77004819D01*
X161406666Y-77004819D02*
X161216190Y-77004819D01*
X161216190Y-77004819D02*
X161120952Y-76957200D01*
X161120952Y-76957200D02*
X161073333Y-76909580D01*
X161073333Y-76909580D02*
X161025714Y-76814342D01*
X161025714Y-76814342D02*
X161025714Y-76576247D01*
X161025714Y-76576247D02*
X161073333Y-76481009D01*
X161073333Y-76481009D02*
X161120952Y-76433390D01*
X161120952Y-76433390D02*
X161216190Y-76385771D01*
X161216190Y-76385771D02*
X161406666Y-76385771D01*
X161406666Y-76385771D02*
X161501904Y-76433390D01*
X161501904Y-76433390D02*
X161549523Y-76481009D01*
X161549523Y-76481009D02*
X161597142Y-76576247D01*
X139723333Y-114081009D02*
X140056666Y-114081009D01*
X140056666Y-114604819D02*
X140056666Y-113604819D01*
X140056666Y-113604819D02*
X139580476Y-113604819D01*
X139199523Y-114604819D02*
X139199523Y-113604819D01*
X139199523Y-113604819D02*
X138961428Y-113604819D01*
X138961428Y-113604819D02*
X138818571Y-113652438D01*
X138818571Y-113652438D02*
X138723333Y-113747676D01*
X138723333Y-113747676D02*
X138675714Y-113842914D01*
X138675714Y-113842914D02*
X138628095Y-114033390D01*
X138628095Y-114033390D02*
X138628095Y-114176247D01*
X138628095Y-114176247D02*
X138675714Y-114366723D01*
X138675714Y-114366723D02*
X138723333Y-114461961D01*
X138723333Y-114461961D02*
X138818571Y-114557200D01*
X138818571Y-114557200D02*
X138961428Y-114604819D01*
X138961428Y-114604819D02*
X139199523Y-114604819D01*
X137770952Y-113938152D02*
X137770952Y-114604819D01*
X138009047Y-113557200D02*
X138247142Y-114271485D01*
X138247142Y-114271485D02*
X137628095Y-114271485D01*
D10*
X150851904Y-107957419D02*
X150851904Y-108766942D01*
X150851904Y-108766942D02*
X150804285Y-108862180D01*
X150804285Y-108862180D02*
X150756666Y-108909800D01*
X150756666Y-108909800D02*
X150661428Y-108957419D01*
X150661428Y-108957419D02*
X150470952Y-108957419D01*
X150470952Y-108957419D02*
X150375714Y-108909800D01*
X150375714Y-108909800D02*
X150328095Y-108862180D01*
X150328095Y-108862180D02*
X150280476Y-108766942D01*
X150280476Y-108766942D02*
X150280476Y-107957419D01*
X149851904Y-108052657D02*
X149804285Y-108005038D01*
X149804285Y-108005038D02*
X149709047Y-107957419D01*
X149709047Y-107957419D02*
X149470952Y-107957419D01*
X149470952Y-107957419D02*
X149375714Y-108005038D01*
X149375714Y-108005038D02*
X149328095Y-108052657D01*
X149328095Y-108052657D02*
X149280476Y-108147895D01*
X149280476Y-108147895D02*
X149280476Y-108243133D01*
X149280476Y-108243133D02*
X149328095Y-108385990D01*
X149328095Y-108385990D02*
X149899523Y-108957419D01*
X149899523Y-108957419D02*
X149280476Y-108957419D01*
%TO.C,U2*%
X157590000Y-114500000D02*
G75*
G02*
X142590000Y-114500000I-7500000J0D01*
G01*
X142590000Y-114500000D02*
G75*
G02*
X157590000Y-114500000I7500000J0D01*
G01*
%TD*%
D12*
X146840000Y-84750000D02*
X153340000Y-84750000D01*
X146840000Y-80250000D02*
X153340000Y-80250000D01*
X146840000Y-84750000D02*
G75*
G02*
X146840000Y-80250000I0J2250000D01*
G01*
X153340000Y-80250000D02*
G75*
G02*
X153340000Y-84750000I0J-2250000D01*
G01*
X135090000Y-68500000D02*
X165090000Y-68500000D01*
X165090000Y-122500000D01*
X135090000Y-122500000D01*
X135090000Y-68500000D01*
X139690000Y-119500000D02*
G75*
G02*
X136490000Y-119500000I-1600000J0D01*
G01*
X136490000Y-119500000D02*
G75*
G02*
X139690000Y-119500000I1600000J0D01*
G01*
X163690000Y-71500000D02*
G75*
G02*
X160490000Y-71500000I-1600000J0D01*
G01*
X160490000Y-71500000D02*
G75*
G02*
X163690000Y-71500000I1600000J0D01*
G01*
X139690000Y-71500000D02*
G75*
G02*
X136490000Y-71500000I-1600000J0D01*
G01*
X136490000Y-71500000D02*
G75*
G02*
X139690000Y-71500000I1600000J0D01*
G01*
X163690000Y-119500000D02*
G75*
G02*
X160490000Y-119500000I-1600000J0D01*
G01*
X160490000Y-119500000D02*
G75*
G02*
X163690000Y-119500000I1600000J0D01*
G01*
M02*
