%TF.GenerationSoftware,KiCad,Pcbnew,8.0.4*%
%TF.CreationDate,2024-11-15T13:14:51-06:00*%
%TF.ProjectId,BM_DepthIMU_v2,424d5f44-6570-4746-9849-4d555f76322e,rev?*%
%TF.SameCoordinates,Original*%
%TF.FileFunction,Copper,L3,Inr*%
%TF.FilePolarity,Positive*%
%FSLAX46Y46*%
G04 Gerber Fmt 4.6, Leading zero omitted, Abs format (unit mm)*
G04 Created by KiCad (PCBNEW 8.0.4) date 2024-11-15 13:14:51*
%MOMM*%
%LPD*%
G01*
G04 APERTURE LIST*
%TA.AperFunction,ComponentPad*%
%ADD10C,1.500000*%
%TD*%
%TA.AperFunction,ViaPad*%
%ADD11C,0.600000*%
%TD*%
%TA.AperFunction,Profile*%
%ADD12C,0.050000*%
%TD*%
G04 APERTURE END LIST*
D10*
%TO.N,EOC*%
%TO.C,U2*%
X152630000Y-114500000D03*
%TO.N,SDA*%
X151885000Y-116295000D03*
%TO.N,+3.3V*%
X150090000Y-117040000D03*
%TO.N,SLC*%
X148295000Y-116295000D03*
%TO.N,GND*%
X147550000Y-114500000D03*
%TD*%
D11*
%TO.N,GND*%
X142590000Y-89750000D03*
X145090000Y-85750000D03*
X148090000Y-86250000D03*
X151340000Y-86250000D03*
X155590000Y-85500000D03*
X156840000Y-82250000D03*
X154840000Y-79250000D03*
X146390000Y-102050000D03*
X153590000Y-95500000D03*
X141540000Y-119500000D03*
X159590000Y-73500000D03*
X159090000Y-95500000D03*
X159590000Y-117000000D03*
X158590000Y-119500000D03*
X152090000Y-94250000D03*
X148840000Y-73500000D03*
X147840000Y-95250000D03*
X159090000Y-88000000D03*
X141090000Y-94500000D03*
X159090000Y-94500000D03*
X146590000Y-72200000D03*
X141090000Y-96500000D03*
X140590000Y-74000000D03*
X151290000Y-73476471D03*
X146340000Y-88250000D03*
X151790000Y-90500000D03*
X159090000Y-96500000D03*
X148990000Y-90500000D03*
X142440000Y-105150000D03*
X149590000Y-70750000D03*
X148590000Y-112000000D03*
X141590000Y-71500000D03*
X148190000Y-90500000D03*
X141090000Y-95500000D03*
X151040000Y-90500000D03*
X159940000Y-105300000D03*
X140590000Y-117000000D03*
X141340000Y-86250000D03*
X158590000Y-71500000D03*
X138090000Y-75000000D03*
X160840000Y-81500000D03*
X150090000Y-72850000D03*
X158340000Y-111250000D03*
X150090000Y-74150000D03*
X141340000Y-82250000D03*
X143090000Y-79000000D03*
X145190000Y-71450000D03*
X155040000Y-76300000D03*
X145640000Y-112300000D03*
X146840000Y-76250000D03*
X154640000Y-101750000D03*
X151590000Y-79000000D03*
%TO.N,+3.3V*%
X155840000Y-74000000D03*
X148789997Y-101050000D03*
X153590000Y-90500000D03*
X148340000Y-70800000D03*
X143905667Y-73289626D03*
X151886321Y-100620210D03*
X152840000Y-90500000D03*
X149340000Y-76750000D03*
%TO.N,SDA*%
X154090000Y-71950000D03*
X150590000Y-100300000D03*
%TO.N,SLC*%
X149590000Y-101050000D03*
X153490000Y-72750000D03*
%TO.N,~{IMU_INT}*%
X151140000Y-96750000D03*
X151840000Y-77000000D03*
%TD*%
%TA.AperFunction,Conductor*%
%TO.N,+3.3V*%
G36*
X163601137Y-69001096D02*
G01*
X163772941Y-69018018D01*
X163796769Y-69022757D01*
X163961001Y-69072576D01*
X163983453Y-69081877D01*
X164134798Y-69162772D01*
X164155010Y-69176277D01*
X164287666Y-69285145D01*
X164304854Y-69302333D01*
X164413722Y-69434989D01*
X164427227Y-69455201D01*
X164508121Y-69606543D01*
X164517424Y-69629001D01*
X164567240Y-69793224D01*
X164571982Y-69817064D01*
X164586663Y-69966123D01*
X164588903Y-69988860D01*
X164589500Y-70001015D01*
X164589500Y-120998983D01*
X164588903Y-121011137D01*
X164571982Y-121182934D01*
X164567240Y-121206775D01*
X164517424Y-121370998D01*
X164508121Y-121393456D01*
X164427227Y-121544798D01*
X164413722Y-121565010D01*
X164304854Y-121697666D01*
X164287666Y-121714854D01*
X164155010Y-121823722D01*
X164134798Y-121837227D01*
X163983456Y-121918121D01*
X163960998Y-121927424D01*
X163796775Y-121977240D01*
X163772935Y-121981982D01*
X163667046Y-121992411D01*
X163601136Y-121998903D01*
X163588984Y-121999500D01*
X136591016Y-121999500D01*
X136578862Y-121998903D01*
X136407065Y-121981982D01*
X136383224Y-121977240D01*
X136219001Y-121927424D01*
X136196543Y-121918121D01*
X136045201Y-121837227D01*
X136024989Y-121823722D01*
X135892333Y-121714854D01*
X135875145Y-121697666D01*
X135766277Y-121565010D01*
X135752772Y-121544798D01*
X135671878Y-121393456D01*
X135662575Y-121370998D01*
X135662080Y-121369365D01*
X135612757Y-121206769D01*
X135608018Y-121182941D01*
X135591097Y-121011137D01*
X135590500Y-120998983D01*
X135590500Y-119500000D01*
X135984592Y-119500000D01*
X136004201Y-119786680D01*
X136062666Y-120068034D01*
X136062667Y-120068037D01*
X136158894Y-120338793D01*
X136158893Y-120338793D01*
X136291098Y-120593935D01*
X136456812Y-120828700D01*
X136541923Y-120919831D01*
X136652947Y-121038708D01*
X136830225Y-121182934D01*
X136875853Y-121220055D01*
X137121382Y-121369365D01*
X137308237Y-121450526D01*
X137384942Y-121483844D01*
X137661642Y-121561371D01*
X137911920Y-121595771D01*
X137946321Y-121600500D01*
X137946322Y-121600500D01*
X138233679Y-121600500D01*
X138264370Y-121596281D01*
X138518358Y-121561371D01*
X138795058Y-121483844D01*
X139003153Y-121393456D01*
X139058617Y-121369365D01*
X139058620Y-121369363D01*
X139058625Y-121369361D01*
X139304147Y-121220055D01*
X139527053Y-121038708D01*
X139723189Y-120828698D01*
X139888901Y-120593936D01*
X140021104Y-120338797D01*
X140117334Y-120068032D01*
X140175798Y-119786686D01*
X140195408Y-119500000D01*
X141034353Y-119500000D01*
X141054834Y-119642456D01*
X141114622Y-119773371D01*
X141114623Y-119773373D01*
X141208872Y-119882143D01*
X141329947Y-119959953D01*
X141329950Y-119959954D01*
X141329949Y-119959954D01*
X141468036Y-120000499D01*
X141468038Y-120000500D01*
X141468039Y-120000500D01*
X141611962Y-120000500D01*
X141611962Y-120000499D01*
X141750053Y-119959953D01*
X141871128Y-119882143D01*
X141965377Y-119773373D01*
X142025165Y-119642457D01*
X142045647Y-119500000D01*
X158084353Y-119500000D01*
X158104834Y-119642456D01*
X158164622Y-119773371D01*
X158164623Y-119773373D01*
X158258872Y-119882143D01*
X158379947Y-119959953D01*
X158379950Y-119959954D01*
X158379949Y-119959954D01*
X158518036Y-120000499D01*
X158518038Y-120000500D01*
X158518039Y-120000500D01*
X158661962Y-120000500D01*
X158661962Y-120000499D01*
X158800053Y-119959953D01*
X158921128Y-119882143D01*
X159015377Y-119773373D01*
X159075165Y-119642457D01*
X159095647Y-119500000D01*
X159984592Y-119500000D01*
X160004201Y-119786680D01*
X160062666Y-120068034D01*
X160062667Y-120068037D01*
X160158894Y-120338793D01*
X160158893Y-120338793D01*
X160291098Y-120593935D01*
X160456812Y-120828700D01*
X160541923Y-120919831D01*
X160652947Y-121038708D01*
X160830225Y-121182934D01*
X160875853Y-121220055D01*
X161121382Y-121369365D01*
X161308237Y-121450526D01*
X161384942Y-121483844D01*
X161661642Y-121561371D01*
X161911920Y-121595771D01*
X161946321Y-121600500D01*
X161946322Y-121600500D01*
X162233679Y-121600500D01*
X162264370Y-121596281D01*
X162518358Y-121561371D01*
X162795058Y-121483844D01*
X163003153Y-121393456D01*
X163058617Y-121369365D01*
X163058620Y-121369363D01*
X163058625Y-121369361D01*
X163304147Y-121220055D01*
X163527053Y-121038708D01*
X163723189Y-120828698D01*
X163888901Y-120593936D01*
X164021104Y-120338797D01*
X164117334Y-120068032D01*
X164175798Y-119786686D01*
X164195408Y-119500000D01*
X164175798Y-119213314D01*
X164117334Y-118931968D01*
X164021105Y-118661206D01*
X164021106Y-118661206D01*
X163888901Y-118406064D01*
X163723187Y-118171299D01*
X163640836Y-118083124D01*
X163527053Y-117961292D01*
X163304147Y-117779945D01*
X163304146Y-117779944D01*
X163058617Y-117630634D01*
X162795063Y-117516158D01*
X162795061Y-117516157D01*
X162795058Y-117516156D01*
X162627340Y-117469164D01*
X162518364Y-117438630D01*
X162518359Y-117438629D01*
X162518358Y-117438629D01*
X162376018Y-117419064D01*
X162233679Y-117399500D01*
X162233678Y-117399500D01*
X161946322Y-117399500D01*
X161946321Y-117399500D01*
X161661642Y-117438629D01*
X161661635Y-117438630D01*
X161453861Y-117496845D01*
X161384942Y-117516156D01*
X161384939Y-117516156D01*
X161384936Y-117516158D01*
X161384935Y-117516158D01*
X161121382Y-117630634D01*
X160875853Y-117779944D01*
X160652950Y-117961289D01*
X160456812Y-118171299D01*
X160291098Y-118406064D01*
X160158894Y-118661206D01*
X160062667Y-118931962D01*
X160062666Y-118931965D01*
X160004201Y-119213319D01*
X159984592Y-119500000D01*
X159095647Y-119500000D01*
X159075165Y-119357543D01*
X159015377Y-119226627D01*
X158921128Y-119117857D01*
X158800053Y-119040047D01*
X158800051Y-119040046D01*
X158800049Y-119040045D01*
X158800050Y-119040045D01*
X158661963Y-118999500D01*
X158661961Y-118999500D01*
X158518039Y-118999500D01*
X158518036Y-118999500D01*
X158379949Y-119040045D01*
X158258873Y-119117856D01*
X158164623Y-119226626D01*
X158164622Y-119226628D01*
X158104834Y-119357543D01*
X158084353Y-119500000D01*
X142045647Y-119500000D01*
X142025165Y-119357543D01*
X141965377Y-119226627D01*
X141871128Y-119117857D01*
X141750053Y-119040047D01*
X141750051Y-119040046D01*
X141750049Y-119040045D01*
X141750050Y-119040045D01*
X141611963Y-118999500D01*
X141611961Y-118999500D01*
X141468039Y-118999500D01*
X141468036Y-118999500D01*
X141329949Y-119040045D01*
X141208873Y-119117856D01*
X141114623Y-119226626D01*
X141114622Y-119226628D01*
X141054834Y-119357543D01*
X141034353Y-119500000D01*
X140195408Y-119500000D01*
X140175798Y-119213314D01*
X140117334Y-118931968D01*
X140021105Y-118661206D01*
X140021106Y-118661206D01*
X139888901Y-118406064D01*
X139723187Y-118171299D01*
X139640836Y-118083124D01*
X149400427Y-118083124D01*
X149462612Y-118126666D01*
X149660840Y-118219101D01*
X149660849Y-118219105D01*
X149872105Y-118275710D01*
X149872115Y-118275712D01*
X150089999Y-118294775D01*
X150090001Y-118294775D01*
X150307884Y-118275712D01*
X150307894Y-118275710D01*
X150519150Y-118219105D01*
X150519164Y-118219100D01*
X150717383Y-118126669D01*
X150717385Y-118126668D01*
X150779571Y-118083124D01*
X150090001Y-117393553D01*
X150090000Y-117393553D01*
X149400427Y-118083124D01*
X139640836Y-118083124D01*
X139527053Y-117961292D01*
X139304147Y-117779945D01*
X139304146Y-117779944D01*
X139058617Y-117630634D01*
X138795063Y-117516158D01*
X138795061Y-117516157D01*
X138795058Y-117516156D01*
X138627340Y-117469164D01*
X138518364Y-117438630D01*
X138518359Y-117438629D01*
X138518358Y-117438629D01*
X138376018Y-117419064D01*
X138233679Y-117399500D01*
X138233678Y-117399500D01*
X137946322Y-117399500D01*
X137946321Y-117399500D01*
X137661642Y-117438629D01*
X137661635Y-117438630D01*
X137453861Y-117496845D01*
X137384942Y-117516156D01*
X137384939Y-117516156D01*
X137384936Y-117516158D01*
X137384935Y-117516158D01*
X137121382Y-117630634D01*
X136875853Y-117779944D01*
X136652950Y-117961289D01*
X136456812Y-118171299D01*
X136291098Y-118406064D01*
X136158894Y-118661206D01*
X136062667Y-118931962D01*
X136062666Y-118931965D01*
X136004201Y-119213319D01*
X135984592Y-119500000D01*
X135590500Y-119500000D01*
X135590500Y-117000000D01*
X140084353Y-117000000D01*
X140104834Y-117142456D01*
X140164622Y-117273371D01*
X140164623Y-117273373D01*
X140258872Y-117382143D01*
X140379947Y-117459953D01*
X140379950Y-117459954D01*
X140379949Y-117459954D01*
X140518036Y-117500499D01*
X140518038Y-117500500D01*
X140518039Y-117500500D01*
X140661962Y-117500500D01*
X140661962Y-117500499D01*
X140800053Y-117459953D01*
X140921128Y-117382143D01*
X141015377Y-117273373D01*
X141075165Y-117142457D01*
X141095647Y-117000000D01*
X141075165Y-116857543D01*
X141015377Y-116726627D01*
X140921128Y-116617857D01*
X140800053Y-116540047D01*
X140800051Y-116540046D01*
X140800049Y-116540045D01*
X140800050Y-116540045D01*
X140661963Y-116499500D01*
X140661961Y-116499500D01*
X140518039Y-116499500D01*
X140518036Y-116499500D01*
X140379949Y-116540045D01*
X140258873Y-116617856D01*
X140164623Y-116726626D01*
X140164622Y-116726628D01*
X140104834Y-116857543D01*
X140084353Y-117000000D01*
X135590500Y-117000000D01*
X135590500Y-114500000D01*
X146594901Y-114500000D01*
X146613252Y-114686331D01*
X146613253Y-114686333D01*
X146667604Y-114865502D01*
X146755862Y-115030623D01*
X146755864Y-115030626D01*
X146874642Y-115175357D01*
X147019373Y-115294135D01*
X147019376Y-115294137D01*
X147067329Y-115319768D01*
X147184499Y-115382396D01*
X147363669Y-115436747D01*
X147388811Y-115439223D01*
X147453598Y-115465382D01*
X147493958Y-115522416D01*
X147497077Y-115592216D01*
X147472513Y-115641290D01*
X147417317Y-115708547D01*
X147319769Y-115891043D01*
X147319768Y-115891045D01*
X147319768Y-115891046D01*
X147318063Y-115896668D01*
X147259699Y-116089067D01*
X147239417Y-116295000D01*
X147259699Y-116500932D01*
X147289734Y-116599944D01*
X147319768Y-116698954D01*
X147417315Y-116881450D01*
X147417317Y-116881452D01*
X147548589Y-117041410D01*
X147594998Y-117079496D01*
X147708550Y-117172685D01*
X147891046Y-117270232D01*
X148089066Y-117330300D01*
X148089065Y-117330300D01*
X148107529Y-117332118D01*
X148295000Y-117350583D01*
X148500934Y-117330300D01*
X148698954Y-117270232D01*
X148699920Y-117269715D01*
X148700489Y-117269596D01*
X148704586Y-117267900D01*
X148704907Y-117268676D01*
X148768319Y-117255467D01*
X148833565Y-117280460D01*
X148874942Y-117336760D01*
X148878158Y-117346975D01*
X148910894Y-117469150D01*
X148910898Y-117469159D01*
X149003333Y-117667387D01*
X149046874Y-117729571D01*
X149795145Y-116981300D01*
X149790000Y-117000504D01*
X149790000Y-117079496D01*
X149810444Y-117155796D01*
X149849940Y-117224205D01*
X149905795Y-117280060D01*
X149974204Y-117319556D01*
X150050504Y-117340000D01*
X150129496Y-117340000D01*
X150205796Y-117319556D01*
X150274205Y-117280060D01*
X150330060Y-117224205D01*
X150369556Y-117155796D01*
X150390000Y-117079496D01*
X150390000Y-117000504D01*
X150384854Y-116981300D01*
X151133124Y-117729570D01*
X151176668Y-117667385D01*
X151176669Y-117667383D01*
X151269100Y-117469164D01*
X151269106Y-117469148D01*
X151301841Y-117346976D01*
X151338205Y-117287315D01*
X151401052Y-117256785D01*
X151470428Y-117265079D01*
X151480074Y-117269713D01*
X151481041Y-117270230D01*
X151481043Y-117270230D01*
X151481046Y-117270232D01*
X151679066Y-117330300D01*
X151679065Y-117330300D01*
X151697529Y-117332118D01*
X151885000Y-117350583D01*
X152090934Y-117330300D01*
X152288954Y-117270232D01*
X152471450Y-117172685D01*
X152631410Y-117041410D01*
X152665394Y-117000000D01*
X159084353Y-117000000D01*
X159104834Y-117142456D01*
X159164622Y-117273371D01*
X159164623Y-117273373D01*
X159258872Y-117382143D01*
X159379947Y-117459953D01*
X159379950Y-117459954D01*
X159379949Y-117459954D01*
X159518036Y-117500499D01*
X159518038Y-117500500D01*
X159518039Y-117500500D01*
X159661962Y-117500500D01*
X159661962Y-117500499D01*
X159800053Y-117459953D01*
X159921128Y-117382143D01*
X160015377Y-117273373D01*
X160075165Y-117142457D01*
X160095647Y-117000000D01*
X160075165Y-116857543D01*
X160015377Y-116726627D01*
X159921128Y-116617857D01*
X159800053Y-116540047D01*
X159800051Y-116540046D01*
X159800049Y-116540045D01*
X159800050Y-116540045D01*
X159661963Y-116499500D01*
X159661961Y-116499500D01*
X159518039Y-116499500D01*
X159518036Y-116499500D01*
X159379949Y-116540045D01*
X159258873Y-116617856D01*
X159164623Y-116726626D01*
X159164622Y-116726628D01*
X159104834Y-116857543D01*
X159084353Y-117000000D01*
X152665394Y-117000000D01*
X152762685Y-116881450D01*
X152860232Y-116698954D01*
X152920300Y-116500934D01*
X152940583Y-116295000D01*
X152920300Y-116089066D01*
X152860232Y-115891046D01*
X152762685Y-115708550D01*
X152734819Y-115674595D01*
X152707487Y-115641290D01*
X152680175Y-115576980D01*
X152691966Y-115508113D01*
X152739119Y-115456553D01*
X152791187Y-115439223D01*
X152816331Y-115436747D01*
X152995501Y-115382396D01*
X153160625Y-115294136D01*
X153305357Y-115175357D01*
X153424136Y-115030625D01*
X153512396Y-114865501D01*
X153566747Y-114686331D01*
X153585099Y-114500000D01*
X153566747Y-114313669D01*
X153512396Y-114134499D01*
X153424136Y-113969375D01*
X153424135Y-113969373D01*
X153305357Y-113824642D01*
X153160626Y-113705864D01*
X153160623Y-113705862D01*
X152995502Y-113617604D01*
X152816333Y-113563253D01*
X152816331Y-113563252D01*
X152630000Y-113544901D01*
X152443668Y-113563252D01*
X152443666Y-113563253D01*
X152264497Y-113617604D01*
X152099376Y-113705862D01*
X152099373Y-113705864D01*
X151954642Y-113824642D01*
X151835864Y-113969373D01*
X151835862Y-113969376D01*
X151747604Y-114134497D01*
X151693253Y-114313666D01*
X151693252Y-114313668D01*
X151674901Y-114500000D01*
X151693252Y-114686331D01*
X151693253Y-114686333D01*
X151747604Y-114865502D01*
X151835862Y-115030623D01*
X151835865Y-115030627D01*
X151850902Y-115048949D01*
X151878216Y-115113259D01*
X151866426Y-115182126D01*
X151819274Y-115233687D01*
X151767205Y-115251018D01*
X151679067Y-115259699D01*
X151481043Y-115319769D01*
X151370898Y-115378643D01*
X151298550Y-115417315D01*
X151298548Y-115417316D01*
X151298547Y-115417317D01*
X151138589Y-115548589D01*
X151007317Y-115708547D01*
X150909765Y-115891051D01*
X150907438Y-115896670D01*
X150906038Y-115896090D01*
X150871827Y-115948278D01*
X150808011Y-115976727D01*
X150738945Y-115966157D01*
X150720351Y-115955408D01*
X150717388Y-115953333D01*
X150519159Y-115860898D01*
X150519150Y-115860894D01*
X150307894Y-115804289D01*
X150307884Y-115804287D01*
X150090001Y-115785225D01*
X150089999Y-115785225D01*
X149872115Y-115804287D01*
X149872105Y-115804289D01*
X149660849Y-115860894D01*
X149660840Y-115860898D01*
X149462614Y-115953332D01*
X149462611Y-115953334D01*
X149459638Y-115955416D01*
X149458119Y-115955928D01*
X149457927Y-115956039D01*
X149457904Y-115956000D01*
X149393430Y-115977738D01*
X149325664Y-115960722D01*
X149277855Y-115909770D01*
X149272597Y-115896652D01*
X149272560Y-115896668D01*
X149270234Y-115891052D01*
X149270232Y-115891046D01*
X149172685Y-115708550D01*
X149120702Y-115645209D01*
X149041410Y-115548589D01*
X148923677Y-115451969D01*
X148881450Y-115417315D01*
X148698954Y-115319768D01*
X148500934Y-115259700D01*
X148500932Y-115259699D01*
X148500934Y-115259699D01*
X148412794Y-115251018D01*
X148348007Y-115224856D01*
X148307648Y-115167822D01*
X148304532Y-115098021D01*
X148329099Y-115048947D01*
X148344134Y-115030628D01*
X148344137Y-115030623D01*
X148432395Y-114865502D01*
X148432396Y-114865501D01*
X148486747Y-114686331D01*
X148505099Y-114500000D01*
X148486747Y-114313669D01*
X148432396Y-114134499D01*
X148344136Y-113969375D01*
X148344135Y-113969373D01*
X148225357Y-113824642D01*
X148080626Y-113705864D01*
X148080623Y-113705862D01*
X147915502Y-113617604D01*
X147736333Y-113563253D01*
X147736331Y-113563252D01*
X147550000Y-113544901D01*
X147363668Y-113563252D01*
X147363666Y-113563253D01*
X147184497Y-113617604D01*
X147019376Y-113705862D01*
X147019373Y-113705864D01*
X146874642Y-113824642D01*
X146755864Y-113969373D01*
X146755862Y-113969376D01*
X146667604Y-114134497D01*
X146613253Y-114313666D01*
X146613252Y-114313668D01*
X146594901Y-114500000D01*
X135590500Y-114500000D01*
X135590500Y-112300000D01*
X145134353Y-112300000D01*
X145154834Y-112442456D01*
X145214622Y-112573371D01*
X145214623Y-112573373D01*
X145308872Y-112682143D01*
X145429947Y-112759953D01*
X145429950Y-112759954D01*
X145429949Y-112759954D01*
X145568036Y-112800499D01*
X145568038Y-112800500D01*
X145568039Y-112800500D01*
X145711962Y-112800500D01*
X145711962Y-112800499D01*
X145850053Y-112759953D01*
X145971128Y-112682143D01*
X146065377Y-112573373D01*
X146125165Y-112442457D01*
X146145647Y-112300000D01*
X146125165Y-112157543D01*
X146065377Y-112026627D01*
X146042305Y-112000000D01*
X148084353Y-112000000D01*
X148104834Y-112142456D01*
X148164622Y-112273371D01*
X148164623Y-112273373D01*
X148258872Y-112382143D01*
X148379947Y-112459953D01*
X148379950Y-112459954D01*
X148379949Y-112459954D01*
X148518036Y-112500499D01*
X148518038Y-112500500D01*
X148518039Y-112500500D01*
X148661962Y-112500500D01*
X148661962Y-112500499D01*
X148800053Y-112459953D01*
X148921128Y-112382143D01*
X149015377Y-112273373D01*
X149075165Y-112142457D01*
X149095647Y-112000000D01*
X149075165Y-111857543D01*
X149015377Y-111726627D01*
X148921128Y-111617857D01*
X148800053Y-111540047D01*
X148800051Y-111540046D01*
X148800049Y-111540045D01*
X148800050Y-111540045D01*
X148661963Y-111499500D01*
X148661961Y-111499500D01*
X148518039Y-111499500D01*
X148518036Y-111499500D01*
X148379949Y-111540045D01*
X148258873Y-111617856D01*
X148164623Y-111726626D01*
X148164622Y-111726628D01*
X148104834Y-111857543D01*
X148084353Y-112000000D01*
X146042305Y-112000000D01*
X145971128Y-111917857D01*
X145850053Y-111840047D01*
X145850051Y-111840046D01*
X145850049Y-111840045D01*
X145850050Y-111840045D01*
X145711963Y-111799500D01*
X145711961Y-111799500D01*
X145568039Y-111799500D01*
X145568036Y-111799500D01*
X145429949Y-111840045D01*
X145308873Y-111917856D01*
X145214623Y-112026626D01*
X145214622Y-112026628D01*
X145154834Y-112157543D01*
X145134353Y-112300000D01*
X135590500Y-112300000D01*
X135590500Y-111250000D01*
X157834353Y-111250000D01*
X157854834Y-111392456D01*
X157903720Y-111499500D01*
X157914623Y-111523373D01*
X158008872Y-111632143D01*
X158129947Y-111709953D01*
X158129950Y-111709954D01*
X158129949Y-111709954D01*
X158268036Y-111750499D01*
X158268038Y-111750500D01*
X158268039Y-111750500D01*
X158411962Y-111750500D01*
X158411962Y-111750499D01*
X158550053Y-111709953D01*
X158671128Y-111632143D01*
X158765377Y-111523373D01*
X158825165Y-111392457D01*
X158845647Y-111250000D01*
X158825165Y-111107543D01*
X158765377Y-110976627D01*
X158671128Y-110867857D01*
X158550053Y-110790047D01*
X158550051Y-110790046D01*
X158550049Y-110790045D01*
X158550050Y-110790045D01*
X158411963Y-110749500D01*
X158411961Y-110749500D01*
X158268039Y-110749500D01*
X158268036Y-110749500D01*
X158129949Y-110790045D01*
X158008873Y-110867856D01*
X157914623Y-110976626D01*
X157914622Y-110976628D01*
X157854834Y-111107543D01*
X157834353Y-111250000D01*
X135590500Y-111250000D01*
X135590500Y-105150000D01*
X141934353Y-105150000D01*
X141954834Y-105292456D01*
X142014622Y-105423371D01*
X142014623Y-105423373D01*
X142108872Y-105532143D01*
X142229947Y-105609953D01*
X142229950Y-105609954D01*
X142229949Y-105609954D01*
X142368036Y-105650499D01*
X142368038Y-105650500D01*
X142368039Y-105650500D01*
X142511962Y-105650500D01*
X142511962Y-105650499D01*
X142650053Y-105609953D01*
X142771128Y-105532143D01*
X142865377Y-105423373D01*
X142921720Y-105300000D01*
X159434353Y-105300000D01*
X159454834Y-105442456D01*
X159514622Y-105573371D01*
X159514623Y-105573373D01*
X159608872Y-105682143D01*
X159729947Y-105759953D01*
X159729950Y-105759954D01*
X159729949Y-105759954D01*
X159868036Y-105800499D01*
X159868038Y-105800500D01*
X159868039Y-105800500D01*
X160011962Y-105800500D01*
X160011962Y-105800499D01*
X160150053Y-105759953D01*
X160271128Y-105682143D01*
X160365377Y-105573373D01*
X160425165Y-105442457D01*
X160445647Y-105300000D01*
X160425165Y-105157543D01*
X160365377Y-105026627D01*
X160271128Y-104917857D01*
X160150053Y-104840047D01*
X160150051Y-104840046D01*
X160150049Y-104840045D01*
X160150050Y-104840045D01*
X160011963Y-104799500D01*
X160011961Y-104799500D01*
X159868039Y-104799500D01*
X159868036Y-104799500D01*
X159729949Y-104840045D01*
X159608873Y-104917856D01*
X159514623Y-105026626D01*
X159514622Y-105026628D01*
X159454834Y-105157543D01*
X159434353Y-105300000D01*
X142921720Y-105300000D01*
X142925165Y-105292457D01*
X142945647Y-105150000D01*
X142925165Y-105007543D01*
X142865377Y-104876627D01*
X142771128Y-104767857D01*
X142650053Y-104690047D01*
X142650051Y-104690046D01*
X142650049Y-104690045D01*
X142650050Y-104690045D01*
X142511963Y-104649500D01*
X142511961Y-104649500D01*
X142368039Y-104649500D01*
X142368036Y-104649500D01*
X142229949Y-104690045D01*
X142108873Y-104767856D01*
X142014623Y-104876626D01*
X142014622Y-104876628D01*
X141954834Y-105007543D01*
X141934353Y-105150000D01*
X135590500Y-105150000D01*
X135590500Y-102050000D01*
X145884353Y-102050000D01*
X145904834Y-102192456D01*
X145964622Y-102323371D01*
X145964623Y-102323373D01*
X146058872Y-102432143D01*
X146179947Y-102509953D01*
X146179950Y-102509954D01*
X146179949Y-102509954D01*
X146318036Y-102550499D01*
X146318038Y-102550500D01*
X146318039Y-102550500D01*
X146461962Y-102550500D01*
X146461962Y-102550499D01*
X146600053Y-102509953D01*
X146721128Y-102432143D01*
X146815377Y-102323373D01*
X146875165Y-102192457D01*
X146895647Y-102050000D01*
X146875165Y-101907543D01*
X146815377Y-101776627D01*
X146792305Y-101750000D01*
X154134353Y-101750000D01*
X154154834Y-101892456D01*
X154214622Y-102023371D01*
X154214623Y-102023373D01*
X154308872Y-102132143D01*
X154429947Y-102209953D01*
X154429950Y-102209954D01*
X154429949Y-102209954D01*
X154568036Y-102250499D01*
X154568038Y-102250500D01*
X154568039Y-102250500D01*
X154711962Y-102250500D01*
X154711962Y-102250499D01*
X154850053Y-102209953D01*
X154971128Y-102132143D01*
X155065377Y-102023373D01*
X155125165Y-101892457D01*
X155145647Y-101750000D01*
X155125165Y-101607543D01*
X155065377Y-101476627D01*
X154971128Y-101367857D01*
X154850053Y-101290047D01*
X154850051Y-101290046D01*
X154850049Y-101290045D01*
X154850050Y-101290045D01*
X154711963Y-101249500D01*
X154711961Y-101249500D01*
X154568039Y-101249500D01*
X154568036Y-101249500D01*
X154429949Y-101290045D01*
X154308873Y-101367856D01*
X154214623Y-101476626D01*
X154214622Y-101476628D01*
X154154834Y-101607543D01*
X154134353Y-101750000D01*
X146792305Y-101750000D01*
X146721128Y-101667857D01*
X146600053Y-101590047D01*
X146600051Y-101590046D01*
X146600049Y-101590045D01*
X146600050Y-101590045D01*
X146461963Y-101549500D01*
X146461961Y-101549500D01*
X146318039Y-101549500D01*
X146318036Y-101549500D01*
X146179949Y-101590045D01*
X146058873Y-101667856D01*
X145964623Y-101776626D01*
X145964622Y-101776628D01*
X145904834Y-101907543D01*
X145884353Y-102050000D01*
X135590500Y-102050000D01*
X135590500Y-101049998D01*
X148984318Y-101049998D01*
X148984318Y-101050001D01*
X149004955Y-101206760D01*
X149004956Y-101206762D01*
X149065464Y-101352841D01*
X149161718Y-101478282D01*
X149287159Y-101574536D01*
X149433238Y-101635044D01*
X149511619Y-101645363D01*
X149589999Y-101655682D01*
X149590000Y-101655682D01*
X149590001Y-101655682D01*
X149642254Y-101648802D01*
X149746762Y-101635044D01*
X149892841Y-101574536D01*
X150018282Y-101478282D01*
X150114536Y-101352841D01*
X150175044Y-101206762D01*
X150195682Y-101050000D01*
X150187044Y-100984389D01*
X150197809Y-100915357D01*
X150244189Y-100863101D01*
X150311458Y-100844215D01*
X150357432Y-100853644D01*
X150433238Y-100885044D01*
X150495478Y-100893238D01*
X150589999Y-100905682D01*
X150590000Y-100905682D01*
X150590001Y-100905682D01*
X150684514Y-100893239D01*
X150746762Y-100885044D01*
X150892841Y-100824536D01*
X151018282Y-100728282D01*
X151114536Y-100602841D01*
X151175044Y-100456762D01*
X151195682Y-100300000D01*
X151175044Y-100143238D01*
X151114536Y-99997159D01*
X151018282Y-99871718D01*
X150892841Y-99775464D01*
X150746762Y-99714956D01*
X150746760Y-99714955D01*
X150590001Y-99694318D01*
X150589999Y-99694318D01*
X150433239Y-99714955D01*
X150433237Y-99714956D01*
X150287160Y-99775463D01*
X150161718Y-99871718D01*
X150065463Y-99997160D01*
X150004956Y-100143237D01*
X150004955Y-100143239D01*
X149984318Y-100299998D01*
X149984318Y-100300001D01*
X149992955Y-100365608D01*
X149982189Y-100434644D01*
X149935809Y-100486899D01*
X149868540Y-100505784D01*
X149822563Y-100496354D01*
X149746762Y-100464956D01*
X149746760Y-100464955D01*
X149590001Y-100444318D01*
X149589999Y-100444318D01*
X149433239Y-100464955D01*
X149433237Y-100464956D01*
X149287160Y-100525463D01*
X149161718Y-100621718D01*
X149065463Y-100747160D01*
X149004956Y-100893237D01*
X149004955Y-100893239D01*
X148984318Y-101049998D01*
X135590500Y-101049998D01*
X135590500Y-94500000D01*
X140584353Y-94500000D01*
X140604834Y-94642456D01*
X140635660Y-94709954D01*
X140664623Y-94773373D01*
X140758872Y-94882143D01*
X140766324Y-94886932D01*
X140779943Y-94895685D01*
X140825698Y-94948489D01*
X140835641Y-95017648D01*
X140806615Y-95081203D01*
X140779943Y-95104315D01*
X140758874Y-95117855D01*
X140664623Y-95226626D01*
X140664622Y-95226628D01*
X140604834Y-95357543D01*
X140584353Y-95500000D01*
X140604834Y-95642456D01*
X140635660Y-95709954D01*
X140664623Y-95773373D01*
X140758872Y-95882143D01*
X140766324Y-95886932D01*
X140779943Y-95895685D01*
X140825698Y-95948489D01*
X140835641Y-96017648D01*
X140806615Y-96081203D01*
X140779943Y-96104315D01*
X140758874Y-96117855D01*
X140664623Y-96226626D01*
X140664622Y-96226628D01*
X140604834Y-96357543D01*
X140584353Y-96500000D01*
X140604834Y-96642456D01*
X140653949Y-96750000D01*
X140664623Y-96773373D01*
X140758872Y-96882143D01*
X140879947Y-96959953D01*
X140879950Y-96959954D01*
X140879949Y-96959954D01*
X141018036Y-97000499D01*
X141018038Y-97000500D01*
X141018039Y-97000500D01*
X141161962Y-97000500D01*
X141161962Y-97000499D01*
X141300053Y-96959953D01*
X141421128Y-96882143D01*
X141515377Y-96773373D01*
X141526051Y-96750000D01*
X150634353Y-96750000D01*
X150654834Y-96892456D01*
X150685660Y-96959954D01*
X150714623Y-97023373D01*
X150808872Y-97132143D01*
X150929947Y-97209953D01*
X150929950Y-97209954D01*
X150929949Y-97209954D01*
X151068036Y-97250499D01*
X151068038Y-97250500D01*
X151068039Y-97250500D01*
X151211962Y-97250500D01*
X151211962Y-97250499D01*
X151350053Y-97209953D01*
X151471128Y-97132143D01*
X151565377Y-97023373D01*
X151625165Y-96892457D01*
X151645647Y-96750000D01*
X151625165Y-96607543D01*
X151565377Y-96476627D01*
X151471128Y-96367857D01*
X151350053Y-96290047D01*
X151350051Y-96290046D01*
X151350049Y-96290045D01*
X151350050Y-96290045D01*
X151211963Y-96249500D01*
X151211961Y-96249500D01*
X151068039Y-96249500D01*
X151068036Y-96249500D01*
X150929949Y-96290045D01*
X150808873Y-96367856D01*
X150714623Y-96476626D01*
X150714622Y-96476628D01*
X150654834Y-96607543D01*
X150634353Y-96750000D01*
X141526051Y-96750000D01*
X141575165Y-96642457D01*
X141595647Y-96500000D01*
X141575165Y-96357543D01*
X141515377Y-96226627D01*
X141421128Y-96117857D01*
X141421125Y-96117855D01*
X141421125Y-96117854D01*
X141400058Y-96104316D01*
X141354302Y-96051513D01*
X141344358Y-95982354D01*
X141373382Y-95918798D01*
X141400058Y-95895684D01*
X141421125Y-95882145D01*
X141421125Y-95882144D01*
X141421128Y-95882143D01*
X141515377Y-95773373D01*
X141575165Y-95642457D01*
X141595647Y-95500000D01*
X141575165Y-95357543D01*
X141526051Y-95250000D01*
X147334353Y-95250000D01*
X147354834Y-95392456D01*
X147403949Y-95500000D01*
X147414623Y-95523373D01*
X147508872Y-95632143D01*
X147629947Y-95709953D01*
X147629950Y-95709954D01*
X147629949Y-95709954D01*
X147768036Y-95750499D01*
X147768038Y-95750500D01*
X147768039Y-95750500D01*
X147911962Y-95750500D01*
X147911962Y-95750499D01*
X148050053Y-95709953D01*
X148171128Y-95632143D01*
X148265377Y-95523373D01*
X148276051Y-95500000D01*
X153084353Y-95500000D01*
X153104834Y-95642456D01*
X153135660Y-95709954D01*
X153164623Y-95773373D01*
X153258872Y-95882143D01*
X153379947Y-95959953D01*
X153379950Y-95959954D01*
X153379949Y-95959954D01*
X153487107Y-95991417D01*
X153516336Y-96000000D01*
X153518036Y-96000499D01*
X153518038Y-96000500D01*
X153518039Y-96000500D01*
X153661962Y-96000500D01*
X153661962Y-96000499D01*
X153800053Y-95959953D01*
X153921128Y-95882143D01*
X154015377Y-95773373D01*
X154075165Y-95642457D01*
X154095647Y-95500000D01*
X154075165Y-95357543D01*
X154015377Y-95226627D01*
X153921128Y-95117857D01*
X153800053Y-95040047D01*
X153800051Y-95040046D01*
X153800049Y-95040045D01*
X153800050Y-95040045D01*
X153661963Y-94999500D01*
X153661961Y-94999500D01*
X153518039Y-94999500D01*
X153518036Y-94999500D01*
X153379949Y-95040045D01*
X153258873Y-95117856D01*
X153164623Y-95226626D01*
X153164622Y-95226628D01*
X153104834Y-95357543D01*
X153084353Y-95500000D01*
X148276051Y-95500000D01*
X148325165Y-95392457D01*
X148345647Y-95250000D01*
X148325165Y-95107543D01*
X148265377Y-94976627D01*
X148171128Y-94867857D01*
X148050053Y-94790047D01*
X148050051Y-94790046D01*
X148050049Y-94790045D01*
X148050050Y-94790045D01*
X147911963Y-94749500D01*
X147911961Y-94749500D01*
X147768039Y-94749500D01*
X147768036Y-94749500D01*
X147629949Y-94790045D01*
X147508873Y-94867856D01*
X147414623Y-94976626D01*
X147414622Y-94976628D01*
X147354834Y-95107543D01*
X147334353Y-95250000D01*
X141526051Y-95250000D01*
X141515377Y-95226627D01*
X141421128Y-95117857D01*
X141421125Y-95117855D01*
X141421125Y-95117854D01*
X141400058Y-95104316D01*
X141354302Y-95051513D01*
X141344358Y-94982354D01*
X141373382Y-94918798D01*
X141400058Y-94895684D01*
X141421125Y-94882145D01*
X141421125Y-94882144D01*
X141421128Y-94882143D01*
X141515377Y-94773373D01*
X141575165Y-94642457D01*
X141595647Y-94500000D01*
X141575165Y-94357543D01*
X141526051Y-94250000D01*
X151584353Y-94250000D01*
X151604834Y-94392456D01*
X151653949Y-94500000D01*
X151664623Y-94523373D01*
X151758872Y-94632143D01*
X151879947Y-94709953D01*
X151879950Y-94709954D01*
X151879949Y-94709954D01*
X151987107Y-94741417D01*
X152014633Y-94749500D01*
X152018036Y-94750499D01*
X152018038Y-94750500D01*
X152018039Y-94750500D01*
X152161962Y-94750500D01*
X152161962Y-94750499D01*
X152300053Y-94709953D01*
X152421128Y-94632143D01*
X152515377Y-94523373D01*
X152526051Y-94500000D01*
X158584353Y-94500000D01*
X158604834Y-94642456D01*
X158635660Y-94709954D01*
X158664623Y-94773373D01*
X158758872Y-94882143D01*
X158766324Y-94886932D01*
X158779943Y-94895685D01*
X158825698Y-94948489D01*
X158835641Y-95017648D01*
X158806615Y-95081203D01*
X158779943Y-95104315D01*
X158758874Y-95117855D01*
X158664623Y-95226626D01*
X158664622Y-95226628D01*
X158604834Y-95357543D01*
X158584353Y-95500000D01*
X158604834Y-95642456D01*
X158635660Y-95709954D01*
X158664623Y-95773373D01*
X158758872Y-95882143D01*
X158766324Y-95886932D01*
X158779943Y-95895685D01*
X158825698Y-95948489D01*
X158835641Y-96017648D01*
X158806615Y-96081203D01*
X158779943Y-96104315D01*
X158758874Y-96117855D01*
X158664623Y-96226626D01*
X158664622Y-96226628D01*
X158604834Y-96357543D01*
X158584353Y-96500000D01*
X158604834Y-96642456D01*
X158653949Y-96750000D01*
X158664623Y-96773373D01*
X158758872Y-96882143D01*
X158879947Y-96959953D01*
X158879950Y-96959954D01*
X158879949Y-96959954D01*
X159018036Y-97000499D01*
X159018038Y-97000500D01*
X159018039Y-97000500D01*
X159161962Y-97000500D01*
X159161962Y-97000499D01*
X159300053Y-96959953D01*
X159421128Y-96882143D01*
X159515377Y-96773373D01*
X159575165Y-96642457D01*
X159595647Y-96500000D01*
X159575165Y-96357543D01*
X159515377Y-96226627D01*
X159421128Y-96117857D01*
X159421125Y-96117855D01*
X159421125Y-96117854D01*
X159400058Y-96104316D01*
X159354302Y-96051513D01*
X159344358Y-95982354D01*
X159373382Y-95918798D01*
X159400058Y-95895684D01*
X159421125Y-95882145D01*
X159421125Y-95882144D01*
X159421128Y-95882143D01*
X159515377Y-95773373D01*
X159575165Y-95642457D01*
X159595647Y-95500000D01*
X159575165Y-95357543D01*
X159515377Y-95226627D01*
X159421128Y-95117857D01*
X159421125Y-95117855D01*
X159421125Y-95117854D01*
X159400058Y-95104316D01*
X159354302Y-95051513D01*
X159344358Y-94982354D01*
X159373382Y-94918798D01*
X159400058Y-94895684D01*
X159421125Y-94882145D01*
X159421125Y-94882144D01*
X159421128Y-94882143D01*
X159515377Y-94773373D01*
X159575165Y-94642457D01*
X159595647Y-94500000D01*
X159575165Y-94357543D01*
X159515377Y-94226627D01*
X159421128Y-94117857D01*
X159300053Y-94040047D01*
X159300051Y-94040046D01*
X159300049Y-94040045D01*
X159300050Y-94040045D01*
X159161963Y-93999500D01*
X159161961Y-93999500D01*
X159018039Y-93999500D01*
X159018036Y-93999500D01*
X158879949Y-94040045D01*
X158758873Y-94117856D01*
X158664623Y-94226626D01*
X158664622Y-94226628D01*
X158604834Y-94357543D01*
X158584353Y-94500000D01*
X152526051Y-94500000D01*
X152575165Y-94392457D01*
X152595647Y-94250000D01*
X152575165Y-94107543D01*
X152515377Y-93976627D01*
X152421128Y-93867857D01*
X152300053Y-93790047D01*
X152300051Y-93790046D01*
X152300049Y-93790045D01*
X152300050Y-93790045D01*
X152161963Y-93749500D01*
X152161961Y-93749500D01*
X152018039Y-93749500D01*
X152018036Y-93749500D01*
X151879949Y-93790045D01*
X151758873Y-93867856D01*
X151664623Y-93976626D01*
X151664622Y-93976628D01*
X151604834Y-94107543D01*
X151584353Y-94250000D01*
X141526051Y-94250000D01*
X141515377Y-94226627D01*
X141421128Y-94117857D01*
X141300053Y-94040047D01*
X141300051Y-94040046D01*
X141300049Y-94040045D01*
X141300050Y-94040045D01*
X141161963Y-93999500D01*
X141161961Y-93999500D01*
X141018039Y-93999500D01*
X141018036Y-93999500D01*
X140879949Y-94040045D01*
X140758873Y-94117856D01*
X140664623Y-94226626D01*
X140664622Y-94226628D01*
X140604834Y-94357543D01*
X140584353Y-94500000D01*
X135590500Y-94500000D01*
X135590500Y-93524234D01*
X144764500Y-93524234D01*
X144764500Y-93675765D01*
X144803719Y-93822136D01*
X144830116Y-93867856D01*
X144879485Y-93953365D01*
X144986635Y-94060515D01*
X145117865Y-94136281D01*
X145264234Y-94175500D01*
X145264236Y-94175500D01*
X145415764Y-94175500D01*
X145415766Y-94175500D01*
X145562135Y-94136281D01*
X145693365Y-94060515D01*
X145800515Y-93953365D01*
X145876281Y-93822135D01*
X145915500Y-93675766D01*
X145915500Y-93524234D01*
X154264500Y-93524234D01*
X154264500Y-93675765D01*
X154303719Y-93822136D01*
X154330116Y-93867856D01*
X154379485Y-93953365D01*
X154486635Y-94060515D01*
X154617865Y-94136281D01*
X154764234Y-94175500D01*
X154764236Y-94175500D01*
X154915764Y-94175500D01*
X154915766Y-94175500D01*
X155062135Y-94136281D01*
X155193365Y-94060515D01*
X155300515Y-93953365D01*
X155376281Y-93822135D01*
X155415500Y-93675766D01*
X155415500Y-93524234D01*
X155376281Y-93377865D01*
X155300515Y-93246635D01*
X155193365Y-93139485D01*
X155127750Y-93101602D01*
X155062136Y-93063719D01*
X154988950Y-93044109D01*
X154915766Y-93024500D01*
X154764234Y-93024500D01*
X154617863Y-93063719D01*
X154486635Y-93139485D01*
X154486632Y-93139487D01*
X154379487Y-93246632D01*
X154379485Y-93246635D01*
X154303719Y-93377863D01*
X154264500Y-93524234D01*
X145915500Y-93524234D01*
X145876281Y-93377865D01*
X145800515Y-93246635D01*
X145693365Y-93139485D01*
X145627750Y-93101602D01*
X145562136Y-93063719D01*
X145488950Y-93044109D01*
X145415766Y-93024500D01*
X145264234Y-93024500D01*
X145117863Y-93063719D01*
X144986635Y-93139485D01*
X144986632Y-93139487D01*
X144879487Y-93246632D01*
X144879485Y-93246635D01*
X144803719Y-93377863D01*
X144764500Y-93524234D01*
X135590500Y-93524234D01*
X135590500Y-90500000D01*
X147684353Y-90500000D01*
X147704834Y-90642456D01*
X147764622Y-90773371D01*
X147764623Y-90773373D01*
X147858872Y-90882143D01*
X147979947Y-90959953D01*
X147979950Y-90959954D01*
X147979949Y-90959954D01*
X148118036Y-91000499D01*
X148118038Y-91000500D01*
X148118039Y-91000500D01*
X148261962Y-91000500D01*
X148261962Y-91000499D01*
X148400050Y-90959954D01*
X148400051Y-90959954D01*
X148400053Y-90959953D01*
X148521128Y-90882143D01*
X148521129Y-90882141D01*
X148522960Y-90880965D01*
X148590000Y-90861280D01*
X148657039Y-90880964D01*
X148657040Y-90880965D01*
X148658870Y-90882141D01*
X148658872Y-90882143D01*
X148682040Y-90897032D01*
X148779948Y-90959954D01*
X148918036Y-91000499D01*
X148918038Y-91000500D01*
X148918039Y-91000500D01*
X149061962Y-91000500D01*
X149061962Y-91000499D01*
X149200053Y-90959953D01*
X149321128Y-90882143D01*
X149415377Y-90773373D01*
X149475165Y-90642457D01*
X149495647Y-90500000D01*
X150534353Y-90500000D01*
X150554834Y-90642456D01*
X150614622Y-90773371D01*
X150614623Y-90773373D01*
X150708872Y-90882143D01*
X150829947Y-90959953D01*
X150829950Y-90959954D01*
X150829949Y-90959954D01*
X150968036Y-91000499D01*
X150968038Y-91000500D01*
X150968039Y-91000500D01*
X151111962Y-91000500D01*
X151111962Y-91000499D01*
X151250053Y-90959953D01*
X151347960Y-90897031D01*
X151415000Y-90877347D01*
X151482039Y-90897032D01*
X151482040Y-90897032D01*
X151579947Y-90959953D01*
X151579948Y-90959953D01*
X151579949Y-90959954D01*
X151718036Y-91000499D01*
X151718038Y-91000500D01*
X151718039Y-91000500D01*
X151861962Y-91000500D01*
X151861962Y-91000499D01*
X152000053Y-90959953D01*
X152121128Y-90882143D01*
X152215377Y-90773373D01*
X152275165Y-90642457D01*
X152295647Y-90500000D01*
X152275165Y-90357543D01*
X152215377Y-90226627D01*
X152121128Y-90117857D01*
X152000053Y-90040047D01*
X152000051Y-90040046D01*
X152000049Y-90040045D01*
X152000050Y-90040045D01*
X151861963Y-89999500D01*
X151861961Y-89999500D01*
X151718039Y-89999500D01*
X151718036Y-89999500D01*
X151579949Y-90040045D01*
X151482039Y-90102968D01*
X151414999Y-90122652D01*
X151347961Y-90102968D01*
X151250050Y-90040045D01*
X151111963Y-89999500D01*
X151111961Y-89999500D01*
X150968039Y-89999500D01*
X150968036Y-89999500D01*
X150829949Y-90040045D01*
X150708873Y-90117856D01*
X150614623Y-90226626D01*
X150614622Y-90226628D01*
X150554834Y-90357543D01*
X150534353Y-90500000D01*
X149495647Y-90500000D01*
X149475165Y-90357543D01*
X149415377Y-90226627D01*
X149321128Y-90117857D01*
X149200053Y-90040047D01*
X149200051Y-90040046D01*
X149200049Y-90040045D01*
X149200050Y-90040045D01*
X149061963Y-89999500D01*
X149061961Y-89999500D01*
X148918039Y-89999500D01*
X148918036Y-89999500D01*
X148779949Y-90040045D01*
X148657039Y-90119035D01*
X148590000Y-90138719D01*
X148522961Y-90119035D01*
X148497960Y-90102968D01*
X148400053Y-90040047D01*
X148400051Y-90040046D01*
X148400049Y-90040045D01*
X148400050Y-90040045D01*
X148261963Y-89999500D01*
X148261961Y-89999500D01*
X148118039Y-89999500D01*
X148118036Y-89999500D01*
X147979949Y-90040045D01*
X147858873Y-90117856D01*
X147764623Y-90226626D01*
X147764622Y-90226628D01*
X147704834Y-90357543D01*
X147684353Y-90500000D01*
X135590500Y-90500000D01*
X135590500Y-89750000D01*
X142084353Y-89750000D01*
X142104834Y-89892456D01*
X142153720Y-89999500D01*
X142164623Y-90023373D01*
X142258872Y-90132143D01*
X142379947Y-90209953D01*
X142379950Y-90209954D01*
X142379949Y-90209954D01*
X142518036Y-90250499D01*
X142518038Y-90250500D01*
X142518039Y-90250500D01*
X142661962Y-90250500D01*
X142661962Y-90250499D01*
X142800053Y-90209953D01*
X142921128Y-90132143D01*
X143015377Y-90023373D01*
X143075165Y-89892457D01*
X143095647Y-89750000D01*
X143075165Y-89607543D01*
X143015377Y-89476627D01*
X142921128Y-89367857D01*
X142800053Y-89290047D01*
X142800051Y-89290046D01*
X142800049Y-89290045D01*
X142800050Y-89290045D01*
X142661963Y-89249500D01*
X142661961Y-89249500D01*
X142518039Y-89249500D01*
X142518036Y-89249500D01*
X142379949Y-89290045D01*
X142258873Y-89367856D01*
X142164623Y-89476626D01*
X142164622Y-89476628D01*
X142104834Y-89607543D01*
X142084353Y-89750000D01*
X135590500Y-89750000D01*
X135590500Y-88250000D01*
X145834353Y-88250000D01*
X145854834Y-88392456D01*
X145885660Y-88459954D01*
X145914623Y-88523373D01*
X146008872Y-88632143D01*
X146129947Y-88709953D01*
X146129950Y-88709954D01*
X146129949Y-88709954D01*
X146268036Y-88750499D01*
X146268038Y-88750500D01*
X146268039Y-88750500D01*
X146411962Y-88750500D01*
X146411962Y-88750499D01*
X146550053Y-88709953D01*
X146671128Y-88632143D01*
X146765377Y-88523373D01*
X146825165Y-88392457D01*
X146845647Y-88250000D01*
X146825165Y-88107543D01*
X146776051Y-88000000D01*
X158584353Y-88000000D01*
X158604834Y-88142456D01*
X158653949Y-88250000D01*
X158664623Y-88273373D01*
X158758872Y-88382143D01*
X158879947Y-88459953D01*
X158879950Y-88459954D01*
X158879949Y-88459954D01*
X159018036Y-88500499D01*
X159018038Y-88500500D01*
X159018039Y-88500500D01*
X159161962Y-88500500D01*
X159161962Y-88500499D01*
X159300053Y-88459953D01*
X159421128Y-88382143D01*
X159515377Y-88273373D01*
X159575165Y-88142457D01*
X159595647Y-88000000D01*
X159575165Y-87857543D01*
X159515377Y-87726627D01*
X159421128Y-87617857D01*
X159300053Y-87540047D01*
X159300051Y-87540046D01*
X159300049Y-87540045D01*
X159300050Y-87540045D01*
X159161963Y-87499500D01*
X159161961Y-87499500D01*
X159018039Y-87499500D01*
X159018036Y-87499500D01*
X158879949Y-87540045D01*
X158758873Y-87617856D01*
X158664623Y-87726626D01*
X158664622Y-87726628D01*
X158604834Y-87857543D01*
X158584353Y-88000000D01*
X146776051Y-88000000D01*
X146765377Y-87976627D01*
X146671128Y-87867857D01*
X146550053Y-87790047D01*
X146550051Y-87790046D01*
X146550049Y-87790045D01*
X146550050Y-87790045D01*
X146411963Y-87749500D01*
X146411961Y-87749500D01*
X146268039Y-87749500D01*
X146268036Y-87749500D01*
X146129949Y-87790045D01*
X146008873Y-87867856D01*
X145914623Y-87976626D01*
X145914622Y-87976628D01*
X145854834Y-88107543D01*
X145834353Y-88250000D01*
X135590500Y-88250000D01*
X135590500Y-86250000D01*
X140834353Y-86250000D01*
X140854834Y-86392456D01*
X140914622Y-86523371D01*
X140914623Y-86523373D01*
X141008872Y-86632143D01*
X141129947Y-86709953D01*
X141129950Y-86709954D01*
X141129949Y-86709954D01*
X141268036Y-86750499D01*
X141268038Y-86750500D01*
X141268039Y-86750500D01*
X141411962Y-86750500D01*
X141411962Y-86750499D01*
X141550053Y-86709953D01*
X141671128Y-86632143D01*
X141765377Y-86523373D01*
X141825165Y-86392457D01*
X141845647Y-86250000D01*
X141825165Y-86107543D01*
X141765377Y-85976627D01*
X141671128Y-85867857D01*
X141550053Y-85790047D01*
X141550051Y-85790046D01*
X141550049Y-85790045D01*
X141550050Y-85790045D01*
X141413666Y-85750000D01*
X144584353Y-85750000D01*
X144604834Y-85892456D01*
X144643275Y-85976628D01*
X144664623Y-86023373D01*
X144758872Y-86132143D01*
X144879947Y-86209953D01*
X144879950Y-86209954D01*
X144879949Y-86209954D01*
X144987107Y-86241417D01*
X145016336Y-86250000D01*
X145018036Y-86250499D01*
X145018038Y-86250500D01*
X145018039Y-86250500D01*
X145161962Y-86250500D01*
X145161962Y-86250499D01*
X145163661Y-86250000D01*
X147584353Y-86250000D01*
X147604834Y-86392456D01*
X147664622Y-86523371D01*
X147664623Y-86523373D01*
X147758872Y-86632143D01*
X147879947Y-86709953D01*
X147879950Y-86709954D01*
X147879949Y-86709954D01*
X148018036Y-86750499D01*
X148018038Y-86750500D01*
X148018039Y-86750500D01*
X148161962Y-86750500D01*
X148161962Y-86750499D01*
X148300053Y-86709953D01*
X148421128Y-86632143D01*
X148515377Y-86523373D01*
X148575165Y-86392457D01*
X148595647Y-86250000D01*
X150834353Y-86250000D01*
X150854834Y-86392456D01*
X150914622Y-86523371D01*
X150914623Y-86523373D01*
X151008872Y-86632143D01*
X151129947Y-86709953D01*
X151129950Y-86709954D01*
X151129949Y-86709954D01*
X151268036Y-86750499D01*
X151268038Y-86750500D01*
X151268039Y-86750500D01*
X151411962Y-86750500D01*
X151411962Y-86750499D01*
X151550053Y-86709953D01*
X151671128Y-86632143D01*
X151765377Y-86523373D01*
X151825165Y-86392457D01*
X151845647Y-86250000D01*
X151825165Y-86107543D01*
X151765377Y-85976627D01*
X151671128Y-85867857D01*
X151550053Y-85790047D01*
X151550051Y-85790046D01*
X151550049Y-85790045D01*
X151550050Y-85790045D01*
X151411963Y-85749500D01*
X151411961Y-85749500D01*
X151268039Y-85749500D01*
X151268036Y-85749500D01*
X151129949Y-85790045D01*
X151008873Y-85867856D01*
X150914623Y-85976626D01*
X150914622Y-85976628D01*
X150854834Y-86107543D01*
X150834353Y-86250000D01*
X148595647Y-86250000D01*
X148575165Y-86107543D01*
X148515377Y-85976627D01*
X148421128Y-85867857D01*
X148300053Y-85790047D01*
X148300051Y-85790046D01*
X148300049Y-85790045D01*
X148300050Y-85790045D01*
X148161963Y-85749500D01*
X148161961Y-85749500D01*
X148018039Y-85749500D01*
X148018036Y-85749500D01*
X147879949Y-85790045D01*
X147758873Y-85867856D01*
X147664623Y-85976626D01*
X147664622Y-85976628D01*
X147604834Y-86107543D01*
X147584353Y-86250000D01*
X145163661Y-86250000D01*
X145300053Y-86209953D01*
X145421128Y-86132143D01*
X145515377Y-86023373D01*
X145575165Y-85892457D01*
X145595647Y-85750000D01*
X145575165Y-85607543D01*
X145526051Y-85500000D01*
X155084353Y-85500000D01*
X155104834Y-85642456D01*
X155153720Y-85749500D01*
X155164623Y-85773373D01*
X155258872Y-85882143D01*
X155379947Y-85959953D01*
X155379950Y-85959954D01*
X155379949Y-85959954D01*
X155518036Y-86000499D01*
X155518038Y-86000500D01*
X155518039Y-86000500D01*
X155661962Y-86000500D01*
X155661962Y-86000499D01*
X155800053Y-85959953D01*
X155921128Y-85882143D01*
X156015377Y-85773373D01*
X156075165Y-85642457D01*
X156095647Y-85500000D01*
X156075165Y-85357543D01*
X156015377Y-85226627D01*
X155921128Y-85117857D01*
X155800053Y-85040047D01*
X155800051Y-85040046D01*
X155800049Y-85040045D01*
X155800050Y-85040045D01*
X155661963Y-84999500D01*
X155661961Y-84999500D01*
X155518039Y-84999500D01*
X155518036Y-84999500D01*
X155379949Y-85040045D01*
X155258873Y-85117856D01*
X155164623Y-85226626D01*
X155164622Y-85226628D01*
X155104834Y-85357543D01*
X155084353Y-85500000D01*
X145526051Y-85500000D01*
X145515377Y-85476627D01*
X145421128Y-85367857D01*
X145300053Y-85290047D01*
X145300051Y-85290046D01*
X145300049Y-85290045D01*
X145300050Y-85290045D01*
X145161963Y-85249500D01*
X145161961Y-85249500D01*
X145018039Y-85249500D01*
X145018036Y-85249500D01*
X144879949Y-85290045D01*
X144758873Y-85367856D01*
X144664623Y-85476626D01*
X144664622Y-85476628D01*
X144604834Y-85607543D01*
X144584353Y-85750000D01*
X141413666Y-85750000D01*
X141411963Y-85749500D01*
X141411961Y-85749500D01*
X141268039Y-85749500D01*
X141268036Y-85749500D01*
X141129949Y-85790045D01*
X141008873Y-85867856D01*
X140914623Y-85976626D01*
X140914622Y-85976628D01*
X140854834Y-86107543D01*
X140834353Y-86250000D01*
X135590500Y-86250000D01*
X135590500Y-82250000D01*
X140834353Y-82250000D01*
X140854834Y-82392456D01*
X140903947Y-82499996D01*
X140914623Y-82523373D01*
X141008872Y-82632143D01*
X141129947Y-82709953D01*
X141129950Y-82709954D01*
X141129949Y-82709954D01*
X141237107Y-82741417D01*
X141262862Y-82748980D01*
X141268036Y-82750499D01*
X141268038Y-82750500D01*
X141268039Y-82750500D01*
X141411962Y-82750500D01*
X141411962Y-82750499D01*
X141550053Y-82709953D01*
X141671128Y-82632143D01*
X141765377Y-82523373D01*
X141776053Y-82499996D01*
X144084839Y-82499996D01*
X144084839Y-82500003D01*
X144103468Y-82819855D01*
X144103469Y-82819863D01*
X144159101Y-83135369D01*
X144159104Y-83135380D01*
X144250995Y-83442320D01*
X144377894Y-83736505D01*
X144377900Y-83736518D01*
X144538097Y-84013987D01*
X144729420Y-84270979D01*
X144729425Y-84270985D01*
X144842978Y-84391343D01*
X144949294Y-84504031D01*
X144949300Y-84504036D01*
X144949302Y-84504038D01*
X145194724Y-84709973D01*
X145194727Y-84709975D01*
X145194732Y-84709979D01*
X145462420Y-84886039D01*
X145748736Y-85029833D01*
X146049811Y-85139415D01*
X146049817Y-85139416D01*
X146049819Y-85139417D01*
X146361555Y-85213301D01*
X146361562Y-85213302D01*
X146361571Y-85213304D01*
X146679802Y-85250500D01*
X146679809Y-85250500D01*
X153500191Y-85250500D01*
X153500198Y-85250500D01*
X153818429Y-85213304D01*
X153818438Y-85213301D01*
X153818444Y-85213301D01*
X154069905Y-85153702D01*
X154130189Y-85139415D01*
X154431264Y-85029833D01*
X154717580Y-84886039D01*
X154985268Y-84709979D01*
X155230706Y-84504031D01*
X155450576Y-84270983D01*
X155641903Y-84013986D01*
X155802102Y-83736514D01*
X155929004Y-83442321D01*
X156020895Y-83135384D01*
X156076532Y-82819855D01*
X156095161Y-82500000D01*
X156080600Y-82250000D01*
X156334353Y-82250000D01*
X156354834Y-82392456D01*
X156403947Y-82499996D01*
X156414623Y-82523373D01*
X156508872Y-82632143D01*
X156629947Y-82709953D01*
X156629950Y-82709954D01*
X156629949Y-82709954D01*
X156737107Y-82741417D01*
X156762862Y-82748980D01*
X156768036Y-82750499D01*
X156768038Y-82750500D01*
X156768039Y-82750500D01*
X156911962Y-82750500D01*
X156911962Y-82750499D01*
X157050053Y-82709953D01*
X157171128Y-82632143D01*
X157265377Y-82523373D01*
X157325165Y-82392457D01*
X157345647Y-82250000D01*
X157325165Y-82107543D01*
X157265377Y-81976627D01*
X157171128Y-81867857D01*
X157050053Y-81790047D01*
X157050051Y-81790046D01*
X157050049Y-81790045D01*
X157050050Y-81790045D01*
X156911963Y-81749500D01*
X156911961Y-81749500D01*
X156768039Y-81749500D01*
X156768036Y-81749500D01*
X156629949Y-81790045D01*
X156508873Y-81867856D01*
X156414623Y-81976626D01*
X156414622Y-81976628D01*
X156354834Y-82107543D01*
X156334353Y-82250000D01*
X156080600Y-82250000D01*
X156076532Y-82180145D01*
X156023986Y-81882143D01*
X156020898Y-81864630D01*
X156020896Y-81864624D01*
X156020895Y-81864616D01*
X155929004Y-81557679D01*
X155904124Y-81500000D01*
X160334353Y-81500000D01*
X160354834Y-81642456D01*
X160403720Y-81749500D01*
X160414623Y-81773373D01*
X160508872Y-81882143D01*
X160629947Y-81959953D01*
X160629950Y-81959954D01*
X160629949Y-81959954D01*
X160768036Y-82000499D01*
X160768038Y-82000500D01*
X160768039Y-82000500D01*
X160911962Y-82000500D01*
X160911962Y-82000499D01*
X161050053Y-81959953D01*
X161171128Y-81882143D01*
X161265377Y-81773373D01*
X161325165Y-81642457D01*
X161345647Y-81500000D01*
X161325165Y-81357543D01*
X161265377Y-81226627D01*
X161171128Y-81117857D01*
X161050053Y-81040047D01*
X161050051Y-81040046D01*
X161050049Y-81040045D01*
X161050050Y-81040045D01*
X160911963Y-80999500D01*
X160911961Y-80999500D01*
X160768039Y-80999500D01*
X160768036Y-80999500D01*
X160629949Y-81040045D01*
X160508873Y-81117856D01*
X160414623Y-81226626D01*
X160414622Y-81226628D01*
X160354834Y-81357543D01*
X160334353Y-81500000D01*
X155904124Y-81500000D01*
X155802102Y-81263486D01*
X155641903Y-80986014D01*
X155584270Y-80908599D01*
X155450579Y-80729020D01*
X155450574Y-80729014D01*
X155344260Y-80616329D01*
X155230706Y-80495969D01*
X155230699Y-80495963D01*
X155230697Y-80495961D01*
X154985271Y-80290023D01*
X154985268Y-80290021D01*
X154717581Y-80113961D01*
X154712729Y-80111524D01*
X154431271Y-79970170D01*
X154431265Y-79970167D01*
X154130201Y-79860589D01*
X154130180Y-79860582D01*
X153818444Y-79786698D01*
X153818429Y-79786696D01*
X153500198Y-79749500D01*
X153405892Y-79749500D01*
X146905892Y-79749500D01*
X146840000Y-79749500D01*
X146679802Y-79749500D01*
X146401349Y-79782046D01*
X146361570Y-79786696D01*
X146361555Y-79786698D01*
X146049819Y-79860582D01*
X146049798Y-79860589D01*
X145748735Y-79970167D01*
X145467401Y-80111459D01*
X145462420Y-80113961D01*
X145273206Y-80238408D01*
X145194724Y-80290026D01*
X144949302Y-80495961D01*
X144949292Y-80495971D01*
X144729425Y-80729014D01*
X144729420Y-80729020D01*
X144538097Y-80986012D01*
X144377900Y-81263481D01*
X144377894Y-81263494D01*
X144250995Y-81557679D01*
X144159104Y-81864619D01*
X144159101Y-81864630D01*
X144103469Y-82180136D01*
X144103468Y-82180144D01*
X144084839Y-82499996D01*
X141776053Y-82499996D01*
X141825165Y-82392457D01*
X141845647Y-82250000D01*
X141825165Y-82107543D01*
X141765377Y-81976627D01*
X141671128Y-81867857D01*
X141550053Y-81790047D01*
X141550051Y-81790046D01*
X141550049Y-81790045D01*
X141550050Y-81790045D01*
X141411963Y-81749500D01*
X141411961Y-81749500D01*
X141268039Y-81749500D01*
X141268036Y-81749500D01*
X141129949Y-81790045D01*
X141008873Y-81867856D01*
X140914623Y-81976626D01*
X140914622Y-81976628D01*
X140854834Y-82107543D01*
X140834353Y-82250000D01*
X135590500Y-82250000D01*
X135590500Y-79000000D01*
X142584353Y-79000000D01*
X142604834Y-79142456D01*
X142653949Y-79250000D01*
X142664623Y-79273373D01*
X142758872Y-79382143D01*
X142879947Y-79459953D01*
X142879950Y-79459954D01*
X142879949Y-79459954D01*
X143018036Y-79500499D01*
X143018038Y-79500500D01*
X143018039Y-79500500D01*
X143161962Y-79500500D01*
X143161962Y-79500499D01*
X143300053Y-79459953D01*
X143421128Y-79382143D01*
X143515377Y-79273373D01*
X143575165Y-79142457D01*
X143595647Y-79000000D01*
X151084353Y-79000000D01*
X151104834Y-79142456D01*
X151153949Y-79250000D01*
X151164623Y-79273373D01*
X151258872Y-79382143D01*
X151379947Y-79459953D01*
X151379950Y-79459954D01*
X151379949Y-79459954D01*
X151518036Y-79500499D01*
X151518038Y-79500500D01*
X151518039Y-79500500D01*
X151661962Y-79500500D01*
X151661962Y-79500499D01*
X151800053Y-79459953D01*
X151921128Y-79382143D01*
X152015377Y-79273373D01*
X152026051Y-79250000D01*
X154334353Y-79250000D01*
X154354834Y-79392456D01*
X154385660Y-79459954D01*
X154414623Y-79523373D01*
X154508872Y-79632143D01*
X154629947Y-79709953D01*
X154629950Y-79709954D01*
X154629949Y-79709954D01*
X154737107Y-79741417D01*
X154764633Y-79749500D01*
X154768036Y-79750499D01*
X154768038Y-79750500D01*
X154768039Y-79750500D01*
X154911962Y-79750500D01*
X154911962Y-79750499D01*
X155050053Y-79709953D01*
X155171128Y-79632143D01*
X155265377Y-79523373D01*
X155325165Y-79392457D01*
X155345647Y-79250000D01*
X155325165Y-79107543D01*
X155265377Y-78976627D01*
X155171128Y-78867857D01*
X155050053Y-78790047D01*
X155050051Y-78790046D01*
X155050049Y-78790045D01*
X155050050Y-78790045D01*
X154911963Y-78749500D01*
X154911961Y-78749500D01*
X154768039Y-78749500D01*
X154768036Y-78749500D01*
X154629949Y-78790045D01*
X154508873Y-78867856D01*
X154414623Y-78976626D01*
X154414622Y-78976628D01*
X154354834Y-79107543D01*
X154334353Y-79250000D01*
X152026051Y-79250000D01*
X152075165Y-79142457D01*
X152095647Y-79000000D01*
X152075165Y-78857543D01*
X152015377Y-78726627D01*
X151921128Y-78617857D01*
X151800053Y-78540047D01*
X151800051Y-78540046D01*
X151800049Y-78540045D01*
X151800050Y-78540045D01*
X151661963Y-78499500D01*
X151661961Y-78499500D01*
X151518039Y-78499500D01*
X151518036Y-78499500D01*
X151379949Y-78540045D01*
X151258873Y-78617856D01*
X151164623Y-78726626D01*
X151164622Y-78726628D01*
X151104834Y-78857543D01*
X151084353Y-79000000D01*
X143595647Y-79000000D01*
X143575165Y-78857543D01*
X143515377Y-78726627D01*
X143421128Y-78617857D01*
X143300053Y-78540047D01*
X143300051Y-78540046D01*
X143300049Y-78540045D01*
X143300050Y-78540045D01*
X143161963Y-78499500D01*
X143161961Y-78499500D01*
X143018039Y-78499500D01*
X143018036Y-78499500D01*
X142879949Y-78540045D01*
X142758873Y-78617856D01*
X142664623Y-78726626D01*
X142664622Y-78726628D01*
X142604834Y-78857543D01*
X142584353Y-79000000D01*
X135590500Y-79000000D01*
X135590500Y-77000000D01*
X151334353Y-77000000D01*
X151354834Y-77142456D01*
X151414622Y-77273371D01*
X151414623Y-77273373D01*
X151508872Y-77382143D01*
X151629947Y-77459953D01*
X151629950Y-77459954D01*
X151629949Y-77459954D01*
X151768036Y-77500499D01*
X151768038Y-77500500D01*
X151768039Y-77500500D01*
X151911962Y-77500500D01*
X151911962Y-77500499D01*
X152050053Y-77459953D01*
X152171128Y-77382143D01*
X152265377Y-77273373D01*
X152325165Y-77142457D01*
X152345647Y-77000000D01*
X152325165Y-76857543D01*
X152265377Y-76726627D01*
X152171128Y-76617857D01*
X152050053Y-76540047D01*
X152050051Y-76540046D01*
X152050049Y-76540045D01*
X152050050Y-76540045D01*
X151911963Y-76499500D01*
X151911961Y-76499500D01*
X151768039Y-76499500D01*
X151768036Y-76499500D01*
X151629949Y-76540045D01*
X151508873Y-76617856D01*
X151414623Y-76726626D01*
X151414622Y-76726628D01*
X151354834Y-76857543D01*
X151334353Y-77000000D01*
X135590500Y-77000000D01*
X135590500Y-76250000D01*
X146334353Y-76250000D01*
X146354834Y-76392456D01*
X146377669Y-76442456D01*
X146414623Y-76523373D01*
X146508872Y-76632143D01*
X146629947Y-76709953D01*
X146629950Y-76709954D01*
X146629949Y-76709954D01*
X146768036Y-76750499D01*
X146768038Y-76750500D01*
X146768039Y-76750500D01*
X146911962Y-76750500D01*
X146911962Y-76750499D01*
X147050053Y-76709953D01*
X147171128Y-76632143D01*
X147265377Y-76523373D01*
X147325165Y-76392457D01*
X147338458Y-76300000D01*
X154534353Y-76300000D01*
X154554834Y-76442456D01*
X154599402Y-76540045D01*
X154614623Y-76573373D01*
X154708872Y-76682143D01*
X154829947Y-76759953D01*
X154829950Y-76759954D01*
X154829949Y-76759954D01*
X154968036Y-76800499D01*
X154968038Y-76800500D01*
X154968039Y-76800500D01*
X155111962Y-76800500D01*
X155111962Y-76800499D01*
X155250053Y-76759953D01*
X155371128Y-76682143D01*
X155465377Y-76573373D01*
X155525165Y-76442457D01*
X155545647Y-76300000D01*
X155525165Y-76157543D01*
X155465377Y-76026627D01*
X155371128Y-75917857D01*
X155250053Y-75840047D01*
X155250051Y-75840046D01*
X155250049Y-75840045D01*
X155250050Y-75840045D01*
X155111963Y-75799500D01*
X155111961Y-75799500D01*
X154968039Y-75799500D01*
X154968036Y-75799500D01*
X154829949Y-75840045D01*
X154708873Y-75917856D01*
X154614623Y-76026626D01*
X154614622Y-76026628D01*
X154554834Y-76157543D01*
X154534353Y-76300000D01*
X147338458Y-76300000D01*
X147345647Y-76250000D01*
X147325165Y-76107543D01*
X147265377Y-75976627D01*
X147171128Y-75867857D01*
X147050053Y-75790047D01*
X147050051Y-75790046D01*
X147050049Y-75790045D01*
X147050050Y-75790045D01*
X146911963Y-75749500D01*
X146911961Y-75749500D01*
X146768039Y-75749500D01*
X146768036Y-75749500D01*
X146629949Y-75790045D01*
X146508873Y-75867856D01*
X146414623Y-75976626D01*
X146414622Y-75976628D01*
X146354834Y-76107543D01*
X146334353Y-76250000D01*
X135590500Y-76250000D01*
X135590500Y-75000000D01*
X137584353Y-75000000D01*
X137604834Y-75142456D01*
X137664622Y-75273371D01*
X137664623Y-75273373D01*
X137758872Y-75382143D01*
X137879947Y-75459953D01*
X137879950Y-75459954D01*
X137879949Y-75459954D01*
X138018036Y-75500499D01*
X138018038Y-75500500D01*
X138018039Y-75500500D01*
X138161962Y-75500500D01*
X138161962Y-75500499D01*
X138300053Y-75459953D01*
X138421128Y-75382143D01*
X138515377Y-75273373D01*
X138575165Y-75142457D01*
X138595647Y-75000000D01*
X138575165Y-74857543D01*
X138515377Y-74726627D01*
X138421128Y-74617857D01*
X138300053Y-74540047D01*
X138300051Y-74540046D01*
X138300049Y-74540045D01*
X138300050Y-74540045D01*
X138161963Y-74499500D01*
X138161961Y-74499500D01*
X138018039Y-74499500D01*
X138018036Y-74499500D01*
X137879949Y-74540045D01*
X137758873Y-74617856D01*
X137664623Y-74726626D01*
X137664622Y-74726628D01*
X137604834Y-74857543D01*
X137584353Y-75000000D01*
X135590500Y-75000000D01*
X135590500Y-74000000D01*
X140084353Y-74000000D01*
X140104834Y-74142456D01*
X140164622Y-74273371D01*
X140164623Y-74273373D01*
X140258872Y-74382143D01*
X140379947Y-74459953D01*
X140379950Y-74459954D01*
X140379949Y-74459954D01*
X140487107Y-74491417D01*
X140514633Y-74499500D01*
X140518036Y-74500499D01*
X140518038Y-74500500D01*
X140518039Y-74500500D01*
X140661962Y-74500500D01*
X140661962Y-74500499D01*
X140800053Y-74459953D01*
X140921128Y-74382143D01*
X141015377Y-74273373D01*
X141071720Y-74150000D01*
X149584353Y-74150000D01*
X149604834Y-74292456D01*
X149664622Y-74423371D01*
X149664623Y-74423373D01*
X149758872Y-74532143D01*
X149879947Y-74609953D01*
X149879950Y-74609954D01*
X149879949Y-74609954D01*
X150018036Y-74650499D01*
X150018038Y-74650500D01*
X150018039Y-74650500D01*
X150161962Y-74650500D01*
X150161962Y-74650499D01*
X150300053Y-74609953D01*
X150421128Y-74532143D01*
X150515377Y-74423373D01*
X150575165Y-74292457D01*
X150595647Y-74150000D01*
X150575165Y-74007543D01*
X150515377Y-73876627D01*
X150421128Y-73767857D01*
X150300053Y-73690047D01*
X150300051Y-73690046D01*
X150300049Y-73690045D01*
X150300050Y-73690045D01*
X150161963Y-73649500D01*
X150161961Y-73649500D01*
X150018039Y-73649500D01*
X150018036Y-73649500D01*
X149879949Y-73690045D01*
X149758873Y-73767856D01*
X149664623Y-73876626D01*
X149664622Y-73876628D01*
X149604834Y-74007543D01*
X149584353Y-74150000D01*
X141071720Y-74150000D01*
X141075165Y-74142457D01*
X141095647Y-74000000D01*
X141075165Y-73857543D01*
X141015377Y-73726627D01*
X140921128Y-73617857D01*
X140800053Y-73540047D01*
X140800051Y-73540046D01*
X140800049Y-73540045D01*
X140800050Y-73540045D01*
X140663666Y-73500000D01*
X148334353Y-73500000D01*
X148354834Y-73642456D01*
X148412103Y-73767856D01*
X148414623Y-73773373D01*
X148508872Y-73882143D01*
X148629947Y-73959953D01*
X148629950Y-73959954D01*
X148629949Y-73959954D01*
X148737107Y-73991417D01*
X148766336Y-74000000D01*
X148768036Y-74000499D01*
X148768038Y-74000500D01*
X148768039Y-74000500D01*
X148911962Y-74000500D01*
X148911962Y-74000499D01*
X149050053Y-73959953D01*
X149171128Y-73882143D01*
X149265377Y-73773373D01*
X149325165Y-73642457D01*
X149345647Y-73500000D01*
X149342264Y-73476471D01*
X150784353Y-73476471D01*
X150804834Y-73618927D01*
X150854020Y-73726627D01*
X150864623Y-73749844D01*
X150958872Y-73858614D01*
X151079947Y-73936424D01*
X151079950Y-73936425D01*
X151079949Y-73936425D01*
X151218036Y-73976970D01*
X151218038Y-73976971D01*
X151218039Y-73976971D01*
X151361962Y-73976971D01*
X151361962Y-73976970D01*
X151500053Y-73936424D01*
X151621128Y-73858614D01*
X151715377Y-73749844D01*
X151775165Y-73618928D01*
X151792264Y-73500000D01*
X159084353Y-73500000D01*
X159104834Y-73642456D01*
X159162103Y-73767856D01*
X159164623Y-73773373D01*
X159258872Y-73882143D01*
X159379947Y-73959953D01*
X159379950Y-73959954D01*
X159379949Y-73959954D01*
X159487107Y-73991417D01*
X159516336Y-74000000D01*
X159518036Y-74000499D01*
X159518038Y-74000500D01*
X159518039Y-74000500D01*
X159661962Y-74000500D01*
X159661962Y-74000499D01*
X159800053Y-73959953D01*
X159921128Y-73882143D01*
X160015377Y-73773373D01*
X160075165Y-73642457D01*
X160095647Y-73500000D01*
X160075165Y-73357543D01*
X160015377Y-73226627D01*
X159921128Y-73117857D01*
X159800053Y-73040047D01*
X159800051Y-73040046D01*
X159800049Y-73040045D01*
X159800050Y-73040045D01*
X159661963Y-72999500D01*
X159661961Y-72999500D01*
X159518039Y-72999500D01*
X159518036Y-72999500D01*
X159379949Y-73040045D01*
X159258873Y-73117856D01*
X159164623Y-73226626D01*
X159164622Y-73226628D01*
X159104834Y-73357543D01*
X159084353Y-73500000D01*
X151792264Y-73500000D01*
X151795647Y-73476471D01*
X151775165Y-73334014D01*
X151715377Y-73203098D01*
X151621128Y-73094328D01*
X151500053Y-73016518D01*
X151500051Y-73016517D01*
X151500049Y-73016516D01*
X151500050Y-73016516D01*
X151361963Y-72975971D01*
X151361961Y-72975971D01*
X151218039Y-72975971D01*
X151218036Y-72975971D01*
X151079949Y-73016516D01*
X150958873Y-73094327D01*
X150864623Y-73203097D01*
X150864622Y-73203099D01*
X150804834Y-73334014D01*
X150784353Y-73476471D01*
X149342264Y-73476471D01*
X149325165Y-73357543D01*
X149265377Y-73226627D01*
X149171128Y-73117857D01*
X149050053Y-73040047D01*
X149050051Y-73040046D01*
X149050049Y-73040045D01*
X149050050Y-73040045D01*
X148911963Y-72999500D01*
X148911961Y-72999500D01*
X148768039Y-72999500D01*
X148768036Y-72999500D01*
X148629949Y-73040045D01*
X148508873Y-73117856D01*
X148414623Y-73226626D01*
X148414622Y-73226628D01*
X148354834Y-73357543D01*
X148334353Y-73500000D01*
X140663666Y-73500000D01*
X140661963Y-73499500D01*
X140661961Y-73499500D01*
X140518039Y-73499500D01*
X140518036Y-73499500D01*
X140379949Y-73540045D01*
X140258873Y-73617856D01*
X140164623Y-73726626D01*
X140164622Y-73726628D01*
X140104834Y-73857543D01*
X140084353Y-74000000D01*
X135590500Y-74000000D01*
X135590500Y-71500000D01*
X135984592Y-71500000D01*
X136004201Y-71786680D01*
X136004201Y-71786684D01*
X136004202Y-71786686D01*
X136013648Y-71832143D01*
X136062666Y-72068034D01*
X136062667Y-72068037D01*
X136158894Y-72338793D01*
X136158893Y-72338793D01*
X136291098Y-72593935D01*
X136456812Y-72828700D01*
X136529716Y-72906760D01*
X136652947Y-73038708D01*
X136875853Y-73220055D01*
X137101941Y-73357543D01*
X137121382Y-73369365D01*
X137308237Y-73450526D01*
X137384942Y-73483844D01*
X137661642Y-73561371D01*
X137911920Y-73595771D01*
X137946321Y-73600500D01*
X137946322Y-73600500D01*
X138233679Y-73600500D01*
X138264370Y-73596281D01*
X138518358Y-73561371D01*
X138795058Y-73483844D01*
X138908015Y-73434779D01*
X139058617Y-73369365D01*
X139058620Y-73369363D01*
X139058625Y-73369361D01*
X139304147Y-73220055D01*
X139527053Y-73038708D01*
X139703294Y-72850000D01*
X149584353Y-72850000D01*
X149604834Y-72992456D01*
X149651358Y-73094327D01*
X149664623Y-73123373D01*
X149758872Y-73232143D01*
X149879947Y-73309953D01*
X149879950Y-73309954D01*
X149879949Y-73309954D01*
X150018036Y-73350499D01*
X150018038Y-73350500D01*
X150018039Y-73350500D01*
X150161962Y-73350500D01*
X150161962Y-73350499D01*
X150300053Y-73309953D01*
X150421128Y-73232143D01*
X150515377Y-73123373D01*
X150575165Y-72992457D01*
X150595647Y-72850000D01*
X150581269Y-72749998D01*
X152884318Y-72749998D01*
X152884318Y-72750001D01*
X152904955Y-72906760D01*
X152904956Y-72906762D01*
X152960164Y-73040047D01*
X152965464Y-73052841D01*
X153061718Y-73178282D01*
X153187159Y-73274536D01*
X153333238Y-73335044D01*
X153411619Y-73345363D01*
X153489999Y-73355682D01*
X153490000Y-73355682D01*
X153490001Y-73355682D01*
X153542254Y-73348802D01*
X153646762Y-73335044D01*
X153792841Y-73274536D01*
X153918282Y-73178282D01*
X154014536Y-73052841D01*
X154075044Y-72906762D01*
X154095682Y-72750000D01*
X154086623Y-72681194D01*
X154097388Y-72612162D01*
X154143767Y-72559906D01*
X154193375Y-72542072D01*
X154246762Y-72535044D01*
X154392841Y-72474536D01*
X154518282Y-72378282D01*
X154614536Y-72252841D01*
X154675044Y-72106762D01*
X154695682Y-71950000D01*
X154675044Y-71793238D01*
X154614536Y-71647159D01*
X154518282Y-71521718D01*
X154489978Y-71500000D01*
X158084353Y-71500000D01*
X158104834Y-71642456D01*
X158149402Y-71740045D01*
X158164623Y-71773373D01*
X158258872Y-71882143D01*
X158379947Y-71959953D01*
X158379950Y-71959954D01*
X158379949Y-71959954D01*
X158518036Y-72000499D01*
X158518038Y-72000500D01*
X158518039Y-72000500D01*
X158661962Y-72000500D01*
X158661962Y-72000499D01*
X158800053Y-71959953D01*
X158921128Y-71882143D01*
X159015377Y-71773373D01*
X159075165Y-71642457D01*
X159095647Y-71500000D01*
X159984592Y-71500000D01*
X160004201Y-71786680D01*
X160004201Y-71786684D01*
X160004202Y-71786686D01*
X160013648Y-71832143D01*
X160062666Y-72068034D01*
X160062667Y-72068037D01*
X160158894Y-72338793D01*
X160158893Y-72338793D01*
X160291098Y-72593935D01*
X160456812Y-72828700D01*
X160529716Y-72906760D01*
X160652947Y-73038708D01*
X160875853Y-73220055D01*
X161101941Y-73357543D01*
X161121382Y-73369365D01*
X161308237Y-73450526D01*
X161384942Y-73483844D01*
X161661642Y-73561371D01*
X161911920Y-73595771D01*
X161946321Y-73600500D01*
X161946322Y-73600500D01*
X162233679Y-73600500D01*
X162264370Y-73596281D01*
X162518358Y-73561371D01*
X162795058Y-73483844D01*
X162908015Y-73434779D01*
X163058617Y-73369365D01*
X163058620Y-73369363D01*
X163058625Y-73369361D01*
X163304147Y-73220055D01*
X163527053Y-73038708D01*
X163723189Y-72828698D01*
X163888901Y-72593936D01*
X164021104Y-72338797D01*
X164117334Y-72068032D01*
X164175798Y-71786686D01*
X164195408Y-71500000D01*
X164175798Y-71213314D01*
X164117334Y-70931968D01*
X164103291Y-70892456D01*
X164021105Y-70661206D01*
X164021106Y-70661206D01*
X163888901Y-70406064D01*
X163723187Y-70171299D01*
X163644554Y-70087105D01*
X163527053Y-69961292D01*
X163304147Y-69779945D01*
X163304146Y-69779944D01*
X163058617Y-69630634D01*
X162795063Y-69516158D01*
X162795061Y-69516157D01*
X162795058Y-69516156D01*
X162665578Y-69479877D01*
X162518364Y-69438630D01*
X162518359Y-69438629D01*
X162518358Y-69438629D01*
X162376018Y-69419064D01*
X162233679Y-69399500D01*
X162233678Y-69399500D01*
X161946322Y-69399500D01*
X161946321Y-69399500D01*
X161661642Y-69438629D01*
X161661635Y-69438630D01*
X161453861Y-69496845D01*
X161384942Y-69516156D01*
X161384939Y-69516156D01*
X161384936Y-69516158D01*
X161384935Y-69516158D01*
X161121382Y-69630634D01*
X160875853Y-69779944D01*
X160652950Y-69961289D01*
X160456812Y-70171299D01*
X160291098Y-70406064D01*
X160158894Y-70661206D01*
X160062667Y-70931962D01*
X160062666Y-70931965D01*
X160004201Y-71213319D01*
X159984592Y-71500000D01*
X159095647Y-71500000D01*
X159075165Y-71357543D01*
X159015377Y-71226627D01*
X158921128Y-71117857D01*
X158800053Y-71040047D01*
X158800051Y-71040046D01*
X158800049Y-71040045D01*
X158800050Y-71040045D01*
X158661963Y-70999500D01*
X158661961Y-70999500D01*
X158518039Y-70999500D01*
X158518036Y-70999500D01*
X158379949Y-71040045D01*
X158258873Y-71117856D01*
X158164623Y-71226626D01*
X158164622Y-71226628D01*
X158104834Y-71357543D01*
X158084353Y-71500000D01*
X154489978Y-71500000D01*
X154392841Y-71425464D01*
X154246762Y-71364956D01*
X154246760Y-71364955D01*
X154090001Y-71344318D01*
X154089999Y-71344318D01*
X153933239Y-71364955D01*
X153933237Y-71364956D01*
X153787160Y-71425463D01*
X153661718Y-71521718D01*
X153565463Y-71647160D01*
X153504956Y-71793237D01*
X153504955Y-71793239D01*
X153484318Y-71949998D01*
X153484318Y-71950001D01*
X153493376Y-72018803D01*
X153482610Y-72087838D01*
X153436230Y-72140094D01*
X153386624Y-72157927D01*
X153333238Y-72164956D01*
X153333237Y-72164956D01*
X153187160Y-72225463D01*
X153061718Y-72321718D01*
X152965463Y-72447160D01*
X152904956Y-72593237D01*
X152904955Y-72593239D01*
X152884318Y-72749998D01*
X150581269Y-72749998D01*
X150575165Y-72707543D01*
X150515377Y-72576627D01*
X150421128Y-72467857D01*
X150300053Y-72390047D01*
X150300051Y-72390046D01*
X150300049Y-72390045D01*
X150300050Y-72390045D01*
X150161963Y-72349500D01*
X150161961Y-72349500D01*
X150018039Y-72349500D01*
X150018036Y-72349500D01*
X149879949Y-72390045D01*
X149758873Y-72467856D01*
X149664623Y-72576626D01*
X149664622Y-72576628D01*
X149604834Y-72707543D01*
X149584353Y-72850000D01*
X139703294Y-72850000D01*
X139723189Y-72828698D01*
X139888901Y-72593936D01*
X140021104Y-72338797D01*
X140070433Y-72200000D01*
X146084353Y-72200000D01*
X146104834Y-72342456D01*
X146152651Y-72447159D01*
X146164623Y-72473373D01*
X146258872Y-72582143D01*
X146379947Y-72659953D01*
X146379950Y-72659954D01*
X146379949Y-72659954D01*
X146518036Y-72700499D01*
X146518038Y-72700500D01*
X146518039Y-72700500D01*
X146661962Y-72700500D01*
X146661962Y-72700499D01*
X146800053Y-72659953D01*
X146921128Y-72582143D01*
X147015377Y-72473373D01*
X147075165Y-72342457D01*
X147095647Y-72200000D01*
X147075165Y-72057543D01*
X147015377Y-71926627D01*
X146921128Y-71817857D01*
X146800053Y-71740047D01*
X146800051Y-71740046D01*
X146800049Y-71740045D01*
X146800050Y-71740045D01*
X146661963Y-71699500D01*
X146661961Y-71699500D01*
X146518039Y-71699500D01*
X146518036Y-71699500D01*
X146379949Y-71740045D01*
X146258873Y-71817856D01*
X146164623Y-71926626D01*
X146164622Y-71926628D01*
X146104834Y-72057543D01*
X146084353Y-72200000D01*
X140070433Y-72200000D01*
X140117334Y-72068032D01*
X140175798Y-71786686D01*
X140195408Y-71500000D01*
X141084353Y-71500000D01*
X141104834Y-71642456D01*
X141149402Y-71740045D01*
X141164623Y-71773373D01*
X141258872Y-71882143D01*
X141379947Y-71959953D01*
X141379950Y-71959954D01*
X141379949Y-71959954D01*
X141518036Y-72000499D01*
X141518038Y-72000500D01*
X141518039Y-72000500D01*
X141661962Y-72000500D01*
X141661962Y-72000499D01*
X141800053Y-71959953D01*
X141921128Y-71882143D01*
X142015377Y-71773373D01*
X142075165Y-71642457D01*
X142095647Y-71500000D01*
X142088458Y-71450000D01*
X144684353Y-71450000D01*
X144704834Y-71592456D01*
X144729817Y-71647160D01*
X144764623Y-71723373D01*
X144858872Y-71832143D01*
X144979947Y-71909953D01*
X144979950Y-71909954D01*
X144979949Y-71909954D01*
X145036737Y-71926628D01*
X145116336Y-71950000D01*
X145118036Y-71950499D01*
X145118038Y-71950500D01*
X145118039Y-71950500D01*
X145261962Y-71950500D01*
X145261962Y-71950499D01*
X145400053Y-71909953D01*
X145521128Y-71832143D01*
X145615377Y-71723373D01*
X145675165Y-71592457D01*
X145695647Y-71450000D01*
X145675165Y-71307543D01*
X145615377Y-71176627D01*
X145521128Y-71067857D01*
X145400053Y-70990047D01*
X145400051Y-70990046D01*
X145400049Y-70990045D01*
X145400050Y-70990045D01*
X145261963Y-70949500D01*
X145261961Y-70949500D01*
X145118039Y-70949500D01*
X145118036Y-70949500D01*
X144979949Y-70990045D01*
X144858873Y-71067856D01*
X144764623Y-71176626D01*
X144764622Y-71176628D01*
X144704834Y-71307543D01*
X144684353Y-71450000D01*
X142088458Y-71450000D01*
X142075165Y-71357543D01*
X142015377Y-71226627D01*
X141921128Y-71117857D01*
X141800053Y-71040047D01*
X141800051Y-71040046D01*
X141800049Y-71040045D01*
X141800050Y-71040045D01*
X141661963Y-70999500D01*
X141661961Y-70999500D01*
X141518039Y-70999500D01*
X141518036Y-70999500D01*
X141379949Y-71040045D01*
X141258873Y-71117856D01*
X141164623Y-71226626D01*
X141164622Y-71226628D01*
X141104834Y-71357543D01*
X141084353Y-71500000D01*
X140195408Y-71500000D01*
X140175798Y-71213314D01*
X140117334Y-70931968D01*
X140103291Y-70892456D01*
X140052662Y-70750000D01*
X149084353Y-70750000D01*
X149104834Y-70892456D01*
X149122879Y-70931968D01*
X149164623Y-71023373D01*
X149258872Y-71132143D01*
X149379947Y-71209953D01*
X149379950Y-71209954D01*
X149379949Y-71209954D01*
X149518036Y-71250499D01*
X149518038Y-71250500D01*
X149518039Y-71250500D01*
X149661962Y-71250500D01*
X149661962Y-71250499D01*
X149769121Y-71219035D01*
X149800050Y-71209954D01*
X149800050Y-71209953D01*
X149800053Y-71209953D01*
X149921128Y-71132143D01*
X150015377Y-71023373D01*
X150075165Y-70892457D01*
X150095647Y-70750000D01*
X150075165Y-70607543D01*
X150015377Y-70476627D01*
X149921128Y-70367857D01*
X149800053Y-70290047D01*
X149800051Y-70290046D01*
X149800049Y-70290045D01*
X149800050Y-70290045D01*
X149661963Y-70249500D01*
X149661961Y-70249500D01*
X149518039Y-70249500D01*
X149518036Y-70249500D01*
X149379949Y-70290045D01*
X149258873Y-70367856D01*
X149164623Y-70476626D01*
X149164622Y-70476628D01*
X149104834Y-70607543D01*
X149084353Y-70750000D01*
X140052662Y-70750000D01*
X140021105Y-70661206D01*
X140021106Y-70661206D01*
X139888901Y-70406064D01*
X139723187Y-70171299D01*
X139644554Y-70087105D01*
X139527053Y-69961292D01*
X139304147Y-69779945D01*
X139304146Y-69779944D01*
X139058617Y-69630634D01*
X138795063Y-69516158D01*
X138795061Y-69516157D01*
X138795058Y-69516156D01*
X138665578Y-69479877D01*
X138518364Y-69438630D01*
X138518359Y-69438629D01*
X138518358Y-69438629D01*
X138376018Y-69419064D01*
X138233679Y-69399500D01*
X138233678Y-69399500D01*
X137946322Y-69399500D01*
X137946321Y-69399500D01*
X137661642Y-69438629D01*
X137661635Y-69438630D01*
X137453861Y-69496845D01*
X137384942Y-69516156D01*
X137384939Y-69516156D01*
X137384936Y-69516158D01*
X137384935Y-69516158D01*
X137121382Y-69630634D01*
X136875853Y-69779944D01*
X136652950Y-69961289D01*
X136456812Y-70171299D01*
X136291098Y-70406064D01*
X136158894Y-70661206D01*
X136062667Y-70931962D01*
X136062666Y-70931965D01*
X136004201Y-71213319D01*
X135984592Y-71500000D01*
X135590500Y-71500000D01*
X135590500Y-70001015D01*
X135591097Y-69988861D01*
X135591097Y-69988860D01*
X135608018Y-69817056D01*
X135612757Y-69793232D01*
X135662577Y-69628994D01*
X135671875Y-69606549D01*
X135752775Y-69455195D01*
X135766272Y-69434995D01*
X135875149Y-69302328D01*
X135892328Y-69285149D01*
X136024995Y-69176272D01*
X136045195Y-69162775D01*
X136196549Y-69081875D01*
X136218994Y-69072577D01*
X136383232Y-69022757D01*
X136407056Y-69018018D01*
X136578862Y-69001096D01*
X136591016Y-69000500D01*
X163588984Y-69000500D01*
X163601137Y-69001096D01*
G37*
%TD.AperFunction*%
%TD*%
D12*
X146840000Y-84750000D02*
X153340000Y-84750000D01*
X146840000Y-80250000D02*
X153340000Y-80250000D01*
X146840000Y-84750000D02*
G75*
G02*
X146840000Y-80250000I0J2250000D01*
G01*
X153340000Y-80250000D02*
G75*
G02*
X153340000Y-84750000I0J-2250000D01*
G01*
X135090000Y-68500000D02*
X165090000Y-68500000D01*
X165090000Y-122500000D01*
X135090000Y-122500000D01*
X135090000Y-68500000D01*
X139690000Y-119500000D02*
G75*
G02*
X136490000Y-119500000I-1600000J0D01*
G01*
X136490000Y-119500000D02*
G75*
G02*
X139690000Y-119500000I1600000J0D01*
G01*
X163690000Y-71500000D02*
G75*
G02*
X160490000Y-71500000I-1600000J0D01*
G01*
X160490000Y-71500000D02*
G75*
G02*
X163690000Y-71500000I1600000J0D01*
G01*
X139690000Y-71500000D02*
G75*
G02*
X136490000Y-71500000I-1600000J0D01*
G01*
X136490000Y-71500000D02*
G75*
G02*
X139690000Y-71500000I1600000J0D01*
G01*
X163690000Y-119500000D02*
G75*
G02*
X160490000Y-119500000I-1600000J0D01*
G01*
X160490000Y-119500000D02*
G75*
G02*
X163690000Y-119500000I1600000J0D01*
G01*
M02*
