%TF.GenerationSoftware,KiCad,Pcbnew,8.0.4*%
%TF.CreationDate,2024-11-15T13:14:51-06:00*%
%TF.ProjectId,BM_DepthIMU_v2,424d5f44-6570-4746-9849-4d555f76322e,rev?*%
%TF.SameCoordinates,Original*%
%TF.FileFunction,Copper,L2,Inr*%
%TF.FilePolarity,Positive*%
%FSLAX46Y46*%
G04 Gerber Fmt 4.6, Leading zero omitted, Abs format (unit mm)*
G04 Created by KiCad (PCBNEW 8.0.4) date 2024-11-15 13:14:51*
%MOMM*%
%LPD*%
G01*
G04 APERTURE LIST*
%TA.AperFunction,ComponentPad*%
%ADD10C,1.500000*%
%TD*%
%TA.AperFunction,ViaPad*%
%ADD11C,0.600000*%
%TD*%
%TA.AperFunction,Profile*%
%ADD12C,0.050000*%
%TD*%
G04 APERTURE END LIST*
D10*
%TO.N,EOC*%
%TO.C,U2*%
X152630000Y-114500000D03*
%TO.N,SDA*%
X151885000Y-116295000D03*
%TO.N,+3.3V*%
X150090000Y-117040000D03*
%TO.N,SLC*%
X148295000Y-116295000D03*
%TO.N,GND*%
X147550000Y-114500000D03*
%TD*%
D11*
%TO.N,GND*%
X142590000Y-89750000D03*
X145090000Y-85750000D03*
X148090000Y-86250000D03*
X151340000Y-86250000D03*
X155590000Y-85500000D03*
X156840000Y-82250000D03*
X154840000Y-79250000D03*
X146390000Y-102050000D03*
X153590000Y-95500000D03*
X141540000Y-119500000D03*
X159590000Y-73500000D03*
X159090000Y-95500000D03*
X159590000Y-117000000D03*
X158590000Y-119500000D03*
X152090000Y-94250000D03*
X148840000Y-73500000D03*
X147840000Y-95250000D03*
X159090000Y-88000000D03*
X141090000Y-94500000D03*
X159090000Y-94500000D03*
X146590000Y-72200000D03*
X141090000Y-96500000D03*
X140590000Y-74000000D03*
X151290000Y-73476471D03*
X146340000Y-88250000D03*
X151790000Y-90500000D03*
X159090000Y-96500000D03*
X148990000Y-90500000D03*
X142440000Y-105150000D03*
X149590000Y-70750000D03*
X148590000Y-112000000D03*
X141590000Y-71500000D03*
X148190000Y-90500000D03*
X141090000Y-95500000D03*
X151040000Y-90500000D03*
X159940000Y-105300000D03*
X140590000Y-117000000D03*
X141340000Y-86250000D03*
X158590000Y-71500000D03*
X138090000Y-75000000D03*
X160840000Y-81500000D03*
X150090000Y-72850000D03*
X158340000Y-111250000D03*
X150090000Y-74150000D03*
X141340000Y-82250000D03*
X143090000Y-79000000D03*
X145190000Y-71450000D03*
X155040000Y-76300000D03*
X145640000Y-112300000D03*
X146840000Y-76250000D03*
X154640000Y-101750000D03*
X151590000Y-79000000D03*
%TO.N,+3.3V*%
X155840000Y-74000000D03*
X148789997Y-101050000D03*
X153590000Y-90500000D03*
X148340000Y-70800000D03*
X143905667Y-73289626D03*
X151886321Y-100620210D03*
X152840000Y-90500000D03*
X149340000Y-76750000D03*
%TO.N,SDA*%
X154090000Y-71950000D03*
X150590000Y-100300000D03*
%TO.N,SLC*%
X149590000Y-101050000D03*
X153490000Y-72750000D03*
%TO.N,~{IMU_INT}*%
X151140000Y-96750000D03*
X151840000Y-77000000D03*
%TD*%
%TA.AperFunction,Conductor*%
%TO.N,GND*%
G36*
X163601137Y-69001096D02*
G01*
X163772941Y-69018018D01*
X163796769Y-69022757D01*
X163961001Y-69072576D01*
X163983453Y-69081877D01*
X164134798Y-69162772D01*
X164155010Y-69176277D01*
X164287666Y-69285145D01*
X164304854Y-69302333D01*
X164413722Y-69434989D01*
X164427227Y-69455201D01*
X164508121Y-69606543D01*
X164517424Y-69629001D01*
X164567240Y-69793224D01*
X164571982Y-69817064D01*
X164586663Y-69966123D01*
X164588903Y-69988860D01*
X164589500Y-70001015D01*
X164589500Y-120998983D01*
X164588903Y-121011137D01*
X164571982Y-121182934D01*
X164567240Y-121206775D01*
X164517424Y-121370998D01*
X164508121Y-121393456D01*
X164427227Y-121544798D01*
X164413722Y-121565010D01*
X164304854Y-121697666D01*
X164287666Y-121714854D01*
X164155010Y-121823722D01*
X164134798Y-121837227D01*
X163983456Y-121918121D01*
X163960998Y-121927424D01*
X163796775Y-121977240D01*
X163772935Y-121981982D01*
X163667046Y-121992411D01*
X163601136Y-121998903D01*
X163588984Y-121999500D01*
X136591016Y-121999500D01*
X136578862Y-121998903D01*
X136407065Y-121981982D01*
X136383224Y-121977240D01*
X136219001Y-121927424D01*
X136196543Y-121918121D01*
X136045201Y-121837227D01*
X136024989Y-121823722D01*
X135892333Y-121714854D01*
X135875145Y-121697666D01*
X135766277Y-121565010D01*
X135752772Y-121544798D01*
X135671878Y-121393456D01*
X135662575Y-121370998D01*
X135662080Y-121369365D01*
X135612757Y-121206769D01*
X135608018Y-121182941D01*
X135591097Y-121011137D01*
X135590500Y-120998983D01*
X135590500Y-119500000D01*
X135984592Y-119500000D01*
X136004201Y-119786680D01*
X136062666Y-120068034D01*
X136062667Y-120068037D01*
X136158894Y-120338793D01*
X136158893Y-120338793D01*
X136291098Y-120593935D01*
X136456812Y-120828700D01*
X136541923Y-120919831D01*
X136652947Y-121038708D01*
X136830225Y-121182934D01*
X136875853Y-121220055D01*
X137121382Y-121369365D01*
X137308237Y-121450526D01*
X137384942Y-121483844D01*
X137661642Y-121561371D01*
X137911920Y-121595771D01*
X137946321Y-121600500D01*
X137946322Y-121600500D01*
X138233679Y-121600500D01*
X138264370Y-121596281D01*
X138518358Y-121561371D01*
X138795058Y-121483844D01*
X139003153Y-121393456D01*
X139058617Y-121369365D01*
X139058620Y-121369363D01*
X139058625Y-121369361D01*
X139304147Y-121220055D01*
X139527053Y-121038708D01*
X139723189Y-120828698D01*
X139888901Y-120593936D01*
X140021104Y-120338797D01*
X140117334Y-120068032D01*
X140175798Y-119786686D01*
X140195408Y-119500000D01*
X159984592Y-119500000D01*
X160004201Y-119786680D01*
X160062666Y-120068034D01*
X160062667Y-120068037D01*
X160158894Y-120338793D01*
X160158893Y-120338793D01*
X160291098Y-120593935D01*
X160456812Y-120828700D01*
X160541923Y-120919831D01*
X160652947Y-121038708D01*
X160830225Y-121182934D01*
X160875853Y-121220055D01*
X161121382Y-121369365D01*
X161308237Y-121450526D01*
X161384942Y-121483844D01*
X161661642Y-121561371D01*
X161911920Y-121595771D01*
X161946321Y-121600500D01*
X161946322Y-121600500D01*
X162233679Y-121600500D01*
X162264370Y-121596281D01*
X162518358Y-121561371D01*
X162795058Y-121483844D01*
X163003153Y-121393456D01*
X163058617Y-121369365D01*
X163058620Y-121369363D01*
X163058625Y-121369361D01*
X163304147Y-121220055D01*
X163527053Y-121038708D01*
X163723189Y-120828698D01*
X163888901Y-120593936D01*
X164021104Y-120338797D01*
X164117334Y-120068032D01*
X164175798Y-119786686D01*
X164195408Y-119500000D01*
X164175798Y-119213314D01*
X164117334Y-118931968D01*
X164021105Y-118661206D01*
X164021106Y-118661206D01*
X163888901Y-118406064D01*
X163723187Y-118171299D01*
X163644554Y-118087105D01*
X163527053Y-117961292D01*
X163304147Y-117779945D01*
X163304146Y-117779944D01*
X163058617Y-117630634D01*
X162795063Y-117516158D01*
X162795061Y-117516157D01*
X162795058Y-117516156D01*
X162665578Y-117479877D01*
X162518364Y-117438630D01*
X162518359Y-117438629D01*
X162518358Y-117438629D01*
X162376018Y-117419064D01*
X162233679Y-117399500D01*
X162233678Y-117399500D01*
X161946322Y-117399500D01*
X161946321Y-117399500D01*
X161661642Y-117438629D01*
X161661635Y-117438630D01*
X161453861Y-117496845D01*
X161384942Y-117516156D01*
X161384939Y-117516156D01*
X161384936Y-117516158D01*
X161384935Y-117516158D01*
X161121382Y-117630634D01*
X160875853Y-117779944D01*
X160652950Y-117961289D01*
X160456812Y-118171299D01*
X160291098Y-118406064D01*
X160158894Y-118661206D01*
X160062667Y-118931962D01*
X160062666Y-118931965D01*
X160004201Y-119213319D01*
X159984592Y-119500000D01*
X140195408Y-119500000D01*
X140175798Y-119213314D01*
X140117334Y-118931968D01*
X140021105Y-118661206D01*
X140021106Y-118661206D01*
X139888901Y-118406064D01*
X139723187Y-118171299D01*
X139644554Y-118087105D01*
X139527053Y-117961292D01*
X139304147Y-117779945D01*
X139304146Y-117779944D01*
X139058617Y-117630634D01*
X138795063Y-117516158D01*
X138795061Y-117516157D01*
X138795058Y-117516156D01*
X138665578Y-117479877D01*
X138518364Y-117438630D01*
X138518359Y-117438629D01*
X138518358Y-117438629D01*
X138376018Y-117419064D01*
X138233679Y-117399500D01*
X138233678Y-117399500D01*
X137946322Y-117399500D01*
X137946321Y-117399500D01*
X137661642Y-117438629D01*
X137661635Y-117438630D01*
X137453861Y-117496845D01*
X137384942Y-117516156D01*
X137384939Y-117516156D01*
X137384936Y-117516158D01*
X137384935Y-117516158D01*
X137121382Y-117630634D01*
X136875853Y-117779944D01*
X136652950Y-117961289D01*
X136456812Y-118171299D01*
X136291098Y-118406064D01*
X136158894Y-118661206D01*
X136062667Y-118931962D01*
X136062666Y-118931965D01*
X136004201Y-119213319D01*
X135984592Y-119500000D01*
X135590500Y-119500000D01*
X135590500Y-115543124D01*
X146860427Y-115543124D01*
X146922612Y-115586666D01*
X147120840Y-115679101D01*
X147120849Y-115679105D01*
X147243024Y-115711841D01*
X147302684Y-115748205D01*
X147333214Y-115811052D01*
X147324920Y-115880428D01*
X147320294Y-115890061D01*
X147319770Y-115891040D01*
X147319770Y-115891041D01*
X147259699Y-116089067D01*
X147239417Y-116295000D01*
X147259699Y-116500932D01*
X147259700Y-116500934D01*
X147319768Y-116698954D01*
X147417315Y-116881450D01*
X147451969Y-116923677D01*
X147548589Y-117041410D01*
X147622378Y-117101966D01*
X147708550Y-117172685D01*
X147891046Y-117270232D01*
X148089066Y-117330300D01*
X148089065Y-117330300D01*
X148107529Y-117332118D01*
X148295000Y-117350583D01*
X148500934Y-117330300D01*
X148698954Y-117270232D01*
X148881450Y-117172685D01*
X148948708Y-117117487D01*
X149013018Y-117090175D01*
X149081886Y-117101966D01*
X149133446Y-117149118D01*
X149150776Y-117201185D01*
X149153253Y-117226332D01*
X149153253Y-117226333D01*
X149207604Y-117405502D01*
X149295862Y-117570623D01*
X149295864Y-117570626D01*
X149414642Y-117715357D01*
X149559373Y-117834135D01*
X149559376Y-117834137D01*
X149724497Y-117922395D01*
X149724499Y-117922396D01*
X149903666Y-117976746D01*
X149903668Y-117976747D01*
X149920374Y-117978392D01*
X150090000Y-117995099D01*
X150276331Y-117976747D01*
X150455501Y-117922396D01*
X150620625Y-117834136D01*
X150765357Y-117715357D01*
X150884136Y-117570625D01*
X150972396Y-117405501D01*
X151026747Y-117226331D01*
X151029223Y-117201188D01*
X151055382Y-117136402D01*
X151112416Y-117096042D01*
X151182216Y-117092923D01*
X151231290Y-117117487D01*
X151254339Y-117136402D01*
X151298550Y-117172685D01*
X151481046Y-117270232D01*
X151679066Y-117330300D01*
X151679065Y-117330300D01*
X151697529Y-117332118D01*
X151885000Y-117350583D01*
X152090934Y-117330300D01*
X152288954Y-117270232D01*
X152471450Y-117172685D01*
X152631410Y-117041410D01*
X152762685Y-116881450D01*
X152860232Y-116698954D01*
X152920300Y-116500934D01*
X152940583Y-116295000D01*
X152920300Y-116089066D01*
X152860232Y-115891046D01*
X152762685Y-115708550D01*
X152734819Y-115674595D01*
X152707487Y-115641290D01*
X152680175Y-115576980D01*
X152691966Y-115508113D01*
X152739119Y-115456553D01*
X152791187Y-115439223D01*
X152816331Y-115436747D01*
X152995501Y-115382396D01*
X153160625Y-115294136D01*
X153305357Y-115175357D01*
X153424136Y-115030625D01*
X153512396Y-114865501D01*
X153566747Y-114686331D01*
X153585099Y-114500000D01*
X153566747Y-114313669D01*
X153512396Y-114134499D01*
X153424136Y-113969375D01*
X153424135Y-113969373D01*
X153305357Y-113824642D01*
X153160626Y-113705864D01*
X153160623Y-113705862D01*
X152995502Y-113617604D01*
X152816333Y-113563253D01*
X152816331Y-113563252D01*
X152630000Y-113544901D01*
X152443668Y-113563252D01*
X152443666Y-113563253D01*
X152264497Y-113617604D01*
X152099376Y-113705862D01*
X152099373Y-113705864D01*
X151954642Y-113824642D01*
X151835864Y-113969373D01*
X151835862Y-113969376D01*
X151747604Y-114134497D01*
X151693253Y-114313666D01*
X151693252Y-114313668D01*
X151674901Y-114500000D01*
X151693252Y-114686331D01*
X151693253Y-114686333D01*
X151747604Y-114865502D01*
X151835862Y-115030623D01*
X151835865Y-115030627D01*
X151850902Y-115048949D01*
X151878216Y-115113259D01*
X151866426Y-115182126D01*
X151819274Y-115233687D01*
X151767205Y-115251018D01*
X151679067Y-115259699D01*
X151481043Y-115319769D01*
X151370898Y-115378643D01*
X151298550Y-115417315D01*
X151298548Y-115417316D01*
X151298547Y-115417317D01*
X151138589Y-115548589D01*
X151007317Y-115708547D01*
X150909769Y-115891043D01*
X150849699Y-116089067D01*
X150841018Y-116177205D01*
X150814856Y-116241992D01*
X150757821Y-116282351D01*
X150688021Y-116285467D01*
X150638949Y-116260902D01*
X150620627Y-116245865D01*
X150620623Y-116245862D01*
X150455502Y-116157604D01*
X150276333Y-116103253D01*
X150276331Y-116103252D01*
X150090000Y-116084901D01*
X149903668Y-116103252D01*
X149903666Y-116103253D01*
X149724497Y-116157604D01*
X149559376Y-116245862D01*
X149559374Y-116245864D01*
X149541048Y-116260904D01*
X149476738Y-116288216D01*
X149407870Y-116276424D01*
X149356311Y-116229272D01*
X149338981Y-116177204D01*
X149330300Y-116089067D01*
X149330300Y-116089066D01*
X149270232Y-115891046D01*
X149172685Y-115708550D01*
X149120702Y-115645209D01*
X149041410Y-115548589D01*
X148923677Y-115451969D01*
X148881450Y-115417315D01*
X148698954Y-115319768D01*
X148698953Y-115319767D01*
X148698948Y-115319765D01*
X148693330Y-115317438D01*
X148693910Y-115316036D01*
X148641725Y-115281832D01*
X148613273Y-115218018D01*
X148623839Y-115148952D01*
X148634598Y-115130342D01*
X148636666Y-115127389D01*
X148636666Y-115127388D01*
X148729101Y-114929159D01*
X148729105Y-114929150D01*
X148785710Y-114717894D01*
X148785712Y-114717884D01*
X148804775Y-114500000D01*
X148804775Y-114499999D01*
X148785712Y-114282115D01*
X148785710Y-114282105D01*
X148729105Y-114070849D01*
X148729101Y-114070840D01*
X148636667Y-113872614D01*
X148636666Y-113872612D01*
X148593124Y-113810428D01*
X148593124Y-113810427D01*
X147844855Y-114558697D01*
X147850000Y-114539496D01*
X147850000Y-114460504D01*
X147829556Y-114384204D01*
X147790060Y-114315795D01*
X147734205Y-114259940D01*
X147665796Y-114220444D01*
X147589496Y-114200000D01*
X147510504Y-114200000D01*
X147434204Y-114220444D01*
X147365795Y-114259940D01*
X147309940Y-114315795D01*
X147270444Y-114384204D01*
X147250000Y-114460504D01*
X147250000Y-114539496D01*
X147270444Y-114615796D01*
X147309940Y-114684205D01*
X147365795Y-114740060D01*
X147434204Y-114779556D01*
X147510504Y-114800000D01*
X147589496Y-114800000D01*
X147608697Y-114794855D01*
X147550000Y-114853553D01*
X146860427Y-115543124D01*
X135590500Y-115543124D01*
X135590500Y-114499999D01*
X146295225Y-114499999D01*
X146295225Y-114500000D01*
X146314287Y-114717884D01*
X146314289Y-114717894D01*
X146370894Y-114929150D01*
X146370898Y-114929159D01*
X146463333Y-115127387D01*
X146506874Y-115189571D01*
X147196446Y-114500000D01*
X146506874Y-113810428D01*
X146463333Y-113872613D01*
X146370898Y-114070840D01*
X146370894Y-114070849D01*
X146314289Y-114282105D01*
X146314287Y-114282115D01*
X146295225Y-114499999D01*
X135590500Y-114499999D01*
X135590500Y-113456874D01*
X146860428Y-113456874D01*
X147550000Y-114146446D01*
X147550001Y-114146446D01*
X148239571Y-113456874D01*
X148177387Y-113413333D01*
X147979159Y-113320898D01*
X147979150Y-113320894D01*
X147767894Y-113264289D01*
X147767884Y-113264287D01*
X147550001Y-113245225D01*
X147549999Y-113245225D01*
X147332115Y-113264287D01*
X147332105Y-113264289D01*
X147120849Y-113320894D01*
X147120840Y-113320898D01*
X146922613Y-113413333D01*
X146860428Y-113456874D01*
X135590500Y-113456874D01*
X135590500Y-101050000D01*
X148284350Y-101050000D01*
X148304831Y-101192456D01*
X148364619Y-101323371D01*
X148364620Y-101323373D01*
X148458869Y-101432143D01*
X148579944Y-101509953D01*
X148579947Y-101509954D01*
X148579946Y-101509954D01*
X148718033Y-101550499D01*
X148718035Y-101550500D01*
X148718036Y-101550500D01*
X148861959Y-101550500D01*
X148861959Y-101550499D01*
X149000050Y-101509953D01*
X149037142Y-101486115D01*
X149104179Y-101466430D01*
X149171219Y-101486113D01*
X149179660Y-101492049D01*
X149202993Y-101509953D01*
X149287157Y-101574535D01*
X149287158Y-101574535D01*
X149287159Y-101574536D01*
X149433238Y-101635044D01*
X149511619Y-101645363D01*
X149589999Y-101655682D01*
X149590000Y-101655682D01*
X149590001Y-101655682D01*
X149642254Y-101648802D01*
X149746762Y-101635044D01*
X149892841Y-101574536D01*
X150018282Y-101478282D01*
X150114536Y-101352841D01*
X150175044Y-101206762D01*
X150195682Y-101050000D01*
X150187044Y-100984389D01*
X150197809Y-100915357D01*
X150244189Y-100863101D01*
X150311458Y-100844215D01*
X150357432Y-100853644D01*
X150433238Y-100885044D01*
X150511619Y-100895363D01*
X150589999Y-100905682D01*
X150590000Y-100905682D01*
X150590001Y-100905682D01*
X150642254Y-100898802D01*
X150746762Y-100885044D01*
X150892841Y-100824536D01*
X151018282Y-100728282D01*
X151114536Y-100602841D01*
X151148196Y-100521577D01*
X151173883Y-100489701D01*
X151351460Y-100489701D01*
X151373641Y-100513525D01*
X151386047Y-100582284D01*
X151385495Y-100586676D01*
X151380674Y-100620209D01*
X151401155Y-100762666D01*
X151447023Y-100863101D01*
X151460944Y-100893583D01*
X151555193Y-101002353D01*
X151676268Y-101080163D01*
X151676271Y-101080164D01*
X151676270Y-101080164D01*
X151814357Y-101120709D01*
X151814359Y-101120710D01*
X151814360Y-101120710D01*
X151958283Y-101120710D01*
X151958283Y-101120709D01*
X152096374Y-101080163D01*
X152217449Y-101002353D01*
X152311698Y-100893583D01*
X152371486Y-100762667D01*
X152391968Y-100620210D01*
X152371486Y-100477753D01*
X152311698Y-100346837D01*
X152217449Y-100238067D01*
X152096374Y-100160257D01*
X152096372Y-100160256D01*
X152096370Y-100160255D01*
X152096371Y-100160255D01*
X151958284Y-100119710D01*
X151958282Y-100119710D01*
X151814360Y-100119710D01*
X151814357Y-100119710D01*
X151676270Y-100160255D01*
X151555194Y-100238066D01*
X151460944Y-100346836D01*
X151423313Y-100429236D01*
X151377557Y-100482039D01*
X151351460Y-100489701D01*
X151173883Y-100489701D01*
X151192036Y-100467174D01*
X151221967Y-100457211D01*
X151197724Y-100429233D01*
X151187580Y-100361538D01*
X151195682Y-100300000D01*
X151187528Y-100238067D01*
X151181923Y-100195492D01*
X151175044Y-100143238D01*
X151114536Y-99997159D01*
X151018282Y-99871718D01*
X150892841Y-99775464D01*
X150746762Y-99714956D01*
X150746760Y-99714955D01*
X150590001Y-99694318D01*
X150589999Y-99694318D01*
X150433239Y-99714955D01*
X150433237Y-99714956D01*
X150287160Y-99775463D01*
X150161718Y-99871718D01*
X150065463Y-99997160D01*
X150004956Y-100143237D01*
X150004955Y-100143239D01*
X149984318Y-100299998D01*
X149984318Y-100300001D01*
X149992955Y-100365608D01*
X149982189Y-100434644D01*
X149935809Y-100486899D01*
X149868540Y-100505784D01*
X149822563Y-100496354D01*
X149806501Y-100489701D01*
X149746762Y-100464956D01*
X149746760Y-100464955D01*
X149590001Y-100444318D01*
X149589999Y-100444318D01*
X149433239Y-100464955D01*
X149433237Y-100464956D01*
X149287157Y-100525464D01*
X149179667Y-100607945D01*
X149114498Y-100633139D01*
X149046053Y-100619101D01*
X149037141Y-100613884D01*
X149000048Y-100590045D01*
X148861960Y-100549500D01*
X148861958Y-100549500D01*
X148718036Y-100549500D01*
X148718033Y-100549500D01*
X148579946Y-100590045D01*
X148458870Y-100667856D01*
X148364620Y-100776626D01*
X148364619Y-100776628D01*
X148304831Y-100907543D01*
X148284350Y-101050000D01*
X135590500Y-101050000D01*
X135590500Y-96750000D01*
X150634353Y-96750000D01*
X150654834Y-96892456D01*
X150714622Y-97023371D01*
X150714623Y-97023373D01*
X150808872Y-97132143D01*
X150929947Y-97209953D01*
X150929950Y-97209954D01*
X150929949Y-97209954D01*
X151068036Y-97250499D01*
X151068038Y-97250500D01*
X151068039Y-97250500D01*
X151211962Y-97250500D01*
X151211962Y-97250499D01*
X151350053Y-97209953D01*
X151471128Y-97132143D01*
X151565377Y-97023373D01*
X151625165Y-96892457D01*
X151645647Y-96750000D01*
X151625165Y-96607543D01*
X151565377Y-96476627D01*
X151471128Y-96367857D01*
X151350053Y-96290047D01*
X151350051Y-96290046D01*
X151350049Y-96290045D01*
X151350050Y-96290045D01*
X151211963Y-96249500D01*
X151211961Y-96249500D01*
X151068039Y-96249500D01*
X151068036Y-96249500D01*
X150929949Y-96290045D01*
X150808873Y-96367856D01*
X150714623Y-96476626D01*
X150714622Y-96476628D01*
X150654834Y-96607543D01*
X150634353Y-96750000D01*
X135590500Y-96750000D01*
X135590500Y-93524234D01*
X144764500Y-93524234D01*
X144764500Y-93675765D01*
X144803719Y-93822136D01*
X144841602Y-93887750D01*
X144879485Y-93953365D01*
X144986635Y-94060515D01*
X145117865Y-94136281D01*
X145264234Y-94175500D01*
X145264236Y-94175500D01*
X145415764Y-94175500D01*
X145415766Y-94175500D01*
X145562135Y-94136281D01*
X145693365Y-94060515D01*
X145800515Y-93953365D01*
X145876281Y-93822135D01*
X145915500Y-93675766D01*
X145915500Y-93524234D01*
X154264500Y-93524234D01*
X154264500Y-93675765D01*
X154303719Y-93822136D01*
X154341602Y-93887750D01*
X154379485Y-93953365D01*
X154486635Y-94060515D01*
X154617865Y-94136281D01*
X154764234Y-94175500D01*
X154764236Y-94175500D01*
X154915764Y-94175500D01*
X154915766Y-94175500D01*
X155062135Y-94136281D01*
X155193365Y-94060515D01*
X155300515Y-93953365D01*
X155376281Y-93822135D01*
X155415500Y-93675766D01*
X155415500Y-93524234D01*
X155376281Y-93377865D01*
X155300515Y-93246635D01*
X155193365Y-93139485D01*
X155127750Y-93101602D01*
X155062136Y-93063719D01*
X154988950Y-93044109D01*
X154915766Y-93024500D01*
X154764234Y-93024500D01*
X154617863Y-93063719D01*
X154486635Y-93139485D01*
X154486632Y-93139487D01*
X154379487Y-93246632D01*
X154379485Y-93246635D01*
X154303719Y-93377863D01*
X154264500Y-93524234D01*
X145915500Y-93524234D01*
X145876281Y-93377865D01*
X145800515Y-93246635D01*
X145693365Y-93139485D01*
X145627750Y-93101602D01*
X145562136Y-93063719D01*
X145488950Y-93044109D01*
X145415766Y-93024500D01*
X145264234Y-93024500D01*
X145117863Y-93063719D01*
X144986635Y-93139485D01*
X144986632Y-93139487D01*
X144879487Y-93246632D01*
X144879485Y-93246635D01*
X144803719Y-93377863D01*
X144764500Y-93524234D01*
X135590500Y-93524234D01*
X135590500Y-90500000D01*
X152334353Y-90500000D01*
X152354834Y-90642456D01*
X152414622Y-90773371D01*
X152414623Y-90773373D01*
X152508872Y-90882143D01*
X152629947Y-90959953D01*
X152629950Y-90959954D01*
X152629949Y-90959954D01*
X152768036Y-91000499D01*
X152768038Y-91000500D01*
X152768039Y-91000500D01*
X152911962Y-91000500D01*
X152911962Y-91000499D01*
X153050053Y-90959953D01*
X153147960Y-90897031D01*
X153215000Y-90877347D01*
X153282039Y-90897032D01*
X153282040Y-90897032D01*
X153379947Y-90959953D01*
X153379948Y-90959953D01*
X153379949Y-90959954D01*
X153518036Y-91000499D01*
X153518038Y-91000500D01*
X153518039Y-91000500D01*
X153661962Y-91000500D01*
X153661962Y-91000499D01*
X153800053Y-90959953D01*
X153921128Y-90882143D01*
X154015377Y-90773373D01*
X154075165Y-90642457D01*
X154095647Y-90500000D01*
X154075165Y-90357543D01*
X154015377Y-90226627D01*
X153921128Y-90117857D01*
X153800053Y-90040047D01*
X153800051Y-90040046D01*
X153800049Y-90040045D01*
X153800050Y-90040045D01*
X153661963Y-89999500D01*
X153661961Y-89999500D01*
X153518039Y-89999500D01*
X153518036Y-89999500D01*
X153379949Y-90040045D01*
X153282039Y-90102968D01*
X153214999Y-90122652D01*
X153147961Y-90102968D01*
X153050050Y-90040045D01*
X152911963Y-89999500D01*
X152911961Y-89999500D01*
X152768039Y-89999500D01*
X152768036Y-89999500D01*
X152629949Y-90040045D01*
X152508873Y-90117856D01*
X152414623Y-90226626D01*
X152414622Y-90226628D01*
X152354834Y-90357543D01*
X152334353Y-90500000D01*
X135590500Y-90500000D01*
X135590500Y-82499996D01*
X144084839Y-82499996D01*
X144084839Y-82500003D01*
X144103468Y-82819855D01*
X144103469Y-82819863D01*
X144159101Y-83135369D01*
X144159104Y-83135380D01*
X144250995Y-83442320D01*
X144377894Y-83736505D01*
X144377900Y-83736518D01*
X144538097Y-84013987D01*
X144729420Y-84270979D01*
X144729425Y-84270985D01*
X144842978Y-84391343D01*
X144949294Y-84504031D01*
X144949300Y-84504036D01*
X144949302Y-84504038D01*
X145194724Y-84709973D01*
X145194727Y-84709975D01*
X145194732Y-84709979D01*
X145462420Y-84886039D01*
X145748736Y-85029833D01*
X146049811Y-85139415D01*
X146049817Y-85139416D01*
X146049819Y-85139417D01*
X146361555Y-85213301D01*
X146361562Y-85213302D01*
X146361571Y-85213304D01*
X146679802Y-85250500D01*
X146679809Y-85250500D01*
X153500191Y-85250500D01*
X153500198Y-85250500D01*
X153818429Y-85213304D01*
X153818438Y-85213301D01*
X153818444Y-85213301D01*
X154069905Y-85153702D01*
X154130189Y-85139415D01*
X154431264Y-85029833D01*
X154717580Y-84886039D01*
X154985268Y-84709979D01*
X155230706Y-84504031D01*
X155450576Y-84270983D01*
X155641903Y-84013986D01*
X155802102Y-83736514D01*
X155929004Y-83442321D01*
X156020895Y-83135384D01*
X156076532Y-82819855D01*
X156095161Y-82500000D01*
X156076532Y-82180145D01*
X156046021Y-82007109D01*
X156020898Y-81864630D01*
X156020896Y-81864624D01*
X156020895Y-81864616D01*
X155929004Y-81557679D01*
X155802102Y-81263486D01*
X155641903Y-80986014D01*
X155584270Y-80908599D01*
X155450579Y-80729020D01*
X155450574Y-80729014D01*
X155344260Y-80616329D01*
X155230706Y-80495969D01*
X155230699Y-80495963D01*
X155230697Y-80495961D01*
X154985271Y-80290023D01*
X154985268Y-80290021D01*
X154717581Y-80113961D01*
X154712729Y-80111524D01*
X154431271Y-79970170D01*
X154431265Y-79970167D01*
X154130201Y-79860589D01*
X154130180Y-79860582D01*
X153818444Y-79786698D01*
X153818429Y-79786696D01*
X153500198Y-79749500D01*
X153405892Y-79749500D01*
X146905892Y-79749500D01*
X146840000Y-79749500D01*
X146679802Y-79749500D01*
X146401349Y-79782046D01*
X146361570Y-79786696D01*
X146361555Y-79786698D01*
X146049819Y-79860582D01*
X146049798Y-79860589D01*
X145748735Y-79970167D01*
X145467401Y-80111459D01*
X145462420Y-80113961D01*
X145273206Y-80238408D01*
X145194724Y-80290026D01*
X144949302Y-80495961D01*
X144949292Y-80495971D01*
X144729425Y-80729014D01*
X144729420Y-80729020D01*
X144538097Y-80986012D01*
X144377900Y-81263481D01*
X144377894Y-81263494D01*
X144250995Y-81557679D01*
X144159104Y-81864619D01*
X144159101Y-81864630D01*
X144103469Y-82180136D01*
X144103468Y-82180144D01*
X144084839Y-82499996D01*
X135590500Y-82499996D01*
X135590500Y-76750000D01*
X148834353Y-76750000D01*
X148854834Y-76892456D01*
X148903949Y-77000000D01*
X148914623Y-77023373D01*
X149008872Y-77132143D01*
X149129947Y-77209953D01*
X149129950Y-77209954D01*
X149129949Y-77209954D01*
X149268036Y-77250499D01*
X149268038Y-77250500D01*
X149268039Y-77250500D01*
X149411962Y-77250500D01*
X149411962Y-77250499D01*
X149550053Y-77209953D01*
X149671128Y-77132143D01*
X149765377Y-77023373D01*
X149776051Y-77000000D01*
X151334353Y-77000000D01*
X151354834Y-77142456D01*
X151385660Y-77209954D01*
X151414623Y-77273373D01*
X151508872Y-77382143D01*
X151629947Y-77459953D01*
X151629950Y-77459954D01*
X151629949Y-77459954D01*
X151768036Y-77500499D01*
X151768038Y-77500500D01*
X151768039Y-77500500D01*
X151911962Y-77500500D01*
X151911962Y-77500499D01*
X152050053Y-77459953D01*
X152171128Y-77382143D01*
X152265377Y-77273373D01*
X152325165Y-77142457D01*
X152345647Y-77000000D01*
X152325165Y-76857543D01*
X152265377Y-76726627D01*
X152171128Y-76617857D01*
X152050053Y-76540047D01*
X152050051Y-76540046D01*
X152050049Y-76540045D01*
X152050050Y-76540045D01*
X151911963Y-76499500D01*
X151911961Y-76499500D01*
X151768039Y-76499500D01*
X151768036Y-76499500D01*
X151629949Y-76540045D01*
X151508873Y-76617856D01*
X151414623Y-76726626D01*
X151414622Y-76726628D01*
X151354834Y-76857543D01*
X151334353Y-77000000D01*
X149776051Y-77000000D01*
X149825165Y-76892457D01*
X149845647Y-76750000D01*
X149825165Y-76607543D01*
X149765377Y-76476627D01*
X149671128Y-76367857D01*
X149550053Y-76290047D01*
X149550051Y-76290046D01*
X149550049Y-76290045D01*
X149550050Y-76290045D01*
X149411963Y-76249500D01*
X149411961Y-76249500D01*
X149268039Y-76249500D01*
X149268036Y-76249500D01*
X149129949Y-76290045D01*
X149008873Y-76367856D01*
X148914623Y-76476626D01*
X148914622Y-76476628D01*
X148854834Y-76607543D01*
X148834353Y-76750000D01*
X135590500Y-76750000D01*
X135590500Y-74000000D01*
X155334353Y-74000000D01*
X155354834Y-74142456D01*
X155414622Y-74273371D01*
X155414623Y-74273373D01*
X155508872Y-74382143D01*
X155629947Y-74459953D01*
X155629950Y-74459954D01*
X155629949Y-74459954D01*
X155768036Y-74500499D01*
X155768038Y-74500500D01*
X155768039Y-74500500D01*
X155911962Y-74500500D01*
X155911962Y-74500499D01*
X156050053Y-74459953D01*
X156171128Y-74382143D01*
X156265377Y-74273373D01*
X156325165Y-74142457D01*
X156345647Y-74000000D01*
X156325165Y-73857543D01*
X156265377Y-73726627D01*
X156171128Y-73617857D01*
X156050053Y-73540047D01*
X156050051Y-73540046D01*
X156050049Y-73540045D01*
X156050050Y-73540045D01*
X155911963Y-73499500D01*
X155911961Y-73499500D01*
X155768039Y-73499500D01*
X155768036Y-73499500D01*
X155629949Y-73540045D01*
X155508873Y-73617856D01*
X155414623Y-73726626D01*
X155414622Y-73726628D01*
X155354834Y-73857543D01*
X155334353Y-74000000D01*
X135590500Y-74000000D01*
X135590500Y-71500000D01*
X135984592Y-71500000D01*
X136004201Y-71786680D01*
X136004201Y-71786684D01*
X136004202Y-71786686D01*
X136005564Y-71793238D01*
X136062666Y-72068034D01*
X136062667Y-72068037D01*
X136158894Y-72338793D01*
X136158893Y-72338793D01*
X136291098Y-72593935D01*
X136456812Y-72828700D01*
X136529716Y-72906760D01*
X136652947Y-73038708D01*
X136875853Y-73220055D01*
X137064943Y-73335044D01*
X137121382Y-73369365D01*
X137308237Y-73450526D01*
X137384942Y-73483844D01*
X137661642Y-73561371D01*
X137911920Y-73595771D01*
X137946321Y-73600500D01*
X137946322Y-73600500D01*
X138233679Y-73600500D01*
X138264370Y-73596281D01*
X138518358Y-73561371D01*
X138795058Y-73483844D01*
X138914226Y-73432082D01*
X139058617Y-73369365D01*
X139058620Y-73369363D01*
X139058625Y-73369361D01*
X139189743Y-73289626D01*
X143400020Y-73289626D01*
X143420501Y-73432082D01*
X143480289Y-73562997D01*
X143480290Y-73562999D01*
X143574539Y-73671769D01*
X143695614Y-73749579D01*
X143695617Y-73749580D01*
X143695616Y-73749580D01*
X143833703Y-73790125D01*
X143833705Y-73790126D01*
X143833706Y-73790126D01*
X143977629Y-73790126D01*
X143977629Y-73790125D01*
X144115720Y-73749579D01*
X144236795Y-73671769D01*
X144331044Y-73562999D01*
X144390832Y-73432083D01*
X144411314Y-73289626D01*
X144390832Y-73147169D01*
X144331044Y-73016253D01*
X144236795Y-72907483D01*
X144115720Y-72829673D01*
X144115718Y-72829672D01*
X144115716Y-72829671D01*
X144115717Y-72829671D01*
X143977630Y-72789126D01*
X143977628Y-72789126D01*
X143833706Y-72789126D01*
X143833703Y-72789126D01*
X143695616Y-72829671D01*
X143574540Y-72907482D01*
X143480290Y-73016252D01*
X143480289Y-73016254D01*
X143420501Y-73147169D01*
X143400020Y-73289626D01*
X139189743Y-73289626D01*
X139304147Y-73220055D01*
X139527053Y-73038708D01*
X139723189Y-72828698D01*
X139778741Y-72749998D01*
X152884318Y-72749998D01*
X152884318Y-72750001D01*
X152904955Y-72906760D01*
X152904956Y-72906762D01*
X152965464Y-73052841D01*
X153061718Y-73178282D01*
X153187159Y-73274536D01*
X153333238Y-73335044D01*
X153411619Y-73345363D01*
X153489999Y-73355682D01*
X153490000Y-73355682D01*
X153490001Y-73355682D01*
X153542254Y-73348802D01*
X153646762Y-73335044D01*
X153792841Y-73274536D01*
X153918282Y-73178282D01*
X154014536Y-73052841D01*
X154075044Y-72906762D01*
X154095682Y-72750000D01*
X154086623Y-72681194D01*
X154097388Y-72612162D01*
X154143767Y-72559906D01*
X154193375Y-72542072D01*
X154246762Y-72535044D01*
X154392841Y-72474536D01*
X154518282Y-72378282D01*
X154614536Y-72252841D01*
X154675044Y-72106762D01*
X154695682Y-71950000D01*
X154675044Y-71793238D01*
X154614536Y-71647159D01*
X154518282Y-71521718D01*
X154489978Y-71500000D01*
X159984592Y-71500000D01*
X160004201Y-71786680D01*
X160004201Y-71786684D01*
X160004202Y-71786686D01*
X160005564Y-71793238D01*
X160062666Y-72068034D01*
X160062667Y-72068037D01*
X160158894Y-72338793D01*
X160158893Y-72338793D01*
X160291098Y-72593935D01*
X160456812Y-72828700D01*
X160529716Y-72906760D01*
X160652947Y-73038708D01*
X160875853Y-73220055D01*
X161064943Y-73335044D01*
X161121382Y-73369365D01*
X161308237Y-73450526D01*
X161384942Y-73483844D01*
X161661642Y-73561371D01*
X161911920Y-73595771D01*
X161946321Y-73600500D01*
X161946322Y-73600500D01*
X162233679Y-73600500D01*
X162264370Y-73596281D01*
X162518358Y-73561371D01*
X162795058Y-73483844D01*
X162914226Y-73432082D01*
X163058617Y-73369365D01*
X163058620Y-73369363D01*
X163058625Y-73369361D01*
X163304147Y-73220055D01*
X163527053Y-73038708D01*
X163723189Y-72828698D01*
X163888901Y-72593936D01*
X164021104Y-72338797D01*
X164117334Y-72068032D01*
X164175798Y-71786686D01*
X164195408Y-71500000D01*
X164175798Y-71213314D01*
X164117334Y-70931968D01*
X164021105Y-70661206D01*
X164021106Y-70661206D01*
X163888901Y-70406064D01*
X163723187Y-70171299D01*
X163644554Y-70087105D01*
X163527053Y-69961292D01*
X163304147Y-69779945D01*
X163304146Y-69779944D01*
X163058617Y-69630634D01*
X162795063Y-69516158D01*
X162795061Y-69516157D01*
X162795058Y-69516156D01*
X162665578Y-69479877D01*
X162518364Y-69438630D01*
X162518359Y-69438629D01*
X162518358Y-69438629D01*
X162376018Y-69419064D01*
X162233679Y-69399500D01*
X162233678Y-69399500D01*
X161946322Y-69399500D01*
X161946321Y-69399500D01*
X161661642Y-69438629D01*
X161661635Y-69438630D01*
X161453861Y-69496845D01*
X161384942Y-69516156D01*
X161384939Y-69516156D01*
X161384936Y-69516158D01*
X161384935Y-69516158D01*
X161121382Y-69630634D01*
X160875853Y-69779944D01*
X160652950Y-69961289D01*
X160456812Y-70171299D01*
X160291098Y-70406064D01*
X160158894Y-70661206D01*
X160062667Y-70931962D01*
X160062666Y-70931965D01*
X160004201Y-71213319D01*
X159984592Y-71500000D01*
X154489978Y-71500000D01*
X154392841Y-71425464D01*
X154246762Y-71364956D01*
X154246760Y-71364955D01*
X154090001Y-71344318D01*
X154089999Y-71344318D01*
X153933239Y-71364955D01*
X153933237Y-71364956D01*
X153787160Y-71425463D01*
X153661718Y-71521718D01*
X153565463Y-71647160D01*
X153504956Y-71793237D01*
X153504955Y-71793239D01*
X153484318Y-71949998D01*
X153484318Y-71950001D01*
X153493376Y-72018803D01*
X153482610Y-72087838D01*
X153436230Y-72140094D01*
X153386624Y-72157927D01*
X153333238Y-72164956D01*
X153333237Y-72164956D01*
X153187160Y-72225463D01*
X153061718Y-72321718D01*
X152965463Y-72447160D01*
X152904956Y-72593237D01*
X152904955Y-72593239D01*
X152884318Y-72749998D01*
X139778741Y-72749998D01*
X139888901Y-72593936D01*
X140021104Y-72338797D01*
X140117334Y-72068032D01*
X140175798Y-71786686D01*
X140195408Y-71500000D01*
X140175798Y-71213314D01*
X140117334Y-70931968D01*
X140070432Y-70800000D01*
X147834353Y-70800000D01*
X147854834Y-70942456D01*
X147914622Y-71073371D01*
X147914623Y-71073373D01*
X148008872Y-71182143D01*
X148129947Y-71259953D01*
X148129950Y-71259954D01*
X148129949Y-71259954D01*
X148237107Y-71291417D01*
X148259412Y-71297967D01*
X148268036Y-71300499D01*
X148268038Y-71300500D01*
X148268039Y-71300500D01*
X148411962Y-71300500D01*
X148411962Y-71300499D01*
X148550053Y-71259953D01*
X148671128Y-71182143D01*
X148765377Y-71073373D01*
X148825165Y-70942457D01*
X148845647Y-70800000D01*
X148825165Y-70657543D01*
X148765377Y-70526627D01*
X148671128Y-70417857D01*
X148550053Y-70340047D01*
X148550051Y-70340046D01*
X148550049Y-70340045D01*
X148550050Y-70340045D01*
X148411963Y-70299500D01*
X148411961Y-70299500D01*
X148268039Y-70299500D01*
X148268036Y-70299500D01*
X148129949Y-70340045D01*
X148008873Y-70417856D01*
X147914623Y-70526626D01*
X147914622Y-70526628D01*
X147854834Y-70657543D01*
X147834353Y-70800000D01*
X140070432Y-70800000D01*
X140021105Y-70661206D01*
X140021106Y-70661206D01*
X139888901Y-70406064D01*
X139723187Y-70171299D01*
X139644554Y-70087105D01*
X139527053Y-69961292D01*
X139304147Y-69779945D01*
X139304146Y-69779944D01*
X139058617Y-69630634D01*
X138795063Y-69516158D01*
X138795061Y-69516157D01*
X138795058Y-69516156D01*
X138665578Y-69479877D01*
X138518364Y-69438630D01*
X138518359Y-69438629D01*
X138518358Y-69438629D01*
X138376018Y-69419064D01*
X138233679Y-69399500D01*
X138233678Y-69399500D01*
X137946322Y-69399500D01*
X137946321Y-69399500D01*
X137661642Y-69438629D01*
X137661635Y-69438630D01*
X137453861Y-69496845D01*
X137384942Y-69516156D01*
X137384939Y-69516156D01*
X137384936Y-69516158D01*
X137384935Y-69516158D01*
X137121382Y-69630634D01*
X136875853Y-69779944D01*
X136652950Y-69961289D01*
X136456812Y-70171299D01*
X136291098Y-70406064D01*
X136158894Y-70661206D01*
X136062667Y-70931962D01*
X136062666Y-70931965D01*
X136004201Y-71213319D01*
X135984592Y-71500000D01*
X135590500Y-71500000D01*
X135590500Y-70001015D01*
X135591097Y-69988861D01*
X135591097Y-69988860D01*
X135608018Y-69817056D01*
X135612757Y-69793232D01*
X135662577Y-69628994D01*
X135671875Y-69606549D01*
X135752775Y-69455195D01*
X135766272Y-69434995D01*
X135875149Y-69302328D01*
X135892328Y-69285149D01*
X136024995Y-69176272D01*
X136045195Y-69162775D01*
X136196549Y-69081875D01*
X136218994Y-69072577D01*
X136383232Y-69022757D01*
X136407056Y-69018018D01*
X136578862Y-69001096D01*
X136591016Y-69000500D01*
X163588984Y-69000500D01*
X163601137Y-69001096D01*
G37*
%TD.AperFunction*%
%TD*%
D12*
X146840000Y-84750000D02*
X153340000Y-84750000D01*
X146840000Y-80250000D02*
X153340000Y-80250000D01*
X146840000Y-84750000D02*
G75*
G02*
X146840000Y-80250000I0J2250000D01*
G01*
X153340000Y-80250000D02*
G75*
G02*
X153340000Y-84750000I0J-2250000D01*
G01*
X135090000Y-68500000D02*
X165090000Y-68500000D01*
X165090000Y-122500000D01*
X135090000Y-122500000D01*
X135090000Y-68500000D01*
X139690000Y-119500000D02*
G75*
G02*
X136490000Y-119500000I-1600000J0D01*
G01*
X136490000Y-119500000D02*
G75*
G02*
X139690000Y-119500000I1600000J0D01*
G01*
X163690000Y-71500000D02*
G75*
G02*
X160490000Y-71500000I-1600000J0D01*
G01*
X160490000Y-71500000D02*
G75*
G02*
X163690000Y-71500000I1600000J0D01*
G01*
X139690000Y-71500000D02*
G75*
G02*
X136490000Y-71500000I-1600000J0D01*
G01*
X136490000Y-71500000D02*
G75*
G02*
X139690000Y-71500000I1600000J0D01*
G01*
X163690000Y-119500000D02*
G75*
G02*
X160490000Y-119500000I-1600000J0D01*
G01*
X160490000Y-119500000D02*
G75*
G02*
X163690000Y-119500000I1600000J0D01*
G01*
M02*
