%TF.GenerationSoftware,KiCad,Pcbnew,8.0.4*%
%TF.CreationDate,2024-11-15T13:14:51-06:00*%
%TF.ProjectId,BM_DepthIMU_v2,424d5f44-6570-4746-9849-4d555f76322e,rev?*%
%TF.SameCoordinates,Original*%
%TF.FileFunction,Paste,Top*%
%TF.FilePolarity,Positive*%
%FSLAX46Y46*%
G04 Gerber Fmt 4.6, Leading zero omitted, Abs format (unit mm)*
G04 Created by KiCad (PCBNEW 8.0.4) date 2024-11-15 13:14:51*
%MOMM*%
%LPD*%
G01*
G04 APERTURE LIST*
G04 Aperture macros list*
%AMRoundRect*
0 Rectangle with rounded corners*
0 $1 Rounding radius*
0 $2 $3 $4 $5 $6 $7 $8 $9 X,Y pos of 4 corners*
0 Add a 4 corners polygon primitive as box body*
4,1,4,$2,$3,$4,$5,$6,$7,$8,$9,$2,$3,0*
0 Add four circle primitives for the rounded corners*
1,1,$1+$1,$2,$3*
1,1,$1+$1,$4,$5*
1,1,$1+$1,$6,$7*
1,1,$1+$1,$8,$9*
0 Add four rect primitives between the rounded corners*
20,1,$1+$1,$2,$3,$4,$5,0*
20,1,$1+$1,$4,$5,$6,$7,0*
20,1,$1+$1,$6,$7,$8,$9,0*
20,1,$1+$1,$8,$9,$2,$3,0*%
G04 Aperture macros list end*
%ADD10RoundRect,0.079500X0.079500X0.100500X-0.079500X0.100500X-0.079500X-0.100500X0.079500X-0.100500X0*%
%ADD11RoundRect,0.079500X-0.079500X-0.100500X0.079500X-0.100500X0.079500X0.100500X-0.079500X0.100500X0*%
%ADD12RoundRect,0.079500X0.100500X-0.079500X0.100500X0.079500X-0.100500X0.079500X-0.100500X-0.079500X0*%
%ADD13R,0.250000X0.675000*%
%ADD14R,0.575000X0.250000*%
%ADD15R,0.250000X1.150000*%
%ADD16R,1.400000X2.100000*%
%TA.AperFunction,Profile*%
%ADD17C,0.050000*%
%TD*%
G04 APERTURE END LIST*
D10*
%TO.C,C3*%
X150090000Y-112000000D03*
X149400000Y-112000000D03*
%TD*%
%TO.C,R4*%
X154935000Y-73937500D03*
X154245000Y-73937500D03*
%TD*%
D11*
%TO.C,R3*%
X148925000Y-101850000D03*
X149615000Y-101850000D03*
%TD*%
%TO.C,R1*%
X145140073Y-74324490D03*
X145830073Y-74324490D03*
%TD*%
D12*
%TO.C,C2*%
X145166532Y-73273579D03*
X145166532Y-72583579D03*
%TD*%
D10*
%TO.C,C1*%
X148490000Y-76250000D03*
X147800000Y-76250000D03*
%TD*%
D13*
%TO.C,U1*%
X147840000Y-71937500D03*
D14*
X147777500Y-72750000D03*
X147777500Y-73250000D03*
X147777500Y-73750000D03*
X147777500Y-74250000D03*
D13*
X147840000Y-75062500D03*
X148340000Y-75062500D03*
X148840000Y-75062500D03*
X149340000Y-75062500D03*
X149840000Y-75062500D03*
X150340000Y-75062500D03*
X150840000Y-75062500D03*
X151340000Y-75062500D03*
X151840000Y-75062500D03*
X152340000Y-75062500D03*
D14*
X152402500Y-74250000D03*
X152402500Y-73750000D03*
X152402500Y-73250000D03*
X152402500Y-72750000D03*
D13*
X152340000Y-71937500D03*
X151840000Y-71937500D03*
X151340000Y-71937500D03*
X150840000Y-71937500D03*
X150340000Y-71937500D03*
X149840000Y-71937500D03*
X149340000Y-71937500D03*
X148840000Y-71937500D03*
X148340000Y-71937500D03*
%TD*%
D15*
%TO.C,J1*%
X153590000Y-92925000D03*
X153590000Y-98075000D03*
X153090000Y-92925000D03*
X153090000Y-98075000D03*
X152590000Y-92925000D03*
X152590000Y-98075000D03*
X152090000Y-92925000D03*
X152090000Y-98075000D03*
X151590000Y-92925000D03*
X151590000Y-98075000D03*
X151090000Y-92925000D03*
X151090000Y-98075000D03*
X150590000Y-92925000D03*
X150590000Y-98075000D03*
X150090000Y-92925000D03*
X150090000Y-98075000D03*
X149590000Y-92925000D03*
X149590000Y-98075000D03*
X149090000Y-92925000D03*
X149090000Y-98075000D03*
X148590000Y-92925000D03*
X148590000Y-98075000D03*
X148090000Y-92925000D03*
X148090000Y-98075000D03*
X147590000Y-92925000D03*
X147590000Y-98075000D03*
X147090000Y-92925000D03*
X147090000Y-98075000D03*
X146590000Y-92925000D03*
X146590000Y-98075000D03*
D16*
X155840000Y-95500000D03*
X144340000Y-95500000D03*
%TD*%
D10*
%TO.C,R2*%
X151235000Y-101850000D03*
X150545000Y-101850000D03*
%TD*%
D11*
%TO.C,R5*%
X154245000Y-75000000D03*
X154935000Y-75000000D03*
%TD*%
D17*
X146840000Y-84750000D02*
X153340000Y-84750000D01*
X146840000Y-80250000D02*
X153340000Y-80250000D01*
X146840000Y-84750000D02*
G75*
G02*
X146840000Y-80250000I0J2250000D01*
G01*
X153340000Y-80250000D02*
G75*
G02*
X153340000Y-84750000I0J-2250000D01*
G01*
X135090000Y-68500000D02*
X165090000Y-68500000D01*
X165090000Y-122500000D01*
X135090000Y-122500000D01*
X135090000Y-68500000D01*
X139690000Y-119500000D02*
G75*
G02*
X136490000Y-119500000I-1600000J0D01*
G01*
X136490000Y-119500000D02*
G75*
G02*
X139690000Y-119500000I1600000J0D01*
G01*
X163690000Y-71500000D02*
G75*
G02*
X160490000Y-71500000I-1600000J0D01*
G01*
X160490000Y-71500000D02*
G75*
G02*
X163690000Y-71500000I1600000J0D01*
G01*
X139690000Y-71500000D02*
G75*
G02*
X136490000Y-71500000I-1600000J0D01*
G01*
X136490000Y-71500000D02*
G75*
G02*
X139690000Y-71500000I1600000J0D01*
G01*
X163690000Y-119500000D02*
G75*
G02*
X160490000Y-119500000I-1600000J0D01*
G01*
X160490000Y-119500000D02*
G75*
G02*
X163690000Y-119500000I1600000J0D01*
G01*
M02*
